<svg xmlns="http://www.w3.org/2000/svg" width="1501" height="244" viewbox="0 0 1501 244" version="1"><defs><linearGradient id="a" x1="50%" x2="50%" y1="15%" y2="100%"><stop offset="0%" stop-color="#91AC94"/><stop offset="100%" stop-color="#6F7B70"/></linearGradient><linearGradient id="b" x1="50%" x2="50%" y1="0%" y2="100%"><stop offset="0%" stop-color="#FFF"/><stop offset="100%" stop-color="#DFDFDF"/></linearGradient><linearGradient id="c" x1="50%" x2="50%" y1="1%" y2="100%"><stop offset="0%" stop-color="#627264"/><stop offset="100%" stop-color="#8D9C8F"/></linearGradient><linearGradient id="d" x1="50%" x2="50%" y1="0%" y2="100%"><stop offset="0%" stop-color="#718874"/><stop offset="100%" stop-color="#374039"/></linearGradient><linearGradient id="e" x1="50%" x2="50%" y1="0%" y2="100%"><stop offset="0%" stop-color="#BECBBF"/><stop offset="100%" stop-color="#899B8B"/></linearGradient><linearGradient id="f" x1="50%" x2="50%" y1="0%" y2="100%"><stop offset="0%" stop-color="#627264"/><stop offset="100%" stop-color="#526B55"/></linearGradient><linearGradient id="g" x1="50%" x2="50%" y1="0%" y2="100%"><stop offset="0%" stop-color="#718874"/><stop offset="100%" stop-color="#AABDAC"/></linearGradient><linearGradient id="h" x1="50%" x2="50%" y1="1%" y2="100%"><stop offset="0%" stop-color="#627564"/><stop offset="100%" stop-color="#4D5F4F"/></linearGradient><linearGradient id="i" x1="50%" x2="50%" y1="0%" y2="100%"><stop offset="0%" stop-color="#FFF"/><stop offset="100%" stop-color="#505E52"/></linearGradient></defs><g fill="none" fill-rule="evenodd"><path fill="url(#a)" d="M0 243l144-56 90-89 97-49 68-49 64 49 83 36 123 62 78 57 53 39z" transform="translate(350 1)"/><path fill="url(#b)" stroke="#A3BDA6" d="M332 49l67-49 63 49-9 9-15-9-7 9-16-9-16 16-8-7-8 7-8-22-12 15-10-9-13 16z" transform="translate(350 1)"/><path fill="url(#c)" d="M1151 85l45 12 85-42 45 42 68 48 107 25H351l386-17 37-43 84-25 51-45 76-40 66 54 100 31z" transform="translate(0 74)"/><path fill="url(#d)" d="M350 170l35-26 72-7 75-14 103-47 84-44 46-32 61 10 30 31 42 35 25 31 86 23 25 30 116 10z" transform="translate(0 74)"/><path fill="url(#e)" d="M350 170v-40l74-34 84-41 78 7 100-37 46 37 95 40 62 51 261 17z" transform="translate(0 74)"/><path fill="url(#f)" d="M350 170H13l85-23 26-35 67-45 76 9 25 29 58-29 86-21 80 57 99-15 58 56 477 17H350z" transform="translate(0 74)"/><path fill="url(#g)" d="M350 170H0l78-40 78-18 56 9 51-31 48-5 39 5 88 14 57 33 102 16 553 16-800 1z" transform="translate(0 74)"/><path fill="url(#h)" d="M1150 63l29-19 25 6 17 21 60 9 53 51 50-7 48 28 68 18H350l370-5 94-44 68-15 64-33 44 13 70 20 62-14 28-29z" transform="translate(0 74)"/><g><path fill="#435646" d="M832 203l-1 5h-5l1-5-11-2-6-2 9-3c4-1 5-2 2-4h-7l10-3c5-1 6-3 2-4h-8l6-2c3 0 4-1 4-3h-4c3-2 5-4 6-9 1 5 3 8 5 9 3 2 1 2-4 0 0 2 1 3 4 4l6 2h-8c-4 0-3 2 2 3l10 4h-7c-3 1-2 3 2 4l9 3-7 2-10 1z"/><path fill="#505E52" d="M775 204v9h-7v-9l-14-2-8-2 12-5c5-2 6-4 2-7h-8l12-4c7-3 8-5 3-6h-10l7-3c4 0 6-2 5-5-6 2-8 2-5 0 4-2 6-7 8-14 1 7 3 12 7 14 3 2 1 2-5 0-1 3 1 5 5 5l7 3h-10c-5 1-4 3 3 6l12 4h-8c-4 3-3 5 2 7l12 5-8 2-14 2z"/><path fill="#697B6B" d="M731 150v-2 1l1-1v2l6 9c0 3 1 6 5 8 4 3 3 4-2 3-4 1-3 1 1 2 5 1 8 2 10 4h-10c-4-1-3 3 5 3s15 8 13 8c-3 0-15 3-17 0-3-2-7 3-5 5 2 1 2-1 11 3 8 4 10 7 7 7-3 1-6 4-16 1s-4 3-1 3l9 3c2 1-4 1-9 1h-20l9-3c3-1 9-7-1-4-10 4-13 2-16 1-3 0-1-4 7-8 7-4 8-2 10-4 1-1-3-7-5-4s-15 0-17 1c-3 0 4-8 12-9 8 0 8-4 5-3h-10c2-2 5-3 10-4 4-1 4-2 1-2-6 1-6 0-3-3 4-3 5-5 4-8l6-10z"/><path fill="#505E52" d="M655 165v-2l1 1v-1 2l3 7c0 3 0 5 3 7 2 2 1 3-2 2-2 1-2 1 1 2 2 0 4 1 5 3h-5c-2-1-2 3 3 3 4 0 8 6 7 6-2 0-9 2-10 0s-4 2-3 3c1 2 2 0 6 3 5 4 6 6 4 7-1 0-3 2-9 0l-3-1v1l2 2 5 3h-15l5-3 2-2v-1l-3 1c-6 2-8 0-9 0-2-1-1-3 4-7 4-3 5-1 6-3 1-1-2-5-3-3s-8 0-10 0c-1 0 3-6 7-6 5 0 5-4 3-3h-5c1-2 3-3 5-3 3-1 3-1 1-2-3 1-4 0-2-2 3-2 3-4 3-7l3-7zM697 200v5h-5v-5l-11-2-6-1 9-3c4-2 5-3 2-5h-7l10-3c5-1 6-3 2-4h-8l6-1c3-1 4-2 4-4h-4c3-1 4-4 6-9 1 5 2 8 5 9h-4c0 2 1 3 4 4l6 1h-8c-4 1-3 3 2 4l10 3h-7c-3 2-2 3 2 5l9 3-6 1-11 2z"/></g><g><g fill="#505E52"><path d="M428 224l7-25 6 19 6-26 11 25 1-12 10 11 11-4 3 10 12-26 1 19 8-13 8 18 8-23 8 16 11-19 11 18 12-18 10 23 10-24 1 23 14-15 1 15 1 11-170 8z"/><path d="M578 206l8-33 5 25 6-33 10 33 2-15 8 15 11-6 3 14 12-33v25l8-15 7 23 8-31 8 23 11-25 9 25 13-23 9 31 10-31v31l14-20v34H578z"/><path d="M733 209l9-25 6 19 7-25 11 25 2-11 10 11 12-4 3 10 14-25v19l10-11 8 17 9-23 8 17 13-19 11 19 14-17 10 23 12-23v23l16-15v26H733zM947 213l11-24 6 19 8-24 11 25 2-11 11 11 13-3 2 10 16-23-1 18 11-10 7 17 11-22 9 17 13-17 12 18 15-15 10 23 13-22-1 22 18-14-1 15v10l-196-10z"/></g><g fill="#414D42"><path d="M602 214l7-38 5 29 6-38 8 38 2-18 8 18 10-7 2 16 11-38v29l8-18 7 27 7-35 7 26 10-29 9 29 12-26 8 35 9-35v35l13-24v40H602z"/><path d="M615 214l6-38 5 29 5-38 8 38 2-18 7 18 9-7 2 16 10-38v29l8-18 6 27 6-35 6 26 10-29 8 29 10-26 8 35 8-35v35l12-24v40H615z"/><path d="M733 211l6-42 4 32 5-42 8 42 1-19 7 19 8-7 3 17 9-42v32l7-19 6 29 6-39 6 29 8-32 8 32 10-29 7 39 8-39v39l11-26v44H733zM614 221l-6-30-5 23-6-31-9 31-2-15-8 15-9-6-3 14-11-30v23l-8-15-6 22-8-28-6 21-11-23-8 24-12-21-8 28-9-28v28l-14-19v31l149-2z"/><path d="M1025 219l-6-32-7 24-6-33-12 32-2-15-10 15-12-7-4 14-11-32-1 24-10-16-9 23-7-30-9 21-12-24-11 24-14-23-10 30-11-31-1 30-16-20v20l-1 13 182 6z"/><path d="M1018 216l6-20 4 15 6-19 6 20 1-9 7 9 7-3 1 9 10-20v15l7-8 4 14 7-19 5 15 8-15 7 15 9-13 6 19 8-18-1 19 12-13-1 13v8l-119-6zM478 225l-6-24-2 19-6-24-5 25-1-12-6 12-7-5-2 10-9-23 1 19-6-12-4 17-7-22-4 17-8-18-5 19-10-17-5 22-7-21 1 22-10-15v15l1 10 107-4z"/><path d="M303 231l3-17 5 12 3-17 8 16 1-7 6 7 7-4 2 7 6-16 1 12 5-8 6 11 4-15 6 10 7-12 7 11 7-11 7 14 6-15 1 15 9-11 1 10 1 7-108 8z"/><path d="M361 224l-5-15-1 12-5-17-4 18-2-8-3 8-6-2v7l-9-16 1 12-4-7-3 12-6-15-3 12-7-12-4 13-8-11-3 16-7-15 2 15-9-9 1 10v7l86-8zM1224 230l-2-13-3 9-3-14-6 13v-7l-5 7-6-4-3 6-4-14-1 10-4-8-4 10-4-13-4 9-5-11-6 10-6-11-6 12-4-13-1 13-7-10-1 9-1 5 86 10z"/><path d="M1195 228l-3-18-4 13-2-17-6 17-1-8-5 8-6-3-1 7-5-18-1 13-4-8-5 12-3-16-5 12-5-13-6 12-6-12-5 16-5-16-1 16-6-10-1 10v7l86 3z"/></g><path fill="#505E52" d="M0 244h1500c-328-21-578-32-750-32S328 223 0 244z"/></g><g><g fill="#A3BDA6"><path d="M638 31c-1-6 2-9 8-11 7-1 12-1 17 2-9-5-15-6-20-4s-7 6-5 13z"/><path d="M638 31c-1-6-5-8-12-6-6 2-11 5-14 9 6-8 11-12 16-13 5 0 9 3 10 10z"/></g><g fill="#505E52"><path d="M982 25c0-4 4-7 13-7 8 0 15 1 20 4-10-5-17-7-23-6-7 1-10 4-10 9zM982 25c0-4-4-6-12-6-9 0-15 2-21 5 10-6 18-8 23-8 7 1 10 4 10 9z"/></g><g fill="#627564"><path d="M1047 62c3-10 10-13 23-10s22 9 28 17c-11-15-22-22-31-23-11-1-17 4-20 16z"/><path d="M1047 62c3-10-3-16-15-19-13-3-24-2-33 2 17-8 30-10 38-6 10 4 14 12 10 23z"/></g></g><path fill="url(#i)" d="M743 212l2 2v3l-2 4-3 3c-2 2-2 4-1 6s6 2 5 6c-1 3-4 6-9 8h23c2-3 3-5 2-8-1-4-3-5-5-7l-5-4c-1-3 1-6 1-8s-1-2-2-3l-3-2h-3z"/></g></svg>
