<svg xmlns="http://www.w3.org/2000/svg" width="1656" height="398" version="1"><g fill="none" fill-rule="nonzero"><path fill="#111512" d="M243 9v11l-1 7-3-4c-5-4-5-4-5-1l4 6c3 4 4 5 4 10l-1 5-1-2-1-2-1-3c0-5-3-8-4-6l-1 3c1 2-2 1-4-1l-3-2c-2 0-2 3 1 7 4 4 5 5 2 6-1 0-2 1-1 2 0 3 3 3 5 1 1-1 1-1 1 3 0 3 0 3-3 1s-4-2-4 0l3 5c3 2 3 2 1 2-1-1-2 0-2 1-1 2-2 2-9-2-3-3-6-4-7-4-2 1 0 5 2 6l3 2h-2c-2 0-3 1-3 2-1 1 1 3 3 2h1l2 1v1c-1 0-1 1 1 2l2 2-4 1c-4 1-5 2-3 4l3 1h6l2 1 2-1 2-1h2l-2 2c-2 2-2 3-1 3 1 1 4 1 5-1v2c0 2 0 2 2 2l2-1h1l1-1 2-2 1 3v3l-7 1c-7 1-8 0-13-2-4-3-7-4-7-2l3 3 2 1h-3l-12-6-3-2c-2 0-3 2-1 4l-4 1-6 1c-4 2 4 6 10 5l4-1-2 2-3 3c1 3 5 2 8-1 1-2 3-3 4-2l-1 1c-4 2-5 3-3 4 1 0 2 1 1 2l1 2 2-1 6-2 3-2 2-1c0 1-2 3-5 4l-2 2c0 2 3 3 5 1s2-2 1 0c-1 3 1 3 4 0 1-2 1-2 2-1h2l2-2c5 1 10-3 10-6 0-2 0-2 1 0 0 2 0 3-3 6l-10 7-6 3-5-3-6-2c-2-1-1 1 1 4 1 2 1 2 0 0h-3l-4-1c-3-2-4-2-4 0 1 2 0 2-2 2l-4-1c-1-1-4 1-4 3l2 1c2 0 2 0 0 1-1 2-1 3 3 2 1 0 2 1 1 2 0 1 0 2 2 1 2 0 3 0 2 2 0 2 0 2 3 0 2-1 5 3 3 5h-2l-4-1h-3c1 1 0 1-1 1-3-1-3 1 0 2l1 4c0 3-1 3-4 0l-5-3v3c1 2 0 2-7 1h-4c0 2 5 4 7 4s2 1 1 2v2h2c3 0 4 0 4 2l2 1c2 0 3 0 3 2s0 2 2-1c1-1 2-2 2 0l1 1 2 2 2 3 2 2 2 1 2 2c2 2 2 2 4 0l2-2-1 2-9 4c-9 2-11 2-15-1-3-2-5-1-4 1s1 2-2 2l-4-1-3 1c-2 1-1 1 2 3 2 1 3 2 2 4l1 1c3 0 4 0 4 2-1 2 2 4 5 2l1-1c-2 3 0 5 3 4 4-1 5 1 1 2-5 2-10 2-11 0-2-2-6-2-5 0 1 1 0 1-4 1-5-1-6 1-1 2 3 1 3 2 3 3 0 2 3 4 5 2 2-1 2 0 2 2s0 2 2 2c2-1 2-1 2 1-1 1-1 2 1 1h2c0 2 2 1 5-2s5-4 7-2c3 1 2 2-1 2-4-1-4 1-2 4 2 2 2 2 0 2l-3 2-3 1-3 1-4 1-5 1-5 1c-2-1-3 0-3 2-1 1-1 2-3 2h-4-2l-2 1c0 1 5 4 8 4 2 0 2 0 0 2-1 2-1 2 1 2s3 1 2 2l3 1 3-1c3 0 4 1 3 2-1 2 2 2 3 0 2-3 2-3 2-1l1 2c6 1 7 1 8-2l1-3 1 2 1 3 2-3c2-2 2-2 2 0 0 3 2 3 2 0l2-3v1l3 1h3c-1 2-7 5-10 5-2 0-3 1-3 2l-5 1h-5c0 2 3 4 6 4l3 1c1 1-5 2-20 3l-22 2-3 1h-2c0 2 3 3 6 3l2 1-1 1-3 2-3 3 4-1 3 1 2 1h2c0 2 2 2 4 0l2-2v2l-2 3 4-1c1-1 3-1 3 1 1 3 2 3 6 0l3-2-1 3c-1 4 1 4 5 1 3-2 3-2 2 0s-1 3 1 3h5l1-1 2 2 3 1c10-1-3 5-16 7-7 1-8 1-11-1l-4-2c-2 0-1 2 1 3s1 1-2 1l-7-1-8-1-5-1c-1 1 6 5 9 5l4 1h-3c-3 0-4 1-4 2l2 2h5c1 0 1 1-1 2-2 2-1 3 2 1 2-1 2 0 2 1l3 1 5-1c2-1 2-1 0 1-2 1-1 2 2 1l2 2c0 2 1 2 3-1l2-2-2 3-1 3c0 2 5 1 7-1s2-2 1 0c-1 4-2 4-11 7-8 3-8 3-12 1-5-2-11-2-11-1l1 2h-4c-3-1-6-2-7-1-1 0-1 1 1 3l2 2-3-1h-11c0 2 6 4 10 4h3l-3 3c-2 2-2 5 0 4 1 0 2 0 2 2s0 2 2 2l3 2h4l2-2 2 1c2 2 2 4 1 4l-1 1c1 1 0 1-2 1h-3l-5 1c-4 0-5 1-3 3l7 1 4-1-3 2c-3 2-4 3-3 4l2 1 3-1c1 0 1 0 0 0-2 1-1 3 2 2h1c-3 2 0 3 3 1l3-1-1 2-1 1h6l2 1c1-1 1-1 0 0-1 2-4 2-16 2h-14l1 1 3 2c2 1 2 1 0 2h-4c-4 0-7 2-6 3 1 2 6 2 10 1 6-2 6-2 3 1s-3 5 1 4l4-1 1 1v3l1 2c1 1 7-3 7-4h1v3l-1 3c0 2 5-2 9-6s4-3 1 1l-1 3c1 1 1 1 3-1l3-2v2c-1 3-1 3-9 4l-9 1c-3-2-8-3-8-2l2 2h-7c2 2 1 3-2 3-3-1-7 0-7 1l3 1c5 0 4 2-1 4-9 3-7 6 2 3 5-2 6-2 3 0l-2 3 3 1c2-1 2-1 1 1-3 3 0 3 5 0 2-2 2-2 1 1 0 2 0 2 1 0 2-1 2-1 1 1 0 2 0 2 2 0 3-3 4-3 3 0-1 2 2 2 6-1l3-1 3 1h1l-7 2c-7 2-9 3-8 4h8c2-1 2 0-1 2l-3 4c0 1 5 0 9-2 3-2 4-1 1 2-2 2-1 4 1 3l2 1c0 2 1 2 3 0s2-2 2 0c-1 3 5 2 8-1l2-3-1 3c-1 4 2 5 6 0l3-3 1 3c0 4 1 5 3 3s2-2 4-1c1 2 1 2 1 0l2-2c1 0 2 0 2-2l2-2 3 2 4-4c2-5 5-6 3-3 0 3 0 3 3 1l3-4c0-2 0-2 1 0 0 3 2 1 2-3 0-3 0-4 1-2l3 1c2 0 2 1 1 8 0 5-1 9-3 13l-2 4h25v-5c-2-4-3-13-2-13l3 2c2 3 4 5 3 2s1-2 2 2c1 2 2 3 4 3l4 1h4c3 3 4 3 3 0 0-1 0-2 1-1l4 1 8 1c2 1 2 0 2-1v-2-2c-2-2-1-2 3-1 4 3 5 2 3 0v-1l2 1h2l1 3c1 2 2 2 3 0 2-1 2-1 4 1l1 3 1-3c1-2 1-2 2 0 2 2 3 2 5 0v-3l-1-2v-2c-1-2-1-2 2 1 6 6 7 6 8 4 1-1 2-2 1-3h1c6 5 11 5 7 1-1-1-1-1 2-2l2-1-3-2c-4-3-1-3 4 0l6 2c2 0 1-1-1-2s-2-2 1-2l6-1c2-1 2-2-1-2-4 0-19-2-22-4-4-1-5-4-1-2 3 1 5 0 3-2-2-1-1-1 2-1 5 1 6-1 3-2-2-1-2-2 2-1 6 0 8-2 3-3l-4-1h4c3-1 4-2 1-3-2-1-1-2 4-1 6 0 6 0 4-1l-3-2-3-1 2-1c4 1 7 0 7-1l-7-1c-4 0-7-1-7-2l7-2c6-1 10-3 9-4s-7 0-14 2c-2 1-2 0 1-2 5-5 2-5-5-1-8 4-12 4-20 1-10-3-25-11-26-13-2-2-1-2 2 1l2 1h3c0-2 0-2 3 1l3 3v-3c-1-4-1-4 2-2l4 2c4 3 4 3 4-1v-2c2 2 6 2 6 0s2-2 3 0l3 3h3l-2-3-2-3c0-1 0-1 0 0l3-1c1-1 2-2 5-1l4-1 4-1c9 3 11 0 2-3-6-2-6-3-1-2 7 2 16 1 12-2l-6-1c-4 0-4 0-2-1l4-2h-10c-10 0-10 0-9-2 2-2 1-3-4-1l-9 1c-6-1-25-7-27-9-3-2-3-4 0-3l2-1 6 2 8 1h6c3 1 3 0 1-2l1 1c4 3 5 3 5 1h2l4 1 3-3c3-1 3-1 1-2-2-2-1-2 2-1h3l6-3c4 0 7-1 7-2h1l3-1c1 0 1-1-1-1-3-1-3-1-3-3 1-1 0-2-1-2-2 0-1-1 4-2 6-2 8-4 2-3h-19l1-1 1-1-5-1c-6 1-17-2-18-3l2-2 3-1h1l2-1 2 1 5 1h2l-2-2-2-2h9l-3-2-4-2h3l6-2 3-3 3-2c2-3-1-3-7-1s-7 2-6-1c0-2 0-2-6 0-5 2-6 2-13-1-10-3-13-5-5-5l2-1c1-1 1-1 3 1l6 1c4-1 5-1 2-3-2-2-1-2 3 0 2 1 2 0 2-1-1-1-1-2 1-2l2-1v-2-2c-2-1-2-1 0-4 4-3 3-4-2-2-13 4-18 4-21 1-2-2-2-2-1-3l5 1c4 1 5 0 1-3-2-2-2-3-1-3 4 1 6 0 6-1l-2-1v-1c2 0 3-1 3-2 1-1 1-2-1 0-4 2-25 1-29-1-3-1-3-1-1-2 2 0 2 0 2-2-1-2-1-2 1 0 2 1 5 3 5 1h2l2-1 2-1c4 0 4-1 0-4l-4-2h6c5 1 7 1 6-1-1-1 2-4 5-4s4-1 1-2h1l3-1 1-2v-1c-1-1-2-2-4-1h-1c2-1 1-3-2-2-2 0-2 0-1-1 0-2 0-2-1-1l-4 1-5 1h-3l3-2c3-3 4-4 1-3-3 2-5 2-3 0s1-4-1-2l-6 4c-6 3-22-1-22-6l-1-2v-2l1 2 4 1 6 1c1 0 2 0 2-2v-2l3 2c3 2 4 2 4 1v-2h12c2-1 2-1 0-3-1-1-1-1 1-2 3-1 4-3 1-3l1-1 6-4 3-2-3-1-4-2h-3c-2 1-2 1-1-1 2-2-1-3-4-1l-8 2c-3 0-4 0-2-1s2-2 1-5l-3 1-7 2c-6 0-17-4-24-9-3-2-2-2 1-1h2c0-2 0-2 1 0l2 1 3 1c3 2 3 2 3-1 0-2 0-3 1-2l6 3 1-2c0-2 0-2 1 0l1 2 2 1c2 1 3 1 4-1l2-1v-2c0-3 0-3 2-2 4 2 5 1 3-1v-2c2 0 2 0 0-2v-2l2 1c2 2 3 2 7 1l-1-1c-1-2-1-3 2-3l4-2 2-2h-8c-2 0-2 0-1-1 2-3 0-3-3 0-5 3-7 3-5 1v-1c-2 1-3-1-1-2 3-3 0-3-3 0-6 5-7 5-14 3-8-2-13-5-14-7s-1-2 1-2l3 1 3 2c2 0 2 0 2-2l1 1 5 2c2 0 2 0 2-3-1-3 1-4 4-1 1 2 7 3 7 2l-3-4c-3-2-3-3-2-3l3 2 1 1h1l4 1c2 0 2 0 0-1s-2-2 1-3l4-1-1-1c-3-1-3-1 1-1l6-1c2-2 0-4-5-4l-4-1c2-2-2-2-6 0-5 3-6 3-5 1l-1-2c-1 0-2 0-1-1 0-2 0-2-3-1s-3 1-2-1c0-2-2-2-3-1l-4 3c-4 2-5 2-8 1-4-1-4-1-3-2l2-2c0-1-1-2-5-2-3 1-5 0-6-1-2-2-4-10-3-11s1 1 1 4l2 4c2 3 2 3 3 2l2-4c0-2 0-2 1 0 0 3 3 5 6 5 2 0 2 0 1-2v-2l1-1 1-1 1 2c0 2 6 7 7 6l1-3 1-2v-1l2 1 2 2 3-1 7-4-3-2c-2 0-3-1-3-2l-3-1c-3 0-8-3-6-3l1-2c0-2-5-2-7-1-1 2-5 3-5 2l2-2c3-1 3-1 2-2s-1-2 1-2 6-2 5-3l-6-1c-5-1-5-1-3-4 1-1 1-2 3 0 3 1 3 1 3-1l2-1 1-1 2-1 2-1c0-2-2-3-5-3-2 0-3-1-1-2 1-1 2-1 1-2l2-2c4-1 3-3-1-3h-4l3-3c2-3 2-4 1-5s-2 0-5 2c-3 4-3 4-4 2l-2-2-5 9c-1 3-10 11-11 10l-1-6v-6l-1-3c0-3 1-4 3-5 3 0 3 0 2 1-1 3 2 4 4 1l2-1c1 1 5 1 5-1l-6-5h-2c-3-1-1-3 2-2h10l-1-2-3-1-2-1h-1l3-3c3-2 4-4 2-4s-9 3-9 5l-1-1v-3c-1-1-5 6-5 8l-1 1-2 1c-1 2-1 1-1-3l5-10 5-7c0-2-5-1-6 2-2 4-4 3-3-3 0-4 0-5-2-7l-2-2zm-7 35l3 2 3 7-1 3-2-5-2-4-1-3zm-2 15c2 0 6 3 7 5 1 3 0 4-2 1l-3-2c-1 0-4-3-3-4h1zm27 8h1c1 0 1 1-3 4l-6 4-2 1h-1l-1-2c0-2 1-2 4-2l4-1 1-2 2-1 1-1zm-12 14l3 1 4 1h3l-1 1-2 1-4-2-3-2zm11 3h4c1 0 1 1-1 2-2 2-3 2-3-1v-1zm15 3l1 1c0 2-2 2-2 0l1-1zm-23 16l1 5c0 5 0 6-1 5-2-1-1-10 0-10zm-8 14h1l-1 1v-1zm8 2h1v3c-1 1-1 1-1-1v-2zm-12 0l1 1-1 1-1-1 1-1zm-5 2l1 1-1 1-1-1 1-1zm-21 0l2 2c2 2 6 3 8 0h2l1 1 2-1h3c0 1-1 2-3 2l-8 2-7-1-1-4 1-1zm92 53l1 1c0 2-1 2-2 0l1-1zm-84 12l-2 2-6 2 8-4zm87 43h2c2 1 1 1-2 1h-4l4-1zm22 5l1 1h-2l1-1zm0 25l3 1v1l-2-1-1-1zm-174 41s1 0 0 0l-1 1c-2 0-1 0 0-1h1zm16 8l2 3 3 2 1-2c2-3 2-3 3-1h2l1 1c1 2 3 3 3 1l3-1h2l-3 2-7 1h-4c1 2 0 2-3 0l-3-1-2 1c-2-1-2-1 0-3l2-3zm23 1l1 1-1 1c-2 0-2 0-1-1l1-1zm-10 42h1l-1 1v-1z"/><path fill="#1A231C" d="M419 392v-11c1-5 1-5 3-4h3l2 1h3l2 1c1 2 3 2 3 1h3v-1l2-1h1c-2-1-2-2 0-1l2-2 1-1v1l1 2 1-1h4l-2-1-2-1-3-2c-4-1-4-2 0-2h13l6-2h-3c-2 1-3 0-4-2l1-2 1 1v2l2-1 1-1 2-1 2-2c4 0 5 0 3-2-2-1-2-1-1-2l2-3c0-3-1-4-4-1-2 3-5 4-7 3s-2-2-1-2v-1l1-1 1-1h3l1-3c1-2 1-3-3-3l-2-2 3 1h3l-2-1c-2 0-2-2 0-3l3-1h-2l-3-1 2-2 3-2-7 1-1 1h-1c-2 1-8 0-8-1l1-1 4-1c1-2 2-2 3-2 1 1 1 0 1-1-1-1-1-1 0 0s2 0 3-3c1-1 1-2 2-1 1 0 2 0 2-2s0-3-1-1c-1 1-4 1-4-1l-2-1h-1l1-1 1-1 2-1v-1c-1-1 0-2 1-1s1 0 1-1l-1-1 1-1 1-1c0-1-2-1-5 2l-4 2 2-4c2-2 2-3 1-3h2l2-1-2-1-1-1 1-1v-1l-3-1-5-1-3-1h2v-2c2 0 3-3 2-5l-4 2c-4 2-4 2-5 1v-1l2 1v-1l1-3v-2l-1-1h3l1-1 1-1h-4c-2 2-3 2-4 1l-3-1h-2l1-1v-2c0-1 1-1 2 1v-2c-1-2-1-2 1 0 1 1 1 1 2-1l2-2 2-2c0-2 0-2-2-1-3 0-5 0-3-2v-2h1c2 1 3 1 3-2v-1-1l1-2-2 1-6 5-2 1-1 1h-5l-1-1h-1v-1h4l1-1 3-1 2-1 1-1v-2c0-1-5 0-8 2h-4v-1l2-2c2 0 2-2 1-2v-1c1-2 4-2 4 0l2 1h5l-1-1-9-5c0-1 0-1 0 0h7c3 0 4 0 1-1-2 0-4-2-4-4 1-2 1-2-1-1l-1 1-2 1h-3v-5c1 1 1 0 1-1l1-2 1-1h-2l-3 2-2 1c-3 0-3 0-2-1l2-2 2-2 2-1v-2l2-3v-2l-2 2-1 1-3-1-1-1v-1c2-2 2-5 0-5l-1-1c-1-1-1-2-2-1l-1-1 1-1 2-2h-3l-1-1-3-2-2-1 4 4c0-1 0 0 0 0v2l1 1c0 2 0 2-3 0l-5-3h-1c-1 1 0 1 1 1l2 2c0 1 0 2 1 1l2 4 1 3c2 2 1 2-1 1l-3-1-4-2-2-1 1 3 2 1 1 1 1 3-3-2h-3 1v1c-1 1 0 2 3 2 2 0 2 0 1 3 0 2 0 2 2 2h3c1 2 1 2-2 2l-7-2h-2l5 4c1 0 5 4 4 5s-7-1-10-4l-4-2 1 1v1c0 1 0 2 2 3l1 2-1 1c2 0 5 1 5 3l1 2 2 1h2c-1 2-4 0-10-5l-3-2h-1v1l1 2c2 2 2 5 0 5v1l2 1 1 1 4 2c2 0 2 1-1 2h-5l-2-1-3-2-2-2h-2v3c-1 0-1 1 1 1v2l1 2 1 1c-1 1 0 3 2 3l1 1h-7l5 2h5v1c-2 0-3 2-2 3l2 1 1 1-1 1-1 1v1c1 2-10-1-12-3l-5-3 1 2c1 2 2 2 3 2l-1 1v1c2 0 3 2 2 3l1 1 2 2 3 3 2 2-1 2-13-7c-2-2-4-2-4-1l1 1h1c-1 1 0 4 1 4v2l1 1 1 1 2 1 2 1 2 2 2 2v1l-1 1c1 1-3 0-5-2l-2-1-3-2c-3-2-4-2-3 1h1l1 1-1 1-1 1 1 1c-1 1 0 1 1 1 2-1 3 0 1 1-1 1 2 3 3 3h2l-2 2v1l1 1h1c0 3-2 2-6-2s-8-7-9-6l1 2c2 1 2 4 0 6v3c0 1 1 2 2 1l1 1h1v2h1c2-1 2 0 2 2l3 1h1c-2 1-1 3 1 2v1h-3l-6-5-3-3v4l1 3c2 1 3 5 3 5l-1 2h5c1-1 2-1 2 1l-3 1c-3 1-6 1-8-1-1-2-1-2-1 0l2 3 1 2 2 1 2 2c-1 1 2 2 3 1h2l3 2c3 0 3 0 2 1l-4-1h-4l-2 1-3-1-4-1 1 3 3 2c1-1 3 1 3 3l1 1 2 2 2 1c2-1 2 1 1 2s0 1 4 1l5 1c0 1 0 2 1 1h2l3 1c3 0 2 1-1 2l-3 1h8l-2 1c-2 0-2 0 0 0 1 1 2 1 3-1 2-2 4-2 3-1v1c2 0 1 1-1 2-3 0-3 0-2 1h5l2-2c1-3 2-3 2-1s0 3 1 2c5-1 5 0 5 3l-2 16c-1 2 0 2 2 2h3v-5zm13-17l-1-1 1-1c-1-1 0-1 1-1h5l1 1 1 1c1 0 1 0 0 0l-8 1zm19-13l1 1 1 2-2-3zm-11-3h1v-2h10l1 1v2l-12-1zm-8 0h2l-1 1-1-1zm-11-2h1v1l-1-1zm-32-1a1 1 0 1 1 2 0 1 1 0 0 1-2 0zm62-1l2-1h1l-3 1zm-63-2h1l-1 1v-1zm60-2l2-1v1h-2zm-4-2h1v1l-1-1zm14 0h-6l-2-2 2 1h6l3 1h-3zm-80-3c-1-1 1-1 5-1l1 1c0 2-5 1-6 0zm75-4h1v1l-1-1zm-3-10h1l-1 1v-1zm-1-4c-2 0-1-2 1-1l3-1 4-1c2 1 1 1-3 3h-5zm-77-4c0-1 2-4 3-3l2 2c2 1 1 2-2 2l-3-1zm72-3h2l-1 1-1-1zm-4-9v-1c-1 0-1 0 0 0h3l-1-1-1-2h1c1 1 3 2 4 1h1l1-1h1c2 0 2-1 2-2l1-1c6 0 2 5-5 7h-7zm-44-9l1-1 1 1-1 1-1-1zm48-1v-1l2 1h-2zm-9-10c-1-1 1-3 3-2 1 1 0 3-1 3l-2-1zm-4-2h1l-1 1v-1zm-31-4l1-1v1h-1zm30-3v-1l2 1v1l-2-1zm5-1h2l-1 1-1-1zm3-2l2-1v2l-2-1zm-35-5c-3-2-3-2 0-2l2 1 1 1v1l-3-1zm9-9h1l1 1-2-1zm11-11l2-1 1 1h-3zm30 120h-2l1 1 1-1zm-14-124v-3c-1 0-3 3-2 4l2-1zm-11-23l-1-1-2-1-1 1 2 1h2zm-8-6v-2c1-1 1-1-1-1h-3l3 4 1-1zm1-5v-2h-1l-1-1v1c1 1 0 3-2 4-1 0-1 0 0 0l4-2zm0-6v-2c-1 0-3 2-2 3l2-1zm-1-6v-3l-1 2c0 2 0 3 1 1z"/><path fill="#1D221D" d="M369 103v2c0 1 0 2-1 1l-3 2c-2 1-2 2-1 3 1 2 0 2-2 4l-3 3 3 2 3 2h-3c-2-1-3 0-3 2l1 2c1 1 1 3-1 3l-4 2-2 4c1 3 2 3 3 2s1-1 1 1l-1 1-3 1c-1 1-3 0-2-2l-1-1-1 2-1 4v3l3 1-1 2-3 5c-1 2-1 2 1 4s2 2 0 3c-3 1-4 3-3 5l-1 1c-2 0-3 1-3 2h3c3 0 3 0 2 1-1 3 1 4 3 3 1-1 1-1 0 0l-4 1c-2 0-2-1-1-2s1-1-1-1-4 3-2 4l1 2c0 2 2 5 4 5l1-1h1c1 0 1 1-1 1l-1 2-1 1h-1c0-2-6-1-7 0 0 1 0 1 0 0l2-2c2 0 2-2 0-3-1 0-7 5-5 6l-1 2c-1 1-1 1 1 3v1l1 1v3l-2 3h5c2 0 2 0 0 1l-2 1-3 2c-2 1-2 2-1 2l1 3c-1 5 0 6 1 5l2 1c0 2-3 5-4 5l-1 1 4 1c3-1 4 0 5 1l1 1h-3-3c-1 1-1 1 2 1l4 2-5 8-1 2 2-1c2-2 3-1 1 2s-2 4 1 2v1c0 3-2 7-2 5l-2-3c-2-1-2-1-4 1s-4 0-2-2 2-2 1-3l-2-1v9l1 1-1 1c-2-1-2 5-1 6 2 0 2 1 0 2-2 2-3 8-1 8v2c0 2 0 2 2 2s2 0 1 1l-1 2h-1v1l3 1c3 0 3 1 1 4l2 2c2 1 2 1-3 1l-4 2 2 3 2 2h-4l1 2 2 1 2 2 3 1c1 2 0 2-2 2l-3 1 3 1c3-1 4 1 2 3-1 1-1 1 1 3 1 1 2 2 1 3l1 1 1 1-1 2-1 1c0 3 2 2 4 0 1-1 1-1 1 1s1 3 3 1h1l-1 1-1 1 1 2 2 2h-1l-6-3c-2 2 1 7 4 7v1l-1 2v2c-2 0-3 0-3-2 0-1-2-2-3 0l1 2v1c-3 0-4 2-1 4 2 2 2 2 1 3l-1 2-1 2c-2 1-1 1 1 2h4l1-1-1 2-2 4h6c1-1 1-1 0 0v3h-2c-2 0-5 2-3 3l1 5v5l1 3 1 1h1c-2 2-1 3 1 3 3-1 3 0 1 3-2 1-2 2-1 2l3-1h3v3l-2 1 1 1c3 0 9 11 8 14l-1 4h17l-1-5c-1-4-1-4 2-10 2-4 4-8 6-9 2-2 2-2 1-3-2-1-1-1 0-2l2-4c0-2 0-2 2-2 3 0 4-2 1-3-2 0-2 0 0-2v-2c-1-1-1-1 1-1l2-2 1-3v-2c-1-1-1-1 2-3l4-2v-2c-1-1-3-2-3 0h-4l-2-2c4 1 5-1 4-5-2-3-2-3 0-3 3 0 3-2 0-5-2-1-2-2-1-2l3-3c1-3 1-4-1-5s-2-1 2-5c3-3 3-3 1-4v-2l1-2-8 4c-1 1-3 2-4 1-2 0-2-1 2-3 8-5 12-10 8-9-2 1-2 1 0 0l1-4 1-2c2 0 8-6 8-7l-1-1v-2c2-1 2-1 0-3l-2-4h-3c-2 0-2 2 0 2s2 0 1 1h-2l-3-1c-1 1-1 1-1-1l1-4 1-2c1 1 4-1 3-3l1-1 1-1 1-4c2-3 1-5-1-3l-2 2v-1-3h1l1-1 3-4c2-4 2-4 0-4-2 1-2 0-2-2l1-5c2-2 2-2 1-3h-3l-2 2c-2 1-2 0-1-2 0-2 0-3 1-2 2 0 4-3 2-4l-1-3-2 1-5 1-3-1h3l2-1 3-2 3-2c0-1-4-3-4-1l-1 1v-1c1-2 1-5-1-6l1-1 2-2c1-3 0-3-2-2-3 1-3 1-1-1l2-3v-5c1-3-1-5-2-2 0 1-1 2-2 1-2 0-6 4-5 6v1c-2 2-2-4 0-6 1-1 2-2 1-3l2-5 2-5 2-4c1-1 1-1-1-1l-4-1c0-1 1-2 2-1 2 0 3 0 2-4l-1-5 1-3v-1l1-2 1-2-3 2c-4 5-5-1-3-8 1-2 0-3-2 0h-3l2-3 2-2c-2-2-2-5 0-7v-1l-4 3c-3 3-3 3-3 1l1-2 1-3c0-2 0-3-3-3l-5-1-1-2 2 1h3c2 0 2-1 2-4l1-4c2 0 2-1 0-3h-4c-3 1-3 0 0-2s2-3-4-3c-5 1-6 0-5-1h4c-1-2-1-2 1-2l3-2c1-1 0-2-5-1-2 0-2 0 0-1 2-2 2-3 0-10l-2-2h-1zm-1 6l2 1-2 2-2-1 2-2zm-1 6l2 1c0 2-2 2-3 0l1-1zm-10 18h1l-1 1h-1l1-1zm-4 9l3 1c1 2 0 2-2 1h-3l-1-1 3-1zm-5 5c-2 0-4 2-4 3h3c2-1 3-1 2-2l-1-1zm37 3l-2 2-3 2 3-2 2-2zm-7 5c1 0 2 1 1 2h-3l1-1 1-1zm6 13h1l3 1v1c-1 1-2 1-3-1l-1-1zm-27 2v1l-2 1 1-1 1-1zm-5 2l1 1v1l-1-1v-1zm34 3l1 1h-2l1-1zm-34 0l1 1-1 1v-2zm-14 1l-2 1c-2 2-2 2 0 2s3-2 2-3zm17 3l1 1h-2l1-1zm29 6l1 1c0 2-1 2-2 1l1-2zm-43 1l1 1-1 1v-2zm-4 2v1l1 1-1 1-1-2 1-1zm48 9l1 1-1 1v-2zm6 5l2 1c1 1 1 1-1 1l-2-1 1-1zm-56 3h2c0 1-2 2-3 1l1-1zm4 2l-1 2-2 1 3-3zm49 2h1l-1 1h-1l1-1zm-46 0v2c0 1 0 1 0 0v-2zm39 4h1c1 1 1 1-1 1l-1-1h1zm-1 12h1l-1 1h-1l1-1zm-43 1l-2 1-1 2h4v-2l-1-1zm6 1l2 1h-2v-1zm46 7l1 1 1 1c-1 1-1 0-2-1v-1zm3 5h1l-1 2h-1l1-2zm11 1l-1 1c0 2 0 2 2 0 1-1 1-1-1-1zm-62 6l1 2-1 2c-1 1-1 0-1-2l1-2zm59 2v1l-1 2v-2l1-1zm-71 11l1 1-2 1-1-1 2-1zm75 13l-1 3h2v-2l-1-1zm-76 5l-2 2 1 1 2-2-1-1zm9 4l2 2c2 1 2 1 0 0l-2 1-1 1v-2l1-2zm-5 1h1l-1 1h-1l1-1zm58 2h1l-1 1h-1l1-1zm-55 3l1 1-1 1c-3 1-4 1-2-1l2-1zm54 4l2 2h-1l-3 2h-1l1-3 2-1zm-51 0l1 2h-3l2-2zm12 1v2c0 1 0 1 0 0v-2zm-10 3l2 1-1 1h-3l2-2zm-3 6h1l2 1-4-1h1zm3 3h2l-2 1h-1l1-1zm49 0l-2 1 1 1 1-1v-1zm0 5c1 0 1 1-1 3s-2 1-1-1l2-2zm-7 8h1l2 1h-4l1-1zm-42 14h2l3 1h-5v-1zm-6 3l-2 1 2 1 2-1-2-1zm6 1h1l-1 1h-1l1-1zm45 14l1 1-1 2h-1l1-3zm-3 4h1l-1 1h-1l1-1zm-36 1h1c1 1 0 1-1 1-2 0-2 0-1-1h1zm-8 1c-1 0-2 1-2 3l1 1c1 0 2-3 1-4zm7 5h1l-1 2h-1l1-2zm30 13h1l-2 5c-3 5-3 5-1-1l2-4zm-17 1l1 1-1 1-1-1 1-1zm-4 1l1 1c1 3 0 3-1 1v-2zm2 5l1 1 2 3c0 1-2 1-3-1v-3z"/><path fill="#252D26" d="M17 354l-2 1-2 1H9c-2 1-3 0-2-1v-1l-2 1-2 1v1H2l-1 1 1-3v-1l1-1 1-1 1-1 4-3 2-1 5-2 6-4 1-2h-2-1v-2l1-2h-1l-3 1-3 1-1 1-2 1H9c0-1 0-1 0 0H8c0-1 0-1 0 0l-2-1 1-2 2-1v-1l1-1 2-2 1-1 1-1h1l1-1 2-1 1-1 2-2 2-1 1-1h1l2-2h3l2-2 3-1 2 1 1-1v-1-1l3-3c1 0 0 0 0 0l-2-1h-2-7l-2-1c0-2 1-2 5-2l4-1h2l1-1h2l-1-2v-1l-1 1v1l-2 1h-1l-1-2-1-1 1-1 1-1-2-1-1-1h-2-1-1c-1 1-1 0-1-1v-1-2-1h-1l-6 3c-1 1-2 0-1-2l2-1 1-1 2-1v-1-2l-1-1 1-1 1-1 1-1h1v-1h2l1-3v-2c1 1 2 0 2-1v-1a109 109 0 0 0-8 3l1-2 1-1v-1l-2-1h-3-1v-1-1h4l1-1h1a89 89 0 0 0 4-1v-1c1-2 1-2 3-2h2c2 1 2 2 1 3h1l1-1h1l2 2 2 1 2-1 2-1 1-1 2-2 2-1h1l1 1h3l1-3v-1l-1 1h-3l-2-1-1-1 2-2h-1l-2-1c0-1-1-2-3-2l-2-1h3l-1-1h1l2-1h4v-1h-6-1l-2 1h-3l1-2 1-2 2-2 2-1v-1-1l-1 1h-2c-2 1-3 0-2-1v-1l1-1-1-1h-8l1-1 1-2 1-1 4-2v1a17 17 0 0 1 1-1h6l2-1a12093 12093 0 0 1 9 2l2 1h1l2 1h1c2 0 3 1 2 2h-1c1 1 2 1 2-1l1-1h1l-3-1c-3 0-4 0-4-2l2-2 6 2c1 0 1 0 0 0l1-1 1-1h1l1-1h4v-3l-2-2-2 1h-2v-2l1-1c3-2 2-3-3-2h-1l-5-2h-4v-1-1l1-1-2-2-2-1 1-1h4l4 1h6v-3-1s-1 0 0 0l-1-1 1-1 3-2 1 1h11l1 1 2 2h1v-1l-1-1 1-1-1-1-1-1v-1a37 37 0 0 0-1-1h-1l-3-1-4-3-1-1h-1l-1-1v-1l-3-1-1-1-1-1 1-1h2a759 759 0 0 0 2-2l-2-1-1-1-1-1-4-3-1-2 1-2 2 2 1 1v1h1l1 1h1l1 1v1h2v1h1l1 2 1 1h1l1 1h1v1h1l1 1h1l2 1 1 1c1 1 2 0 2-2v-2a106 106 0 0 0 0-15v-1-7l1-7-1-2v-2-3-1c1-2 1-2 3-2v4h1l-1 1-1 3v20l1 1-1 17h2l1-1 4-1h2l3-1a19 19 0 0 0 5-2l2-1 3-1v-1l1-1 2-1h1l1-1 3-2 1 2-3 1-1 1-1 1h-1v1l-1 1-2 1-2 1-1 1-1 1h-1a145 145 0 0 1-7 2l-1 1h-2l-6 2v6h2l1-1h2l1-2 1-1h1l1 1v-1h2l1 1h1l1 1 2 1h2c1-1 2 1 1 2l-1-1-1 1h-1v2l1-1 6-2h5l-1 1 1 1h1l1 1-2 1-5 1-1 1h-2v3h-2l-6 1-1 1-1 1c-1 0-1 0 0 0h3l2-1h3l4-2h2l1-1h1l3-1h4l2 2h-2l-3 1a45 45 0 0 1-3 2l2 1c2 0 3 1 3 2v1h-1a133 133 0 0 1-9-1h-2 1c1 2 1 2-1 2-1 1-2 1-1 2l1-1h3l1 2-1 1h-1l-1 1 1 1h1l9-1h4v-1h1l2 1v1l-1 1v1l2-1h1l3-1 3 1h1l-1 2-1 1 1 2 2 1h4c1 0 2 1 1 2h-1a3 3 0 0 0-2 1v1h1v1h-1v1l1 1h3l1 1h2l1 1v1h-2-4v1l-2 2-3-2-2-1v1h-4-1-1c-2 0-2 1 0 2l2 1 2 1 2 1h2a150 150 0 0 1 11 1h6l1 1v1l-1 1-1-1h-13v2l3 1 1 1v2a139 139 0 0 0-11-3h-2l2 1 1 2h-4l-1-1h-1-1v1c-1 1-1 1 1 2a7 7 0 0 1 2 1v1l2 1 5 1 1-1a63 63 0 0 0 5 0c2-1 4 0 4 1l-3 1-3 1-3 1h-2l-2 1h-1v3h1l1-1 3-1h1l1 1h3l1 1 2-1 2 1c2 0 2 1 3 2h1a23 23 0 0 1 3 2l2 1h1v1l1 1h1l1 1 2 1c2 1 2 2 1 3h-1a21 21 0 0 0-9-5h-2l-1-1h-1l1 1h1l1 1 1 1h1v2l1 1v1l1 1h1l1 2v1l-2-1-2-1h-1v3l2 1 1 3 1 2 1 1 1 1-1 2-2-1-1-1h-1l-1-1-1-1-5 1h-4c0-1 0-2-1-1l-1-1-1 1h-1v1l2 1h4l1 1 1-1h1l3 1c0-1 0-1 0 0h1l2 1v2h-3l-1 1h-3-1l-1-1v-1c0-1 0-1 0 0-1 1 0 3 2 3l4 3v1l2 2 2 1 3 1 2 1 1 1h1l1 1h1l2 2-1 1-1 1 2 1c2 0 2 0 3 3l2 1h1l1 2-1 1h-3l1 1v3h1l3-1 2 2 2 1 4 4h1v1l1 1h1l1 1c0-1 0 0 0 0h1l2 1v2l-5-1h-1v1l1 1 1 1v1l-2 1c0-1 0 0 0 0l-2 1-2-1-1 1-1 1h-1-2l-1 1 1 2 4 3 1 1 2 1v1l1 1h-2-1l-1 1-1-1h-1-2l-1-2-1 1-1 1 1 1 1 4-1 1h1l1 1 1 1h2l2 1 2 1h1v1l1 1v2l-1 1-2 1-1 1 1 1 2 1 2 1-1 2h-1-4-1l-1-1h-2v5h-1l-1-1h-1l-1-1h-1l-1-2-1 1v1h-1-2l-1-1h-2v-1l-1-1-1-1v-1l-2-2c0-1-1-2-2-1v5l1 1h1l1 1 1 1v1l1 1c0 1 0 2-1 1h-1-1-1-1l-1 2h-1v1l-2-1-1-1v-1-1l-2-1-1 1v-3l1-1 1-1h-3l-2-1h-3l-1-1-2-1v3l-1 1h-1c0 1 0 1 0 0l-1 1-2-1v-1-1h-1v-1l-1-1-1 1h-1-1l-1 1-1-1h-1l-1-1-1-1h-2-2v4l-1 1v2l1-1v2h-3-1l-1 1-1-1v-1-2h-1v-1l-1-1h-1-1-2l-1 1h-1l-1-1-1 1v1l-1 1-1 1h-3l-1 1-2 1-1 1v1c0 4 0 4-3 5h-3c-4-1-4-1-4-4l-1-3-1-1h-2-1c-2 1-2 0-1-1l2-2 2-1v-2l-3 1v2l-1 1h-3l-1 1c-1 2-2 2-2 1l-1-1v-1h-1-2-1l-2 1h-2v-1h-1v-1l1-1v-1-2-2-3-1l-1 1-2 1-1 1c0 1 0 1 0 0l-1 1 1 1v3c1 0 1 0 0 0l-1 1h-2-1v-1l-1 1h-1v1h-2l-1 1-1 1-1-1v-1l-1-1-1-1-2-1-1-1h-1v-1l-1 1 1 2 1 2-1 1h-4l-1 1v1h-2-5l-1-1-1-2v-1 2h-1v2h-2l-1 1h-1l-1 1h-1l-1-1v1h-1v-1 1l-2 2v-2l1-1v-1l1-1 1-1 1-1 1-1h-1l-1-1h-3l-2-1v1h-1l-1 1h-1c-1-1 0-2 1-2l2-2 1-1h-1v-1h1l1-1 1-1 1-2 2-2 2-2h-1l-1-1-1-1h-1-1l-1 1-1-1v-1-1h-2l-2 1v1h-2v-2l2-2 1-1 2-1 3-2 1-1h-3l-1-1v-1l-1-1h-4-2l-2-2v-1-1zm165 15v2l1-1-1-1zm-16-48l-1 1 1 2h2l1-1h0l-1-1h-1-1v-1zm-30-64h-1v1s0 1 0 0h1v-1zm-86 44v1h-1l-2 1-1 1-1 1v1 1l2-1h3l1-1h2l3-1 2-1h1l-1-1v-2l-1-1v1h-1l-2 1h-1v1c-1 1-2 1-3-1zm28-42a14 14 0 0 0-1-1h-1-3l-2 1 1 1 3-1h3zm12-42l2-1 1 1-2-1-2-2-1-1h-3-1l-2-1h-1v1l-1 1v3l-1 1 1 1h1v-1l3-3 1 1h2l2 1h1zM62 385zm51-1c1-1 0-2-1-2l-1 1 1 1h1zm-78-13v0zm146-6h-1 1zm-14-82v0zm-41-8c2 0 2 0 1-1l-3-1h-4l2 1 2 1h2zm6-1v-1-1a458 458 0 0 1-2 1c-1 1 0 2 2 1zm-14-11l1-1h-2-1-2l1 1 1 1 2-1zm15-3v-1-1h-1l-1-1h-1l-1 1h-2l-2-1v2h2l3 1h3zm-52 0l-1-1v1h1zm-3-17v-1l-1-1-1 1 2 1zm-1-5v-1l-1 1h1zm2-1l-1 1h1v-1zm16-14v-1h-3-1v1h4zm6-10h-1 1zm11 2c-7 4 3-8 0 0zm-16-9c-3 3 1-4 0 0z"/><g><path fill="#1C231D" d="M1377 28v11l1 6 3-3c4-5 5-5 5-2l-4 6c-3 4-4 5-4 10 0 3 0 5 1 4l1-2 1-1 1-4c0-4 2-7 4-5v3l4-1 3-2c2 0 2 3-1 7-4 4-4 5-2 5 1 1 2 1 2 3-1 2-4 2-5 0-2-1-2-1-2 3 0 3 0 3 3 1 4-2 4-2 4 0l-3 5c-2 1-2 2-1 2h3c1 3 1 2 8-2l6-3c2 1 1 4-2 6l-3 1 3 1 3 1c0 2-2 3-3 2l-1 1-2 1c-1 0-1 0 0 0 1 1 1 1-1 3l-2 1 4 1c4 1 5 2 2 4h-3c-2-1-5 0-5 1l-2 1-2-1-2-1h-2l2 2c2 2 2 2 1 3s-3 0-5-1v1c1 2 0 3-1 3l-2-1h-1c0 1-1 1-2-1l-1-2-1 2-1 4 8 1c6 0 7 0 12-3 4-3 7-3 7-1l-3 2-3 2 4-1c3 0 9-3 11-6l3-1c2 0 3 2 1 3 0 1 1 2 4 2h6c3 2-5 6-10 5h-4l2 1 3 3c-1 3-5 2-7-1l-4-2 1 1c3 2 4 3 2 4l-1 2-1 2-1-1-6-2-3-2-2-1c0 1 2 3 5 4l2 2c0 2-3 2-5 1-2-2-2-2-1 0 0 3-1 3-3 0-2-2-2-3-3-2h-1l-3-1c-4 1-9-3-9-6 0-2 0-2-1 1 0 1 0 2 3 5l9 6 6 3 5-2 5-3c2 0 2 2 0 4s-2 2 0 1l2-1 4-1c3-2 4-1 4 1-1 1 0 1 2 1h3c2-2 5 0 5 2 0 1-1 2-2 1-2 0-2 0-1 2 2 2 2 2-2 2-1-1-2 0-1 1 0 1 0 2-2 1l-2 1c0 2 0 3-3 1-2-1-5 3-3 5h2l4-2 3 1h1c2 0 2 1 0 3-1 0-2 1-1 3 0 3 1 3 4 0l4-2c2 0 2 0 1 3-1 2-1 2 6 0l4 1-7 3c-1 0-2 1-1 2v2h-2l-3 1-2 2c-2 0-3 0-3 2l-2-1c-1-2-2-2-2 0l-1 1-2 1c0 2-1 3-2 3l-2 2-1 2-3 1c-1 2-1 2-3 0l-3-2 2 2 8 4c9 2 11 2 14-1 3-2 5-1 4 1 0 2 0 2 2 2l4-1 3 1c2 1 1 1-1 3-3 1-3 2-3 3l-1 2c-3 0-4 0-3 1 1 3-3 4-5 2h-1c1 2 0 4-3 3s-4 1-1 2c5 2 9 2 11 0s5-2 4 0l4 1c5-1 5 1 1 2-3 1-3 2-3 3 0 2-3 3-5 2-1-1-1 0-1 1 0 2-1 3-3 2l-1 1c1 2 0 2-1 2h-2c0 2-2 1-5-2s-5-4-7-3c-2 2-2 3 1 2 4 0 4 1 2 5-2 2-2 2 0 2l4 1 2 2h2l5 1 5 1 4 1c2-1 3 0 3 2 0 1 1 2 3 2h6l2 1-8 4c-2 0-2 0-1 2 2 2 2 2 0 2s-3 0-2 1c0 1 0 2-2 1l-4-1c-3 0-3 1-3 2 1 3-1 2-3 0-1-3-1-3-1-1l-1 3c-6 0-7 0-8-3l-1-3-1 3-1 2-2-2c-1-3-1-3-1-1-1 3-2 3-3 0l-1-2-1 1h-2l-3 1c1 1 7 4 10 4l3 2 4 1h5c0 2-3 4-6 4l-3 1c0 1 5 2 19 3 15 0 21 1 21 2h3l2 1c0 1-3 3-6 3l-2 1 1 1 4 2 2 2-3-1-4 1-1 1h-2c0 2-3 1-4 0l-2-2v2l2 2h-4c-1-1-3-1-3 1-1 3-2 3-6 0l-2-2v3c1 4-1 4-5 1-2-2-2-2-1 0s0 3-2 2l-2 1h-2l-1-1-2 1c0 1-1 2-2 1-10-1 3 5 14 7 8 1 8 1 11-1l4-1c2 0 1 2-1 3h2l7-1 7-1 5-1c1 1-5 5-9 5l-4 1h4c2 0 3 1 3 2l-1 1-3 1h-2v1c2 2 1 3-1 2s-2-1-2 1l-3 1-5-1c-2-1-2-1 0 0 1 2 1 2-2 2l-2 1c0 2 0 2-3 0l-2-3 2 3 1 4c0 1-4 0-7-2-1-2-1-2-1 1 1 3 3 4 11 6s8 2 12 1c4-2 10-2 10-1l-1 2h4l6-1c2 0 2 1 0 3l-2 2 3-1h10c0 1-6 4-10 4h-3l3 2c3 2 3 5 0 4l-1 2c0 2-1 2-2 2l-3 2h-4l-2-2-1 1c-2 2-3 4-1 4v1c-1 1 0 1 2 1h3l4 1c5 0 6 1 3 3h-10l3 2c3 1 4 2 3 3l-2 1-3-1c-1 0-1 0 0 0 2 1 1 3-1 2h-2c3 2 1 3-2 1l-3-1 1 2v1h-5l-2 1c-1-1-1-1 0 0s4 2 15 2h13l-1 1-3 1v2l5 1c3 0 6 1 5 3-1 1-6 2-10 0-5-2-5-1-3 1 4 4 4 6 0 5l-4-2-1 1v3l-1 2c-1 1-7-3-7-4v6c0 2-4-2-9-6-3-4-3-3 0 1l1 3c-1 1-1 1-4-1l-2-2v2c1 3 1 3 8 4h9l8-1-2 1h3c4 0 5 0 4 1-2 2-1 3 1 2 3 0 8 1 7 2l-3 1c-4 0-3 1 2 3 8 4 6 6-3 3h-2l2 3-3 1c-2-1-2-1-1 1 2 3 0 3-5 0-2-2-2-2-1 0 0 2 0 3-1 1-2-1-2-1-1 1l-2-1c-2-2-4-2-3 1 1 2-2 1-5-1l-3-1-3 1h-1l7 2c6 1 8 2 7 4-1 1-2 1-8-1-1 0-1 1 1 3l3 3c0 1-5 0-8-2-3-1-4-1-2 2s2 4 0 3l-2 1c0 2-1 2-3 0s-2-2-2 0c1 3-4 2-7-1l-2-3v3c1 4-1 5-5 1l-3-3v2c-1 4-2 5-4 3s-2-2-3-1c-1 2-1 2-2 0l-2-2c-1 1-1 0-2-2 0-2-1-2-1-1l-3 1c-1 1-2 0-4-4s-4-6-3-2c1 2 0 2-3 0l-2-3-1-1c-1 3-2 1-2-3 0-2 0-3-1-1l-3 1c-2 0-2 1-2 8l3 12 3 4h-24v-5c2-4 3-12 1-13l-2 3c-2 3-4 4-3 1s-1-1-2 2-2 3-4 3l-3 1h-2c0-1-1-1-2 1-3 2-4 2-3-1l-1-1c-1 2-4 3-4 2h-8c-1 1-1 0-1-1l-1-2v-1c3-3 2-3-2-1s-5 2-3-1v-1l-2 1h-2l-1 3c-1 2-2 2-3 1s-2-1-3 1l-2 2-1-3c0-2 0-2-2 0-1 2-2 2-4 0v-3l1-1v-2c1-2 1-2-2 0-6 6-6 6-8 4l-1-2h-1c-5 4-10 5-7 1 2-2 2-2-1-3h-2l3-3c3-3 1-3-4 0l-5 3c-2 0-2-2 1-3 2-1 1-1-2-1l-6-1c-2-2-2-2 1-2 4 0 19-2 22-4 3-1 4-4 1-2-4 1-5 0-3-2h-3c-4 0-5-1-2-3 2-1 2-1-2-1-6 0-7-1-3-3h3l-3-1c-3 0-4-1-1-3h-4c-5 0-6 0-4-1l4-2 2-1-2-1h-6l6-2 7-1-6-2c-6-2-10-4-9-5l13 2c2 1 2 1-1-2-5-4-2-4 5-1 7 4 11 5 19 2 9-3 24-11 25-13s0-2-2 1l-2 1h-3c0-2 0-1-3 1l-3 3 1-3c0-3 0-3-2-2l-4 2c-4 3-4 3-4-1v-2c-2 2-6 2-6 0s-1-2-2 0l-4 3h-2l1-3c2-1 2-2 2-3l-2-1-5-1-4-1h-4c-8 2-10-1-2-3 6-2 6-3 1-2-6 2-15 0-11-2l5-1c4 0 4 0 2-1-2 0-3-1-3-2h9c10 0 10 0 9-1-2-3-1-4 4-2l8 1c6-1 24-7 26-9s2-3 0-2l-2-1c0-1-2-1-6 1l-8 2h-6c-2 0-2 0-1-2 2-2 1-2-1 0-3 3-4 3-4 1l-2 1h-3l-4-2c-3-1-3-1-1-2 2-2 2-2-2-1h-2l-6-3c-4 0-7-1-7-2h-3c-1-1-1-2 1-2l2-2c0-2 0-2 2-2 1-1 0-1-4-3-7-2-8-4-3-3l19 1-1-1-1-1 4-1c7 0 17-2 17-3 1-1 0-2-2-2l-2-1h-1l-2-1-2 1-4 1h-3l2-2 3-1-5-1h-5l4-2 3-1h-3c-2 0-4-1-5-3l-3-2-3-2c-1-3 1-3 6-2 6 2 8 2 7 0s-1-2 5 0c5 1 5 1 13-1 10-3 12-5 5-5l-3-1-2 1-6 1c-4-1-5-1-2-3 2-2 1-2-3 0-2 1-2 0-1-1l-2-1c-1 0-2-1-1-2l-1-2 1-1c1-2 1-2-1-4-4-3-3-4 2-2 13 4 17 4 20 1 2-2 2-3 1-3h-4c-4 2-5 0-2-2s3-3 1-2l-5-1 2-2h-1l-2-3h1c3 2 23 1 27 0 3-2 4-2 2-2s-3-1-2-2c0-2 0-2-1-1-2 2-5 3-5 2h-2l-2-1-2-1c-4 0-3-1 0-4l3-2h-5c-5 1-7 1-6-1 1-1-1-4-4-4-4 0-4-1-1-2h-1l-3-1-1-1v-2l4-1h1c-2-1-1-2 1-2 2 1 2 1 2-1h1l3 1h5l3 1-3-2c-3-3-4-4-1-3 3 2 5 1 3 0-2-2-1-4 1-2l5 3c6 3 22-1 22-5l1-2v-1l-2 1-3 1-6 1-2-1v-2l-3 1c-2 2-3 2-4 1l1-2h-9-3c-2-1-2-1 0-2 1-2 1-2-1-3-3 0-4-2-1-2 1 0 1-1-1-2l-6-3-3-3h4l3-2h3c2 1 2 0 1-1-1-2 1-3 4-1l7 2c4 0 4 0 3-1-2-1-2-2-1-5l3 1c2 2 4 2 6 2 6 0 16-4 23-8 2-2 2-3-1-1-2 1-2 1-2-1h-1c0 1-1 2-2 1l-3 1c-2 2-2 2-2-1l-1-1-6 3-1-2c0-2 0-2-1 0l-1 2-2 1-4-1c0-1-1-2-2-1v-2c1-3 1-3-2-2s-4 1-2-1c1-2 1-2-1-2v-2l1-2-3 1c-1 2-2 2-6 1l1-1c1-1 0-3-2-3l-4-1-2-2h8c2 0 2 0 1-2-2-2-1-2 3 0 4 3 6 3 5 1v-1c2 1 2 0 0-2s1-2 4 1c5 4 6 5 13 3s12-5 13-8c1-1 1-2-1-2l-3 2-3 2c-1 0-2-1-1-2 0-2 0-2-2 0l-4 3c-2 0-2 0-2-3 1-3-1-4-4-2-1 2-7 4-7 2l3-3c3-2 3-3 2-3l-2 2-2 1h-1l-3 1c-3 0-3 0-1-1 2-2 2-2-1-3l-3-1 1-1c2-1 2-1-2-1l-5-1c-2-2 0-3 5-3l3-1c-1-2 3-2 6 0 5 2 6 2 5 0l1-1c1 0 2-1 1-2h3c2 1 2 0 2-1 0-2 1-3 2-1l5 3c3 2 4 2 7 1 4-1 4-2 3-2l-2-3 4-1 6-1c3-3 5-10 3-11l-1 4c0 1 0 3-2 4-1 3-2 3-3 2l-1-4c0-1-1-2-1 0-1 3-3 5-6 5-2 0-2 0-1-2v-2l-1-1-1-1-1 2-6 6-1-3-1-2-1-1-1 1-2 2-3-1-7-4 3-1 3-3 3-1c3 0 8-2 6-3l-1-2c0-1 4-2 6 0l5 1-2-1c-2-1-3-1-2-3v-1c-2 0-6-2-5-3l5-1c5-1 5-1 3-4h-6l-1-2h-1l-2-1-2-2c0-1 2-2 5-2 2 0 2-2 0-3l-1-1-2-2c-3-2-2-3 2-3h3l-2-3c-2-3-2-4-1-5l4 3c3 3 3 3 4 1l2-1 5 8c0 2 9 10 10 9l1-6 1-5v-3c0-3-1-4-3-4-2-1-2-1-2 1 1 2-1 3-3 1-1-2-2-2-3-2h-4l6-6h2c3-1 1-2-2-1-5 1-9 0-10-1l1-1 3-1 2-1 1-1-3-2c-3-2-4-4-2-4s8 3 9 5v-1-3c2-1 5 5 5 8l1 1 2 1c1 1 1 1 1-3l-5-10-4-6c0-3 4-1 5 1 2 5 4 3 3-2 0-4 0-5 2-7l2-2zm7 34l-3 2c-2 2-3 5-3 7v3l3-5 2-4 1-3zm1 14c-1 0-6 3-6 5-2 3-1 4 1 1l3-2c1 0 4-3 3-4h-1zm-25 7h-1c-2 1-1 1 2 4l6 3 2 1 1 1 1-2c0-2-1-2-4-2l-3-1-2-2-1-1-1-1zm11 14l-2 1-5 1h-2l1 1 2 1 4-2 2-2zm-10 3l-1 1h-2l-1-1 1 2c2 2 3 1 3-1v-1zm-15 3l-1 1h2l-1-1zm22 15l-1 5c0 4 0 5 1 3v-8zm8 13l-1 1 1 1v-2zm-8 2h-1v3c1 2 1 1 1-1v-2zm12 0l-1 1 1 1 1-1-1-1zm5 2l-1 1 1 1 1-1-1-1zm20 0l-2 1c-2 3-5 3-7 1s-4-2-3 0c1 1 0 1-1 1l-2-1h-2c0 1 1 2 3 2l8 2c4 0 5 0 6-2l1-3-1-1zm-88 51l-1 1h2l-1-1zm80 11l3 2 5 2-8-4zm-83 41h-2c-2 1-1 1 2 1h4l-4-1zm-21 5h-1l1 1 1-1h-1zm0 24l-2 1-1 1 2-1 1-1zm166 38v1l1 1v-2h-1zm-16 8l-2 2-2 3-2-3c-1-2-1-2-2-1-1 2-1 2-2 1 0-1-1-1-1 1-1 2-3 3-3 1l-2-1h-3l3 2 7 1h7l3-1h2l-1-3-2-2zm-22 2h-1l1 1h2l-2-1zm10 39l-1 1 1 1v-2z"/><path fill="#2C352D" d="M782 391l-1-14c0-6-1-6-3-6l-4 1-3 1h-3c-2 0-3 0-4 2 0 2-3 2-3 0h-4l-1-1c1-1 0-1-1-1h-1c1-1 1-2-1-2 0 1-2 0-3-2l-1-2v2l-1 3-1-1-3-1h-2l2-1 3-2 4-2c5-1 4-2-1-2l-8-1-4 1h-3l-1-1c-2 1-8 0-8-1l4-1c3 1 3 0 4-2v-3c-2 0-2 0-1 1s0 2-1 2h-2l-2-1-2-3-3-2c-6 0-6 0-3-2 2-1 2-2 0-3l-2-4c-1-4 1-5 5-1 3 4 7 5 10 4 2-1 3-3 1-3l-1-2-1-1h-1l-2-1h-2l-1-3c-2-3-1-4 3-5 3 0 4-1 3-2l-3 1h-4l2-1c3 0 3-2 0-4l-3-1 2-1 3-1-2-2-3-3 8 1 2 1 1 1c2 1 11 0 11-1l-2-1c-2 0-4-1-5-3l-4-2c-1 1-1 1-1-1v-1c-2 2-4 0-5-3l-2-2c-1 1-2 0-2-2-1-2 0-3 1-1 1 1 5 1 5-1l2-1 2-1-2-1-1-1-2-1v-2c1-1 0-3-2-1-1 1-1 0-1-1l1-2v-1l-2-2 6 3 5 3c2 0 0-3-2-6-2-2-3-3-2-4h-1c-3 1-3 0-3-1l2-1 1-1-1-2v-1l3-1 7-1 5-1-1-1h-2c-2 0-2 0 0-1v-1c-2 0-4-4-3-6 1-1 3 0 6 2 4 3 5 3 6 2v-3l-3 2v-2c1-1 1-2-1-3v-2l1-2h-4c1-1 0-1-1-1l-1-1c0-2 2-2 5 0h5l4-1h2v-1l-1-2c0-2 0-2-2 0-1 2-2 1 0-2 1-2 1-2-1 0s-2 2-3-1l-3-3-2-2c0-2 0-3 2-2 4 1 6 0 5-2l-1-3h-1c-3 1-4 1-4-2v-2l-1-1v-3l3 2 8 6c1 0 3 1 2 2v1h8l1-1c1 0 1 1 1-1 0-1 1 0 0 0l-5-1-2-1-4-2-3-1v-3c0-2 7-1 11 1l4 1v-1c0-2-1-3-2-3-2-1-3-2-1-2v-2c-2-2-6-2-6 0l-2 2-3-1-2 1h-2l2-2 11-6c1-1 1-1-1-1l-2 1h-5c-5 0-7-1-3-2 4 0 6-2 5-5 0-2 0-2 2-1 1 1 2 1 1 2h6l1-4v-2c-1 1-1 0-1-1l-2-2-1-2c-1-2-1-2 3 0l3 3h3c4 1 4 1 2-1l-1-2-3-2-3-3v-2l-3-4c-1-3-1-3 1-2l1 2 3 1 3-1 2-1-1-1c-2-3-2-7 0-7l2-1 2-2h1c1-1 0-1-1-2l-2-2 1-1c2 2 3 2 3 0l1-1 4-2c1-2 2-2 3-1 0 1-4 5-5 4l-1 1v2l-1 2c0 2 0 2 4 0l6-4h2l-1 1-3 3-1 1-3 5-2 4c-3 2-1 3 2 1l4-1 5-3 3-1c0 2-1 3-2 3l-2 2-1 1c-2 0-3 4-2 4l4-2 4-1-1 1h-1c2 2 0 4-3 4-2 0-2 0-2 3 1 3 0 4-2 4l-3-1c-1-1-1-1-2 1 0 2 0 2 4 1l8-2c3-2 4-2 3 0l-6 6c-2 0-6 5-5 6s9-2 13-5c2-3 3-3 4-2v1l-1 1c1 0 0 2-2 3-1 2-2 3-1 4v1c-2-1-5 1-5 3l-2 2-2 2h-2l-1 1c2 2 5 0 12-7l4-3c2-2 2-2 2 0v2l-1 2c-2 3-3 7 0 7l-1 1-2 1-2 1c-1 2-2 3-4 3-3 0-3 1 0 2l5 1h3l2-2 4-2 2-2c1-3 2-3 4 0 1 1 1 2-1 2v1c1 0 1 1-1 1l-1 2-1 3v2c1 1-1 4-3 4l-1 1h9l-7 2-3 1h-4c3 1 5 3 3 4l-3 2v3l1 1c1 1 2 1 1 2-1 2 13-2 15-4l6-4-1 3-3 2c-2-1-2 0 0 1s2 2 1 2c-2 0-4 2-3 4l-1 1-3 2c0 2-2 3-3 4l-3 3 1 2 17-9c2-2 6-3 6-1l-2 1c-2 0-2 0-1 1l-1 5-1 1v1l-1 1-1 1c-2 0-3 1-3 2l-2 1-3 2-2 3c-2 1-2 2-1 2s2 0 1 1 4 0 7-3l3-1 4-3c4-2 5-2 4 1l-2 1-1 1 2 2c1 0 1 0 0 0l-1 2c1 2 1 2-1 1s-3 0-1 1c1 1-3 5-5 4l-1 1 1 1 1 2-1 1-1 1c0 3 2 2 7-3 6-6 10-9 11-7l-1 2c-2 1-2 6 0 8 2 1 2 2 1 4l-3 1-1 1h-2c-2-1-2 1 0 3h-1c-2-1-3-1-3 2 0 2-1 2-3 1-2 0-2 0-1 1s0 3-2 2l-1 1h5l7-6 5-4-1 5-1 4c-2 1-4 6-3 7l1 2c0 1-6 2-7 1-1-2-2-2-2 0 0 1 1 2 3 2 4 2 8 1 11-2 1-2 1-2 1 0l-2 4-2 3-2 1-3 3c1 1-2 2-4 1 0-1-1-1-3 1l-4 2c-3-1-4 0-2 1l5-1h5l3 1 4-1 5-1c2-1 2 0-1 3l-4 3c-2-1-5 2-5 4v1l-3 2c-1 2-3 3-3 2-2-1-3 2-1 3 1 1 0 1-5 1s-6 0-6 2l-2 1h-3l-4 1c-4-1-3 1 2 3l3 1-4-1-5 1 2 1c2 0 2 0 0 1l-4-2c-3-2-5-3-4-1v1c-3 0-1 1 2 2s3 1 1 2h-3l-2-1c-1 1-2-1-2-2-2-4-3-4-3-1l-2 3c-6-2-6-1-6 3l2 21c1 3 1 3-3 3h-4l1-7zm-16-21v-3c0-1 0-2-2-1h-7l-2 2v1l11 1zm-25-17l-2 1-1 3c0 1 3-2 3-4zm14-4l-1-1-1-2c1-2 1-2-1 0h-2c-2-1-9-2-9 0l-2 1c-2 0-2 1 1 2h15zm10 0c0-2-2-2-3 0l1 1 2-1zm14-2c1-1 0-1-1-1-1 1-2 2 0 2l1-1zm43-2l-2-1-1 1 1 1 2-1zm-82-2l-2-1-2 1h4zm82-1c-1-2-1-2-1 0l1 1v-1zm-78-4c1-1 0-1-1-1-2 0-2 0-1 1h2zm5-1l-1-1v2l1-1zm-16-2h7l2-2-3 1h-7c-3 1-4 1-3 2 2 1 2 1 4-1zm102-3h-6l-1 1 7-1zm-98-4c1-1 0-1-1-1-1 1-2 2 0 2l1-1zm5-14c-1-2-1-2-1 0l1 1v-1zm2-5c1-1 0-4-2-3l-4-1-5-1c-3 1-2 2 3 4s6 2 8 1zm100-5c0-2-3-5-4-4l-2 2c-4 1-2 3 2 3l4-1zm-95-4h-2l1 1c2 0 2-1 1-1zm5-12v-1c2 0 2-1 1-1h-5l1-2 2-2h-1c-1 2-4 3-5 2l-1-1h-1l-2-1c-2 0-3 0-3-2 1-1 0-1-1-1-7 0-2 6 6 8s11 2 9 1zm58-12l-1-1-1 1 1 1 1-1zm-62-1c1-1 1-1-1-1l-2 1h3zm11-13c1-2-1-4-2-3-1 2-1 4 1 4l1-1zm5-2c-1-2-1-2-1 0l1 1v-1zm41-6l-1-1-1 1h2zm-40-4v-1l-2 1 1 1 1-1zm-5-2c-1-1-3-1-3 1l1 1 2-2zm-4-1c0-2-2-3-3-1-2 2-1 3 1 2l2-1zm45-7c4-2 4-2 0-2l-3 2-1 1c-2 0-2 0-1 1l5-2zm-12-11h-2l-1 1c1 1 3 0 3-1zm-13-15l-3-1c-4 1-4 1-1 2s4 1 4-1zm-40 156h2c1 0 1 1-1 1l-1-1zm18-161v-3l2 4-2-1zm15-30l1-1 2-1h2c0 1-1 2-3 2h-2zm9-8c-2-2-1-2 0-1 2 1 2 1 0-1-1-1-1-1 2-1h4l-5 5-1-2zm-1-7v-2h2l1-1v1c-1 2 0 3 2 4 2 0 2 0 0 0-2 1-3 0-5-2zm1-7c-2-1-2-2 0-2s3 2 2 3l-2-1zm0-8l1-2c1-1 1-1 1 1 0 3-1 3-2 1z"/><path fill="#1C241E" d="M1142 391v-13c1-6 1-6 3-5h5l2 1h3l4 2c0 2 3 3 3 1s2-2 4-1c0 1 1 1 0 0 0-1 0-2 2-1 1 0 2 0 1-1-2 0-2-2 0-1l3-2 1-2v2l1 2 1-1h3l2-1-2-1-3-1-4-2c-4-1-4-2 1-2l8-1 4 1h3l1-1c1 1 8-1 7-2h-4c-2 1-3 0-4-2-1-3-1-3 1-3s2 0 1 1v2h3l1-1 2-2 3-3c6 0 6 0 3-2-1-1-2-1 0-2l2-4c1-4-1-5-5-1-3 3-7 5-9 3-2-1-3-3-1-3l1-1c-1-1 0-1 1-1l1-1h3l1-3c2-3 1-4-3-5l-2-1h6l-1-1c-4 0-4-2 0-3l3-2h-3l-3-1 3-2 2-3-7 1-2 1h-2c-1 2-10 1-10-1l3-1 4-2c1-2 3-2 4-2v-1c0-1 0-2 1-1 1 2 3 0 4-3l2-2c2 1 2 0 3-2 0-2-1-3-2-1-1 1-4 1-5-1l-2-1-1-1 1-1 2-1 1-1c2 0 2 0 1-1-2-2 0-3 1-2s1 1 1-1l-1-1 1-1 2-2-7 2-4 3c-2 0-1-3 2-5l2-4h1c2 1 3 0 3-1l-3-1v-1l1-2-1-1-3-1-6-1-4-1v-1h2v-2c2 0 4-4 3-5s-3 0-6 2c-4 2-5 2-5 1-2-2-2-3 0-2l2 1v-1l1-3 1-2-2-1 2-1h2l1-1 1-1c0-2-2-2-5 0h-5l-4-1h-2l1-1 1-2h1c2 3 2 2 1-1-1-2-1-2 1-1 2 2 2 2 3-1l2-3c1 1 2 0 2-2 1-2 0-2-2-1-3 1-6 0-4-2v-3h2c3 1 4 1 3-2v-2l1-1 1-3-4 2c-2 2-5 5-7 5l-3 3c1 0 1 0 0 0l-4 1-3-1h-1l-1-1c0-1 0 0 0 0l5-1 2-1 4-2 2-1 1-1v-2c0-2-7-1-11 2h-4v-1l2-3c2 0 3-2 1-2v-2c2-2 6-2 6 0l2 2h6l-1-2-11-5v-1l2 1 6-1c5 0 6 0 2-1-3 0-5-3-5-5 1-2 1-2-1-1-1 1-2 1-1 2h-6l-1-4v-2c1 1 1 0 1-1l2-2 1-2h-3l-3 3-3 1c-3 0-3 0-2-2l2-2 2-2c2 0 3-1 3-2v-2l3-4c1-3 1-3-1-2-1 0-2 1-1 2l-3 1-2-1-2-1v-1c3-3 3-7 0-7-1 1-2 0-2-1l-1-2h-2l2-1 2-3h-2c-1 2-2 1-2 0l-1-2-4-2-3-1c0 2 4 5 5 5v1l1 1 1 2c0 2 0 2-4 0l-6-4h-2c-1 1 0 1 1 2l3 2 1 1 3 6 2 3c2 2 1 3-2 1l-4-1-5-3c-2-2-3-2-3 0l2 2 2 2 1 1c2 0 3 3 2 3l-4-1-3-1h1v1c-2 1 0 3 3 3 2 0 2 1 2 4-1 3 0 3 2 3l3-1 1 1c1 2 1 2-3 1l-8-2h-2l5 6c2 0 6 5 5 6s-9-2-12-5c-3-2-4-3-5-2l1 1v1l2 3c2 2 2 2 1 3v1c2 0 5 2 5 3 0 2 1 3 2 3l2 1h2l1 1c-1 2-5 0-12-6l-4-4c-1-1-1-1-1 1v1l1 2c2 3 2 7 0 7v1l2 1 2 2 4 2c3 0 3 1 0 2l-5 1h-2l-3-2-3-2-2-2c-1-3-2-3-3 0v3c-1 0-1 1 1 1l1 2 1 3v2c-1 1 1 3 3 3l1 1-5 1h-3l6 2h6c2 0 2 0 0 1-3 1-4 2-2 4l2 1c2 0 2 0 1 1l-1 2-1 1-1 2c2 2-12-2-14-4l-6-4 1 3 3 2c2 0 2 0 0 1s-2 2 0 2c1 0 3 2 2 4h1c2 0 3 1 3 3l3 4c2 1 3 2 2 3l-1 1-16-9c-1-2-5-2-5-1l2 1c2 0 2 1 1 1-1 1-1 5 1 5v1l1 1v1l2 1 2 2 3 2 2 1 3 3c1 1 2 1 0 1l-1 1c1 2-4 0-7-2l-3-1-4-3c-3-2-4-2-3 1l1 1 2 1-2 2c-1 0-1 0 0 0v2h2c2-1 3 1 1 2s2 4 4 4h2l-2 2-1 2h2l1 1c0 3-3 2-8-3s-9-8-10-7l1 2c2 2 2 6 0 8v4c0 1 1 2 2 1l1 1h2c1-1 2 1 0 3h1c2-1 3-1 3 2 0 1 0 2 3 1h1c-2 1-1 3 1 3 1-1 2 0 1 1h-4l-7-6-4-4v5l1 4c2 1 4 6 3 7l-1 1c0 1 5 2 6 1h3l-4 3c-3 1-7 0-9-3-1-1-2-1-2 1l2 4 2 2 2 1 3 3c-1 1 2 2 3 1h3c1 2 3 2 4 2 3 0 4 0 2 1h-9l-3 1-4-1-5-1c-2-1-2-1 1 3 1 2 3 3 4 2 2 0 5 2 5 4v2c1-1 2 0 3 2 1 1 2 2 3 1s2 2 1 3c-2 1-1 1 4 1s6 0 6 2l2 1h7c3 0 2 2-2 3l-3 1h9l-2 1c-2 0-2 0-1 1 2 1 3 0 5-1 2-3 4-3 3-2l1 1c2 0 0 2-3 3-2 0-2 0-1 1h6l2-3c1-3 2-3 2 0l2 2c6-1 6-1 6 3s-1 15-3 20c0 3 0 3 4 3h3v-7zm16-20l-1-1 1-2 1-1c3 2 5 2 6 1h1l2 1v1l-10 1zm24-17l1 1 1 3-2-4zm-14-3l1-1 1-2c-1-1-1-1 0 0 1 2 2 2 3 1 1-2 8-2 8-1l2 1c2 0 1 2-1 2h-14zm-10 0h2l-1 1-1-1zm-13-3h1v1l-1-1zm-40-1a1 1 0 1 1 2 0 1 1 0 0 1-2 0zm77-1l2-1h2l-4 1zm-79-3h1l-1 1v-1zm75-2l2-1c2 0 3 0 1 1h-3zm-5-3h1v1l-1-1zm17 1h-3c-1 1-2 0-5-1l-2-2 3 1h8c3 1 4 1 3 2h-4zm-99-5c-1-1 1-1 6-1l1 1c0 2-5 1-7 0zm94-4h1v1l-1-1zm-4-13h1l-1 1v-1zm-2-5c-2-1-1-3 1-2l4-1 4-1c3 1 3 1-2 3s-6 2-7 1zm-96-5c0-2 3-5 3-4l2 2c3 1 2 3-1 3l-4-1zm90-4h2l-1 1-1-1zm-4-11c1-1 1-1-1-1v-1h4l-1-1-1-2h1l4 1h2l1-1 2-1 2-1 1-2c8 0 3 7-6 9h-8zm-56-11l1-1 1 1-1 1-1-1zm60-2c-1-1-1-1 1-1l2 1h-3zm-11-11c-1-2 2-4 3-2 2 1 1 3-1 3l-2-1zm-5-3h1l-1 1v-1zm-39-5l1-1v1h-1zm38-4v-1l2 1v1l-2-1zm6-1h2l-1 1-1-1zm3-3l3-1c2 2 1 2-1 2l-2-1zm-43-7c-3-2-3-2 0-2 2 1 3 1 2 2l2 1v1l-4-2zm11-10h1l1 1-2-1zm14-14l3-1c3 1 3 1 0 1h-3zm37 150h-2l1 1 1-1zm-17-156v-3c-1 0-4 4-3 5 1 0 2 0 3-2zm-14-28l-1-1-2-1-2 1 3 1h2zm-10-8v-1c-2 1-2 1 0-1 1-1 1-1-2-1l-3 1 4 4 1-2zm1-6v-2h-2l-1-1v1c2 2 1 4-2 4-1 1-1 1 1 1l4-3zm1-6c2-2 1-3-1-3-1 0-3 3-1 4l2-1zm-2-8v-3c-1-2-1-1-1 1 0 3 0 4 1 2z"/><path fill="#181F19" d="M853 104v2c0 1 0 2-1 1l-3 2c-2 1-2 2-1 3 1 2 0 2-2 4l-3 3 3 2 3 2h-3c-2-1-3 0-3 2l1 2c1 1 1 3-1 3l-4 2-2 4c1 3 2 3 3 2s1-1 1 1l-1 1-3 1c-1 1-3 0-2-2l-1-1-1 2-1 4v3l3 1-1 2-3 5c-1 2-1 2 1 4s2 2 0 3c-3 1-4 3-3 5l-1 1c-2 0-3 1-3 2h3c3 0 3 0 2 1-1 3 1 4 3 3 1-1 1-1 0 0l-4 1c-2 0-2-1-1-2s1-1-1-1-4 3-2 4l1 2c0 2 2 5 4 5l1-1h1c1 0 1 1-1 1l-1 2-1 1h-1c0-2-6-1-7 0 0 1 0 1 0 0l2-2c2 0 2-2 0-3-1 0-7 5-5 6l-1 2c-1 1-1 1 1 3v1l1 1v3l-2 3h5c2 0 2 0 0 1l-2 1-3 2c-2 1-2 2-1 2l1 3c-1 5 0 6 1 5l2 1c0 2-3 5-4 5l-1 1 4 1c3-1 4 0 5 1l1 1h-3-3c-1 1-1 1 2 1l4 2-5 8-1 2 2-1c2-2 3-1 1 2s-2 4 1 2v1c0 3-2 7-2 5l-2-3c-2-1-2-1-4 1s-4 0-2-2 2-2 1-3l-2-1v9l1 1-1 1c-2-1-2 5-1 6 2 0 2 1 0 2-2 2-3 8-1 8v2c0 2 0 2 2 2s2 0 1 1l-1 2h-1v1l3 1c3 0 3 1 1 4l2 2c2 1 2 1-3 1l-4 2 2 3 2 2h-4l1 2 2 1 2 2 3 1c1 2 0 2-2 2l-3 1 3 1c3-1 4 1 2 3-1 1-1 1 1 3 1 1 2 2 1 3l1 1 1 1-1 2-1 1c0 3 2 2 4 0 1-1 1-1 1 1s1 3 3 1h1l-1 1-1 1 1 2 2 2h-1l-6-3c-2 2 1 7 4 7v1l-1 2v2c-2 0-3 0-3-2 0-1-2-2-3 0l1 2v1c-3 0-4 2-1 4 2 2 2 2 1 3l-1 2-1 2c-2 1-1 1 1 2h4l1-1-1 2-2 4h6c1-1 1-1 0 0v3h-2c-2 0-5 2-3 3l1 5v5l1 3 1 1h1c-2 2-1 3 1 3 3-1 3 0 1 3-2 1-2 2-1 2l3-1h3v3l-2 1 1 1c3 0 9 11 8 14l-1 4h17l-1-5c-1-4-1-4 2-10 2-4 4-8 6-9 2-2 2-2 1-3-2-1-1-1 0-2l2-4c0-2 0-2 2-2 3 0 4-2 1-3-2 0-2 0 0-2v-2c-1-1-1-1 1-1l2-2 1-3v-2c-1-1-1-1 2-3l4-2v-2c-1-1-3-2-3 0h-4l-2-2c4 1 5-1 4-5-2-3-2-3 0-3 3 0 3-2 0-5-2-1-2-2-1-2l3-3c1-3 1-4-1-5s-2-1 2-5c3-3 3-3 1-4v-2l1-2-8 4c-1 1-3 2-4 1-2 0-2-1 2-3 8-5 12-10 8-9-2 1-2 1 0 0l1-4 1-2c2 0 8-6 8-7l-1-1v-2c2-1 2-1 0-3l-2-4h-3c-2 0-2 2 0 2s2 0 1 1h-2l-3-1c-1 1-1 1-1-1l1-4 1-2c1 1 4-1 3-3l1-1 1-1 1-4c2-3 1-5-1-3l-2 2v-1-3h1l1-1 3-4c2-4 2-4 0-4-2 1-2 0-2-2l1-5c2-2 2-2 1-3h-3l-2 2c-2 1-2 0-1-2 0-2 0-3 1-2 2 0 4-3 2-4l-1-3-2 1-5 1-3-1h3l2-1 3-2 3-2c0-1-4-3-4-1l-1 1v-1c1-2 1-5-1-6l1-1 2-2c1-3 0-3-2-2-3 1-3 1-1-1l2-3v-5c1-3-1-5-2-2 0 1-1 2-2 1-2 0-6 4-5 6v1c-2 2-2-4 0-6 1-1 2-2 1-3l2-5 2-5 2-4c1-1 1-1-1-1l-4-1c0-1 1-2 2-1 2 0 3 0 2-4l-1-5 1-3v-1l1-2 1-2-3 2c-4 5-5-1-3-8 1-2 0-3-2 0h-3l2-3 2-2c-2-2-2-5 0-7v-1l-4 3c-3 3-3 3-3 1l1-2 1-3c0-2 0-3-3-3l-5-1-1-2 2 1h3c2 0 2-1 2-4l1-4c2 0 2-1 0-3h-4c-3 1-3 0 0-2s2-3-4-3c-5 1-6 0-5-1h4c-1-2-1-2 1-2l3-2c1-1 0-2-5-1-2 0-2 0 0-1 2-2 2-3 0-10l-2-2h-1zm-1 6l2 1-2 2-2-1 2-2zm-1 6l2 1c0 2-2 2-3 0l1-1zm-10 18h1l-1 1h-1l1-1zm-4 9l3 1c1 2 0 2-2 1h-3l-1-1 3-1zm-5 5c-2 0-4 2-4 3h3c2-1 3-1 2-2l-1-1zm37 3l-2 2-3 2 3-2 2-2zm-7 5c1 0 2 1 1 2h-3l1-1 1-1zm6 13h1l3 1v1c-1 1-2 1-3-1l-1-1zm-27 2v1l-2 1 1-1 1-1zm-5 2l1 1v1l-1-1v-1zm34 3l1 1h-2l1-1zm-34 0l1 1-1 1v-2zm-14 1l-2 1c-2 2-2 2 0 2s3-2 2-3zm17 3l1 1h-2l1-1zm29 6l1 1c0 2-1 2-2 1l1-2zm-43 1l1 1-1 1v-2zm-4 2v1l1 1-1 1-1-2 1-1zm48 9l1 1-1 1v-2zm6 5l2 1c1 1 1 1-1 1l-2-1 1-1zm-56 3h2c0 1-2 2-3 1l1-1zm4 2l-1 2-2 1 3-3zm49 2h1l-1 1h-1l1-1zm-46 0v2c0 1 0 1 0 0v-2zm39 4h1c1 1 1 1-1 1l-1-1h1zm-1 12h1l-1 1h-1l1-1zm-43 1l-2 1-1 2h4v-2l-1-1zm6 1l2 1h-2v-1zm46 7l1 1 1 1c-1 1-1 0-2-1v-1zm3 5h1l-1 2h-1l1-2zm11 1l-1 1c0 2 0 2 2 0 1-1 1-1-1-1zm-62 6l1 2-1 2c-1 1-1 0-1-2l1-2zm59 2v1l-1 2v-2l1-1zm-71 11l1 1-2 1-1-1 2-1zm75 13l-1 3h2v-2l-1-1zm-76 5l-2 2 1 1 2-2-1-1zm9 4l2 2c2 1 2 1 0 0l-2 1-1 1v-2l1-2zm-5 1h1l-1 1h-1l1-1zm58 2h1l-1 1h-1l1-1zm-55 3l1 1-1 1c-3 1-4 1-2-1l2-1zm54 4l2 2h-1l-3 2h-1l1-3 2-1zm-51 0l1 2h-3l2-2zm12 1v2c0 1 0 1 0 0v-2zm-10 3l2 1-1 1h-3l2-2zm-3 6h1l2 1-4-1h1zm3 3h2l-2 1h-1l1-1zm49 0l-2 1 1 1 1-1v-1zm0 5c1 0 1 1-1 3s-2 1-1-1l2-2zm-7 8h1l2 1h-4l1-1zm-42 14h2l3 1h-5v-1zm-6 3l-2 1 2 1 2-1-2-1zm6 1h1l-1 1h-1l1-1zm45 14l1 1-1 2h-1l1-3zm-3 4h1l-1 1h-1l1-1zm-36 1h1c1 1 0 1-1 1-2 0-2 0-1-1h1zm-8 1c-1 0-2 1-2 3l1 1c1 0 2-3 1-4zm7 5h1l-1 2h-1l1-2zm30 13h1l-2 5c-3 5-3 5-1-1l2-4zm-17 1l1 1-1 1-1-1 1-1zm-4 1l1 1c1 3 0 3-1 1v-2zm2 5l1 1 2 3c0 1-2 1-3-1v-3z"/><path fill="#000" d="M923 64l-1 2v1c-1 0-2 0-3 2-2 2-2 3-2 5 1 1 1 2-1 4l-3 3 3 3 3 2-3-1c-2 0-2 0-3 2l1 4v2l-4 3c-2 2-2 3-2 5 1 3 1 3 2 2s2-1 2 1l-2 1-2 1c-1 2-3 0-3-2v-1l-1 2-1 4v3l3 2-1 2-3 6c-1 2-1 3 1 4 2 3 2 3 0 3-2 2-4 5-3 6s1 2-1 2l-2 2h2c3 0 3 0 3 2-1 2 0 4 2 2v1l-3 1c-2-1-3-1-2-2s1-2-1-2-3 4-2 4l1 3c0 3 2 6 4 6l1-2h1v2l-2 2v2l-2-1c0-2-5-1-6 0 0 1 0 1 0 0l2-2c1 0 2-3 0-3-1-1-6 5-5 6v2c-2 2-2 2 0 3l1 2v4l-2 4c0 1 3 2 3 0h2v2l-2 1c-1-1-2 0-3 1l-1 3 1 4c0 5 0 6 2 5l1 1c0 2-2 6-4 6l-1 1 4 1c3-1 4 0 5 1 1 2 2 3 0 1h-2-3c-1 1 0 1 2 2l3 1-4 10-1 2 2-1c2-3 3-1 1 2-2 4-2 5 0 2 1-1 1 0 1 2 0 3-2 8-2 5l-2-3c-1-1-2-1-3 1-2 2-4 0-2-2l1-4-2-1v12h-1v10c-2 3-3 9-1 9v2c0 2 0 2 2 2l1 1-1 3h-1c-1-1-2 0 0 1 0 1 2 2 3 1 2 0 2 1 1 4-1 1 0 2 1 3 2 1 2 1-2 2l-4 1 1 3 2 3h-1c-1-2-2-1-2 1l1 1 2 2 2 2 2 1c1 2 1 2-1 2l-3 1c-1 1 0 1 2 1 3 0 4 1 2 4-1 1-1 1 1 3 1 1 2 3 1 4l1 1 1 1-1 2-1 2c0 2 2 2 3 0s1-2 1 0c0 3 1 3 3 1h1l-1 2-1 1 2 2 1 2c0 1 0 2-1 1l-5-4c-2 2 1 8 3 8l1 1-1 3-1 1c-1 1-2 0-2-1 0-2-2-2-3-1l1 3v1c-3 0-3 2-1 5 2 1 2 2 1 3l-1 1-1 3c-1 1-1 1 1 2l3 1 2-2-1 3-2 4c0 2 4 2 5 0 1-1 1-1 1 1l-1 3h-2c-2-1-4 2-2 3v6l1 6 1 2c-1 2 0 2 1 1l1 1c-2 2-2 4 0 3 3-1 3 1 1 3l-1 4 3-2c2-1 2-2 3 0v3l-2 1 1 2c3 0 8 12 7 15v5h15l-1-5c-1-5-1-6 2-12l5-10c2-2 2-3 1-4v-2l2-4c0-2 0-3 2-3 3 0 3-2 1-3-2 0-2-1-1-2 2-1 2-2 1-3v-1c2 0 2-1 2-2l2-3-1-3 2-3 4-3v-1c0-2-3-2-3-1 0 2-1 1-4 0l-1-1c3 0 5-3 3-6-1-4-1-4 1-4s2-3 0-5l-2-3 3-4v-5c-2-2-2-2 1-6 3-3 3-4 1-5v-2l1-2c-1 0-2 0-7 5l-4 1c-2-1-2-1 2-4 7-5 11-11 7-9v-1c1-1 2-3 1-4l1-3c2 0 7-6 7-8l-1-1 1-1c1-2 1-2-1-5l-1-4c1-1 0-2-3-1-2 1-2 3 0 3s2 0 1 2c-1 1-2 1-2-1h-3l-1-2 1-5c0-1 0-2 1-1s4-2 3-4l1-1v-1l1-4c2-4 2-7 0-4l-3 2 1-2v-2c0-1 0-1 0 0l2-1 2-5c3-4 3-5 0-5-1 1-2 0-2-2l2-6v-4c0-1-1-1-2 1l-2 2c-1 1-2 0-1-2l1-3c2 1 3-3 2-4l-1-3-2 1-4 1-3-1h2l2-1c0-1 1-2 3-2l3-2c0-2-4-4-4-2l-1 1v-2c1-1 1-5-1-6l1-1c1 0 2-1 2-3 1-3 0-3-2-2-2 2-2 2-1 0l2-4v-6c1-3-1-5-2-2 0 2-1 2-2 2-2-1-5 4-4 6v1c-2 2-2-5 0-6l1-4 1-6 2-6 2-4c1-1 1-1-1-1l-3-2 2-1c2 1 2 0 2-4l-1-6v-3l1-1v-3l1-2-3 3c-3 5-4-1-2-10 1-2 0-3-2 0h-3l2-3c2-1 2-2 1-3s-1-5 1-7v-1l-4 3c-3 4-3 4-3 1l1-2 1-4c0-2 0-2-3-2l-5-2v-2l2 1h2c3 0 3-1 2-5 0-3 1-4 2-4s1-2-1-4h-4c-2 2-2 0 0-2 4-2 2-4-3-3-4 0-6 0-4-2l2 1c1 1 1 1 1-1-1-1-1-2 1-2l2-2c2-1 1-2-4-2v-1c1-1 2-3 0-10l-2-3zm-2 6l1 1-1 2-2-1 2-2zm0 7l1 1c0 2-1 3-2 1l1-2zm-10 21l1 1-1 2-1-1 1-2zm-4 9l3 2c0 2 0 3-2 1l-2-1h-1l2-2zm-5 8c-2 0-4 2-4 3h3c2-1 2-2 2-3h-1zm35 2l-2 3c-2 2-2 3-2 1l2-2 2-2zm-8 7c2 0 3 1 2 2h-3l1-2zm7 13h1l3 1v2c-1 2-2 1-3-1l-1-2zm-25 3l-1 2c-1 2-2 3-2 1l2-3h1zm-4 1l1 1-1 2-1-2 1-1zm30 4l1 2h-2l1-2zm-30 1l1 1-1 2v-3zm-14 0l-1 2v2c1 0 3-2 2-4h-1zm16 3l1 2h-2l1-2zm26 8l1 2c0 2-1 3-2 1l1-3zm-39 1l1 1-1 2v-3zm-3 3l1 2-1 1-1-2 1-1zm43 9l1 1-1 2v-3zm5 6l1 1v2l-2-1 1-2zm-50 4l2 1c0 2-2 3-3 1l1-2zm3 2l-1 3-2 1c0-2 2-4 3-4zm45 2l1 1-1 2-1-1 1-2zm-42 1h1v2h-1v-2zm36 4h1l-1 1-1-1h1zm-2 13l1 1-1 2-1-1 1-2zm-38 2l-1 1-1 2h2l1-2-1-1zm5 1l2 2h-2v-2zm42 8l1 1 1 3-2-2v-2zm3 5l-1 3c-1 2-1 1-1-1l2-2zm11 2l-2 2c0 3 0 3 2 0v-2zm-59 6l1 2v2l-1-2v-2zm54 3v1l-1 3v-3l1-1zm-64 12l1 1-2 2-1-2 2-1zm69 16l-1 3h2v-2l-1-1zm-70 4l-2 2 1 2 2-2-1-2zm9 5l2 2h-1l-2 1-1 1 1-2 1-2zm-5 1l1 1-1 2-1-1 1-2zm53 3l1 1-1 2-1-1 1-2zm-49 3l-1 2c-2 2-3 1-1-1l2-1zm47 5l2 2h-1l-2 2h-1l1-3 1-1zm-45 0l1 2c-2 3-3 3-3 0l2-2zm11 0h1v2h-1v-2zm-9 4l1 1v1h-3l2-2zm-3 6l2 1-3-1h1zm3 5h1l-1 1h-2l2-1zm45 0l-2 1v2l2-2v-1zm-2 5v3c-2 2-3 1-1-1l1-2zm-4 9l2 2c-1 2-2 1-3-1l1-1zm-39 15h1l2 2c0 2-1 1-3-1v-1zm-5 4l-2 1 1 2 2-2-1-1zm5 1l1 1-1 2-1-1 1-2zm40 16l1 1-1 3-1-1 1-3zm-3 4l1 1-1 2-1-1 1-2zm-33 2h2l-2 1-1-1h1zm-6 1c-1 0-2 1-2 3l1 1c1 0 3-3 2-4h-1zm7 5l-1 3c-1 2-1 1-1-1l2-2zm26 17l-1 5c-2 6-3 5-1-1l2-4zm-15-1l1 1-1 2-1-2 1-1zm-4 2l2 2c0 2-1 3-2 0v-2zm2 7l1 1 2 3c0 2-2 1-2-1l-1-3z"/><path fill="#171E18" d="M641 398c0-4-2 1-3-2 1 0-2-1 0-3 0-2 0-5 1-4-1 0-3-2-4-1l-4 7c-1-1-2 2-3-2-2-2 3-3 0-4l-7 2-2-4c2 0 1-1 4-3 3-4 0-3 1-5-2-1 3-2 2-2 3 0 5-2 5-2-4 0 12-10 3-3 1 3 2-2 4-1-2-1-5-1-3-2-2-1-3-3-1-3 3 1 3-3-2-2-2 5-2 2-4 3l-6 2-6 1c-3 1-3 0-4-2-2-2-1 1-5 2-3 1-2-2-2-1-1 0 4-5 1-3l-4-2c-3 0-2-4-1-3 1 0 3-2 6 0l-1-4c0-2 3 1 3-1 1 0 5 3 3-1 0-1 1-4 3-3l5 2c4 3 4-1 5 2 4-5 1-1 5-4 0 0-3-3 0-3-2-2-4-2-3-4 0-2-2-3-5-2l-6 1c-1-4-4 1-5-3-1-3 2-2 7-3-1-1-3-2 0-3 1-1 2-3-2-3l-6-2c1-1 0-4 2-3 0-2 5 2 4-1 3 2 5-1 4 0-2-1 0-2 1-4l3 4c0-1 5 1 2-2h4c1-1-1-3 3-2 1 1 2-2 3 0 2-1 2 2 4 1 1 1 5-2 3-1 1-3 4-2 2-4h6c4 0-3-1 0-3l2-4-4 2-5 4c-1 0-3-2 0-3-2-2-4-1-3-1-2 2-4-2-3-1 2 0 0-4-2-2h-5c-2 0 1-3-1-2-4-1 4-3-1-5-2 1-4 1-6-2l5-4c3 0-1-4 2-4h3c2 0 7 2 8-1-2 2-4-3-1-3 2 0 3 0 4 2 0-3 3-1 3 0 3 0 1-3 5-1-1-2 2-3-2-4-3 0-2-1-5 1l-5-2-4-1c-4 1-7-2-6-1-3 2-5 0-2-1-3-2-1-3 1-2 2 0 2-4 4-3 0-2-2-4 1-3 1-1 1 1 3-1 4 3 1-4 4-2 0-4-2-6 0-5-3-1 4 1 0-2 4 0 1-1 3-3s-4-1-9 1c0-1-2-2 0-4 0-2 0-2 3-2l4-1c5-3-1-4 0-2-2 0-2-3 0-3s3-1 5 1l4-2c1-1 5 2 4 1 1-1 4 1 5-3-4 0 1 0-3-1-3 0-2-3-3-3-3 0-3-1-2 2-1-1-3 2-4-1 1-3 0-3-3-3-1-1 1-1-1-3 1-3-6 2-1-3-1 4-13 2-7 1 3-1 0-4 0-2 4 0 2-1 5-2 2 0 5 0 4-2 0 0-3-1-2-3 2 0 5 0 4 1 2 0 6-2 4 0 1-3-6-1-1-4-5 2-2-1-2-1-2-2 2-2 4-2 0 0 4 0 3-2 1-3-5-4-4-2 0-2-3-4 1-4 2-3-1-8-1-6-2-1-2-4-3-2-1 1-3-1-3-1 0-2-1-2 1-3 0-2 5-2 4-1 2-3-2-4-1-3-1-3 1-2 1-3-1-1 5-5 0-3 0-2 4-1 0-2-3-2-3-4-1-4 1-4 3 1 4-1 4 4 2-1 4 1 3-1 3-4 3-3 5 0 2-2 2-5l-4-4c-1 0-2-4 0-3 0-4 4 2 5-1-2 0 1-4-2-4-2-3 1-7 0-5 3-1 3-3 2-3 0-3 4-4 3-2 1-1 1-4-1-6-1 0 1-3-1-4 0-1-4 0-3-2 2 0-2-3 1-2l4-1c-3-2-2-3-4-3l-3-3v-2c6-1 3 0 5-2l-3-4c-3-3 2-1 1-4l-3-4 2-3c1 2 5 2 2 0-1-2 2-1-2-4 1 1 1-3 3-1l3 1c0 5 0-2 1-1l1-4c1 1 5-2 3-1 1 3 3 3 1 6 1 2 4 3 4 1 1-1 3 1 3-4 2 2 5 2 4 0-1 5 1-1 1 3l-1 4c-1 3 3 3 1 4-1 2 1 5 2 3 1-1 1 3 1 2-1 1-3 5-1 4l3 2c0 1 1 2-1 3l-2 4c2 1 5 1 3 3-1 2 1 1 3 3 2 1-3 5-1 4-2 5 2 4 2 2l3 2c2 2 1-1 5 0 1 2 3 1 2 0 3-3 0 1 3 1-4 1-1 1-3 2 2 1 2 2-1 1-2 0-2 5-2 3-1 3-3 1-1 4 1 0 2 3 0 5 3 0 1 1 4 3-1 1 3 2-1 3-1 3-2-2-3 0h-5l2 4c-1 2-1 4-3 3l-5 3c-3 2 0 6 2 2-2 4 4-3 3-1 3-1 2 0 4-3l5-4c3-1 7-4 5-2 1 1 1 5 2 4-4 2 4-2 5 0v4l-3 2c-3 1-2 4-5 3-1 2-7 2-1 2 1 5 3-1 3 2 3-4 6 0 4-1 1-1-2 4 1 3l3-3 2-2c0-1 3-2 4 0s4 0 3-1c4-4 2 2 4 1l-4 3c1 1-3 2 0 2 2 1 3 0 4 2-2 2-5 4-4 2l-3 5c4-2-4 4 3 0-4 3 1-1 3 1 2 1-4 1 1 1-3 2 0 3-3 2-1 1-3 0-5-1 1 2-2 1-2 1-1 0 0 4-1 2l-1 5c-1-1-5 2-2 1-3 3 3 1 0 3 0 4 2 0 3 2 2-2 0 2 3 1-2 2 1 6 0 5-2 2 3 5 2 3 2 1 2 4 0 3l-5-2h-4l-5 1c0 4 2 4 0 6 0 0 2 4 4 2 0 2 5-2 4 1 1 3 1 4-2 3-2-1 3 4 1 4-2 2 5 1 3 0 2-1 4-5 2-4 1-2 2 2 2 1 1 2-2 3 1 4l4-3c3-2 2 1 2 2 3 1-3 1-1 2l-3 3c-4-2 2 5 1 3 3-1 2 2 3 2-1 2-3 0-4 2-3 0 0 5-7 3 5 2-5 1 0 2 1 2-1 3 3 4 1-2 6-1 3 2 2 1 4 0 5-2 2-1 4 1 4 1h2l6-1c-2 3 2 2-1 4 0 1-6 0-4 1-3 1-1 1-3 3l8 1 3 1c3 1 0 3 0 2-4-1-1 1-4 2 0 1 3 5-1 4-2 0-3 0-4-3l-6-5c2 2-1 4-2 2-4 0-4-1-8 1l-4 1c1 4 3 2 0 5-5-1-6-2-7-1-1-2-1 0-2 0l3 1c4 0 3 4 3 3-3 0 2 6 1 5h4c5-2-3 0 4-2 1-1 3-3 5-2 0 2-3 5-2 3 1 4 6 1 4 1l4 1c-1-1 1 9 2 3 1 2 1-2 3 0 1 2-2 5-1 4-2 2-2 0-2 3-3-1 0 4 1 1 1 2 4 2 2 3-1 2-5 3-4 1-4 0-2 3-2 2l-4 3c-1 3-6-1-4 2-1 1-3 2-1 3 1 1 0 3 2 2 2-3 0 2 3-3 1 0 4 1 4-1 4-3 3 1 4 0 4-1-1 2 3 1 4 0 3 2 5 2-1 0 7 3 6 1 4 2 3 4 4 3-2 0 6 4 2 2 2 1 1 4 0 4 5-1 3 2 1 1 2 3-5 0-5 2-5 3 0 3-1 3 0 1-3 4-1 3-2 3-12 1-10 1-3 0 0 2-3 4-4-2 0 3-3 1 1 2-1 1-4 2-2 2-3 1-2 2 0 1-2 4 1 3 0 0 2-1 3 1 2 1-3 3 1 2 2 1 2 3 0 3 2 2 1 3 4 1 1-3 2-1 4-3 1 1 2-1 3 2h5l2 3h5c2 0 2 4-1 3-2 2-1 1 2 3 2 0 1 4 1 3-2 2-5 0-2 3 2 0-1 3 0 3h-5c-2 0-4 3-3 3-3 0-4-3-6-4-2 0-3 0-2 2-1 0-3 1-4-3h-4c-2 1-2-1-4-1-2-3-4-3-3 0-2 2 0 3 0 3-1 1 1 4-4 2l-5 1c-2-2-3 2-3 1 0 2-4 5-2 4-2-1-2-2-2-4 2-2-2-5-1-3-2 0-4 2-3 2-1 2-2 0-2 0-3 2 0-2-2-2-1-1-3 1-2 3-2 0 0 2-2 2-3-1-5 2-4 5 0 2-1 4 2 4 2 3-1 3-9 2-5 0-16 2-14-1v-4c3-3-2-2-2-2l-4 1h-6c3-2-4 0 1-2-4 0 3-1 2-1-4-2 6-3 1-4-5 0-4-1-5 1-3 2-6-2-9 0-5-1-2 6-2 4-1 0 3 2-1 2 4 2 0 2 2 5l-3 2c-3 1 1-3-3-2-3 0 1 1-3 4zm69-20c-1-3-1-2-3-1-1 1 3 1 3 1zm-47-12c3 0-1-4 0-3l-3-2c-4-1-1 7 0 3 0 2 3 1 3 2zm61-3l4-2c2-3 4-1 2-4-1 2-1 0-5 3-2-1-3 4-1 3zm-20 0c5-3 0-4-1-1 0-1 0 2 1 1zm-71-9c-1-4-5-3-2-2l2 2zm9 0c2-4-5 0 0 0zm52-8c1-3-5-2-2-1 2-1 1 1 2 1zm-43-14c4 0-3-4 0 0zm23-1c0-2-2 0 0 0zm4-1c-1-1 3-2-1-3-1 1-4-1-1 3h2zm52-3c-1-2 0 1 0 0zm-55-2c2 0 1-4-2-1l2 1zm-5-36c4-1-5-3-1-1-1 1 0 1 1 1zm-3-3c3-1-4-3-3-1 1-1 2 4 3 1zm29-7c-2-1 0 0 0 1v-1zm-41-6c3-1-2-9 0-5-3 0-7-2-5-2l-7 2c-1 3 1 1 3 3 3-1 4 1 7 2 2 0 1 2 2 0zm0-16c2 0 0-4 0-1-2 2 0 0 0 1zm41-6c5-2 0 1-1 0h1zm-28-5c4 0 1-4 1-3l-3-3c-3 0-6 0-3 2l4 3 1 1zm-14-4l5-2-1-3c-4 0-6 3-4 3 0 1-2 2 0 2zm49-3c1-4 3 0 3-4l-5 1 2 3zm7-22c1-2 3-2 3-2 2-1 4-3-1-4 1 4-3-2-2 2-3-3-2 3-1 3l1 1zm-13-2l6-3c-1-2-3 1-5 1 0 0-4 3-1 2zm-31-55c-2 0-4-3-3 2-4-5 5 4 3-2zm13-3c-1-5-4-3 0 0z"/><path fill="#29372C" d="M604 391v-13c-1-7-1-7-3-6l-4 1h-3l-2 1c-2-1-3 0-3 1-1 2-4 3-4 1s-1-2-3-1h-1c1-1 0-2-1-1h-1v-2l-3-2-1-2v2l-1 2-1-1h-2l-3-1 2-1 3-1 4-2c4-1 3-2-1-2l-7-1h-7-1c-1 1-7-1-7-2h4c2 0 3 0 4-2 1-3 0-3-1-3-1-1-2 0-1 1v2l-2-1-2-1-2-2c0-1-1-2-3-2-5-1-5-1-3-2 2-2 2-2 1-3l-2-4c-1-4 1-5 4-1 3 3 7 5 9 3 2-1 3-3 1-3v-1l-1-1-2-1h-3l-1-3c-1-3-1-4 3-5l3-2h-3c-2 2-4 2-4 0l2-1c3 0 3-2 0-3l-3-1 3-1 2-1-2-2-3-3 7 1 2 1 2 1c1 1 9 0 9-2l-2-1-4-2-4-2v-1c0-2 0-2-1-1-1 2-3 0-4-3 0-2-1-2-2-2-1 1-2 0-2-2-1-2 0-3 1-1 1 1 4 1 5-1l2-1 1-1-1-1-2-1-1-1-1-2c2-1 1-3-1-1-1 1-1 0-1-1l1-2v-1l-2-2 6 3 4 3c2 0 0-3-2-6l-2-4h-1c-2 1-2 1-2-1l2-1 1-1-2-2 1-1 3-1 6-1 4-1-1-1h-2v-1-1c-2 0-3-4-2-6l5 2c4 3 5 3 5 2 2-2 1-4 0-2l-2 1v-2c1-1 0-1-1-3v-2l1-1-2-1h-2v-1l-2-1c0-2 2-2 5 0s3 2 5 0l3-1h2v-1l-1-2h-2v-1c1-3 1-3-1-1s-2 2-3-1l-2-3-2-2c0-2 0-2 2-2 3 1 5 0 4-2v-3h-2c-2 2-3 1-3-2v-2l-1-1v-3l3 3 7 5 2 2v1h7l1-1h1c0-2 0 0-1-1l-4-1-2-1-3-1-2-1-1-1v-3c0-1 6 0 10 2l3 1v-2l-1-3c-2 0-3-2-1-2v-2c-1-2-6-2-5 0 0 1-1 2-3 2h-2-3l1-2c8-4 10-4 10-6 1-1 1-1 0 0h-2-5c-5 0-6-1-2-1 3-1 4-3 4-5 0-3 0-3 1-2l2 2 3 1 2-1 1-3v-2l-1-2-2-2-1-2 3 1 3 2 3 1c2 0 3 0 1-1l-1-3-3-2-2-2-1-2-2-4c-1-3-1-4 1-2l1 2 2 1 3-1 2-1-1-2c-2-2-2-6 0-6l2-2 2-1 1-1-1-1-2-2c0-2 0-2 1-1 1 2 2 2 2 0l1-2 4-2 2-1c1 2-3 6-4 5v1l-1 1-1 2c0 2 0 2 4 0l5-3 2-1c1 1 0 2-1 2l-2 2-1 2c-1-1-2 2-3 5l-2 4c-2 2-1 2 2 1l4-2 4-2c2-3 3-3 3-1l-2 3-2 2-1 1-1 3 3-1 3-1c1 0 0 0 0 0l-1 1c2 1 0 3-3 3-2 0-2 1-2 4 1 3 1 3-1 3l-3-1c-1-1-1 0-1 1-1 2-1 2 3 2l7-3h2c-1 3-4 6-5 6s-6 5-5 6c1 2 9-2 12-5 2-2 3-3 4-2v1l-1 1c1 1 0 2-1 4-2 1-2 2-2 3l1 1c-2-1-5 1-5 3l-2 3-2 1h-1c-1 0-2 0-1 1 1 2 5 0 11-6l3-4h1l1 2-1 2c-2 3-3 7-1 7s2 0 0 1l-2 1-1 2-4 2c-3 0-3 1 0 3h7l2-2 3-2 2-2c1-3 2-3 3 0v2 1c1 1 1 1-1 2l-1 2-1 2v2c1 1-1 4-2 4l-2 1h8c0 1-1 2-6 2l-3 1h-2c-2 0-2 0-1 1 3 0 4 2 3 4l-3 1v3l1 1 1 2c-1 2 11-1 13-4l6-4-1 3-3 2v1l1 2c-2 0-3 2-2 4l-2 1-2 2c0 2-2 3-3 4-2 1-3 2-2 3l1 2 15-9c1-2 5-3 5-1l-2 1c-2 0-2 0-1 1s1 5-1 5v1l-1 1v1l-2 1-2 2-2 2-3 1-2 3c-2 1-2 2 0 2l1 1 6-2c1-2 3-2 3-2l3-3c3-2 5-2 4 1l-2 1-1 1 2 2c1 0 1 0 0 0l-1 2c1 2 1 2-1 1s-3 0-1 1-2 5-4 4l-1 1 1 1 1 2-2 1v1c0 3 2 2 6-3 5-6 9-9 10-7l-1 2v8c2 1 2 2 1 3-1 2-2 2-3 2l-1 1h-1c-2-1-2 1 0 2 1 2 0 2-1 1-2-2-3-1-3 2 0 1-1 2-3 1h-1c2 2 1 4-1 3-1-1-1 0-1 1h4l7-6 4-4-1 5-1 4c-2 1-4 6-3 7l1 1c0 2-5 2-6 1s-2-1-2 1l3 2c4 1 8 0 9-2 2-2 2-2 2 0l-2 4-1 2-3 2-2 2c1 2-2 3-3 2h-3c-1 2-3 2-4 2-3 0-4 0-2 1h9l2 1 4-1 5-1c2-1 1-1-1 3l-3 3c-2-1-5 1-5 4l-1 1-2 2-3 2c-1-1-2 1 0 3 1 1 0 1-5 1l-6 1-1 2h-6c-4 0-3 2 1 3l3 1h-8l2 1c2 0 2 0 0 1-1 1-2 0-4-1-2-3-4-4-3-2l-1 1c-2 0 0 2 2 3 3 0 3 0 2 1l-3 1-3-1-1-3c-2-4-3-4-3 0 0 2-1 3-2 2-5-1-5-1-5 4l2 20c1 3 1 3-3 3h-3v-7zm-15-21l1-1-1-2-1-1c-3 2-5 2-6 1h-1l-2 1v1l10 1zm-22-17l-2 1-1 3c0 1 3-2 3-4zm12-4l-1-1v-2h-1c-1 2-2 2-3 1-1-2-7-2-7-1l-2 1c-2 0-1 2 1 2h13zm10-1h-3l1 2 2-2zm13-2h-1c-2 1-3 1-1 1l2-1zm38 0a2 2 0 1 0-3 0 2 2 0 0 0 3 0zm-73-2l-2-1h-2l4 1zm74-3h-1l1 2v-2zm-70-3l-2-1c-2 0-3 0-1 1h3zm4-2h-2v1l2-1zm-16 0h2c1 1 2 0 5-1l2-2-3 1h-7c-3 1-4 1-3 2h4zm93-4h-6l-1 1c0 2 5 1 7-1zm-87-5h-1c-2 1-3 1-1 1l2-1zm3-14h-1l1 2v-2zm2-4c2-1 1-3-1-2l-4-1-4-1c-3 1-3 1 2 3s6 2 7 1zm89-5c0-2-3-5-3-4l-2 2c-3 1-2 3 1 3l4-1zm-85-4h-2l2 1v-1zm5-12c-1-1-1-1 1-1v-1h-4l1-1 1-2c0-1 0-1 0 0-1 1-4 2-5 1h-1l-1-1-2-1-2-1-2-2c-7 0-2 7 6 9h8zm53-11l-1-2-2 2 2 1 1-1zm-57-2c1-1 1-1-1-1l-2 1h3zm11-12c1-2-2-4-3-2-2 1-1 3 1 3l2-1zm4-4h-1l1 2v-2zm36-4l-1-2v2h1zm-35-4l-1-2-2 2 1 1 2-1zm-5-2c-1-2-2-1-3 1l2 1 1-2zm-4-2c0-2-2-3-3-1-2 2-1 2 1 2l2-1zm41-7c3-2 3-2 0-2-2 1-3 1-2 2l-2 1v1l4-2zm-10-11h-2l-1 1 3-1zm-14-15l-3-1c-3 1-3 1 0 2s3 1 3-1zm-35 156h2v1l-2-1zm16-161v-3c1 0 4 4 3 5-1 0-2 0-3-2zm14-30l1-1 2-1 2 1-2 2-3-1zm9-8v-1-1c-1-1-1-1 1-1l3 1-3 4-1-2zm-1-6v-2h2l1-1v1c-2 2-1 4 2 4 1 1 1 1-1 1l-4-3zm0-7c-2-2-1-3 1-3 1 0 3 3 1 4l-2-1zm1-8v-3c1-2 1-1 1 1 0 3 0 4-1 2z"/><path fill="#0C0F0D" d="M1594 398c0-4 2 1 4-1-2-1 3-2 0-3 0-1 0-5-1-3 1-1 3-2 6-1l5 6c2-1 4 1 5-2 3-2-4-3 1-3l10 1 3-3c-3 0-2-1-6-3-4-3 0-2-1-4l-4-1c-4 0-7-2-7-2 5 0-19-8-5-3-2 3-4-1-6-1 4 0 8 0 5-1 2-1 4-2 0-3-4 1-3-2 3-1 4 4 3 1 7 2l9 2 10 1c5 0 3 0 5-2 4-1 2 1 8 2 4 1 3-2 4-1 1 0-7-4-2-2l6-2c4 0 3-4 2-2-2-1-5-3-10-1 0-1 3-3 1-3 1-1-3 1-4-1-2 0-7 3-5-1 1 0-1-3-4-2l-8 1c-5 3-6 0-8 2-5-4-1-1-6-3-2 0 4-3 0-3 2-1 6-1 3-3 0-2 4-2 8-1h10c0-3 5 1 7-2 1-3-3-2-10-2 1-2 4-3-1-3-2-1-3-3 3-3 4 0 4-2 9-1-1-1 1-3-2-3-1-2-8 1-7 0-4 1-8-2-6-1 3-1 0-2-1-3l-4 3c-1 0-8 1-4-1-3 0-5-2-7-1-1 0 3-2-4-1-2 1-2-2-4 0-4-1-3 2-6 0h-5c-1-2-6-1-3-3h-9c-6 0 4-2 0-3l-3-3 6 2 7 3c2 0 6-2 1-3h4c3 1 6-2 5-2-3 1-1-3 3-1h7c4 0-2-2 2-2 7 0-6-2 1-4 4 1 7 1 9-1l-7-3c-4-1 2-4-3-4h-4c-4 0-11 2-13-1 3 2 6-3 2-2-3 0-5-1-7 1 1-2-4-1-4 0-5 0-1-2-7 0 1-2-3-3 3-4 3 0 3-1 6 1l8-2h8l9-1c4 1 6 0 3-1 4-2 0-2-2-2-3 0-3-3-6-2 0-2 3-4-2-3-2-1-1 1-4-1-6 3-2-3-7-1 0-4 4-5 1-4 4-1-8 0-1-2-5 0-2-1-4-3-3-1 6-1 13 1 0 0 3-1 1-3 0-2-1-2-5-2l-6-1c-9-2 1-3 0-2 3 1 3-2-1-2-3 0-4-1-7 1l-6-2-6 1c-2-1-6 1-8-2 7 0-1 0 5-1 4 0 2-3 5-3 4 0 3 0 3 2 1 0 4 2 5 0-1-3 1-3 5-3 2-1-1-1 2-3-2-2 8 2 1-2 1 3 20 1 10 1-4-1 1-4 1-2-7 0-2-1-8-2-3 0-8 1-6-1-1-1 4-1 3-3l-7 1h-6c-1-3 10-1 3-3 6 1 3-2 3-1 3-2-3-2-7-2 0 0-5 0-4-2-1-2 8-2 6-1 0-2 4-3-2-3-2-3 3-7 2-5 3-1 2-4 4-2 3 1 6-1 5-1 1-1 2-2-2-2 0-2-8-2-6-1-3-2 4-4 2-3 2-2-2-1-1-2 0-1-9-4-1-3 1-1-5 0 1-1 3-2 5-4 1-4-1-3-5 2-6 0-6 3-3-1-6 0-5 0-4-3-4-2-8 0-4-2-4-4l6-3c2 0 4-4 0-3 1-3-6 1-7-1 3 0-2-3 3-3 2-2-2-6-1-4-4-1-4-3-2-3 0-2-7-3-6-2-1-1-1-3 2-4 2-1-2-3 2-4-1-1 6 0 4-2-2 0 3-2-1-1l-6-1c5-2 3-3 7-3l4-2c1-1-2 0 0-2-10 0-5 0-7-1 3-2 2-3 4-3 4-3-3-2-1-4l4-3-3-3c-3 2-7 2-4 0 2-2-2-1 3-3-1 1-1-2-4-1-2 0-5 0-4 1-1 4-1-2-2-1l-2-3-4-1c-2 2-6 3-2 5-1 1-6 3-6 1-2-1-4 0-5-3-3 2-8 1-6 0 2 3-1-2-1 2l2 3c1 3-6 3-3 3 2 2-1 5-1 3-2 0-3 3-3 2 1 1 5 4 1 3 1 1-3 3-3 2 0 0-3 1 1 3 2 0 5 2 3 2-4 2-8 1-4 3 1 2-2 1-5 2s4 5 1 4c4 4-2 3-3 1l-5 2c-2 2-1-1-7 0-1 2-5 1-4 0-3-2 1 1-4 1l5 1c-3 1-3 3 1 2 3 0 4 4 3 2 1 3 5 1 2 3-2 1-3 3 0 4-5 1-2 1-6 3 1 1-5 2 1 2 2 3 4-2 5 0h7c-2 2-4 4-2 4 1 2 2 3 4 2l8 3c5 2-1 5-3 2 2 3-6-3-6-2-3 0-2 0-5-2l-8-3-8-2c-1 1-1 5-2 3 6 2-7-1-7 0-3 0 1 3-2 3l6 2c4 1 3 4 7 3 1 1 10 1 1 2 0 4-4-1-5 1-3-3-7 0-6-1 0 0 4 3-1 3l-4-2-3-2c0-1-5-2-6 0-2 1-7 0-6-1-6-4-2 2-5 0 2 1 0 2 5 3-1 1 6 1 0 2-2 0-4 0-5 2 4 1 7 3 6 1l5 4c-6-2 6 4-4 0 6 3-3-1-5 1-3 1 5 1-2 1 4 1 0 3 5 2l8-1c-3 2 2 1 2 0 2 1 1 4 2 2 0 3 2 1 1 4l3 1c6 3-5 1 1 3 0 3-4 0-5 1-3-1 0 2-5 1 4 2-1 6 0 4 3 2-5 5-2 3-5 0-4 3 0 2 5-1 3 1 6-1h7c2-1 3 1 8 1 0 2-4 3-1 5 0-1-3 2-6 1 0 2-7-1-6 1-1 2-2 3 3 3 4-1-5 3-1 3 3 2-8 1-5-1-2 0-5-4-3-3-2-1-2 2-3 1-1 2 3 3-1 3l-7-2c-4-2-3 1-3 2-4 0 6 1 2 2l4 2c6-2-2 4 0 2-5 0-5 2-5 2 1 2 4 0 6 2 5-1 0 4 10 3-7 1 7 0 1 1-3 1 2 3-5 4-2-2-10-1-4 1-4 1-7-1-9-2-3-1-6 1-5 1h-5l-8-1c3 2-4 2 2 4 0 0 9-1 5 1 5 0 2 0 5 2-8-1-6 1-11 1h-6c-4 1 1 3 1 2 6-1 0 1 6 2-1 1-5 4 1 3 4 0 4 0 6-2l9-4c-2 1 2 3 4 1l11 1 7 1c-2 3-4 1 0 4l10-1c2-2 2 0 4 0l-5 1c-6 0-4 3-5 3 5-1-3 4-1 3-2 1-3 2-6 0l-7-1c0-1-4-3-7-2 0 2 5 4 3 3-2 3-9 1-5 1l-7 1c1-2-1 7-3 2-1 1-2-2-5 0-1 2 4 4 2 3 3 2 3 1 3 3 4-1-1 3-2 1-2 1-5 1-2 2 1 2 6 3 6 1 5 0 3 2 2 2 4 1 6 0 6 2 2 2 9-1 7 2 1 0 5 2 1 2-2 1 1 3-3 2-3-3-1 2-5-2l-6-1c-6-3-4 0-6-1-5 0 2 2-4 1-6 0-5 2-8 2l-10 1c-5 2-4 3-5 2 3 0-10 4-3 2-3 1-2 3-1 3-6 0-4 2-2 1-2 3 9 0 9 2 7 2-1 3 1 2 0 1 5 3 3 3 2 2 18 1 14 1 4 0 0 1 4 3 7-2 1 2 5 1-1 2 2 1 6 1 4 2 5 1 4 2 0 1 2 3-2 2l-5 1c-3 1 5 3-1 2-3 1-4 3 0 3-3 1-2 2-6 0-2-2-4 0-6-2-1 1-4-1-5 1h-7c-2 0-4 3-4 3h-8c-3 0-2 3 2 2 3 2 1 2-2 3-4 0-3 3-2 2 3 2 7 0 3 3-4 0 1 3 0 2h8c3 0 6 3 4 3 4 0 5-2 9-3 2-1 4 0 3 1 2 0 5 1 7-2h6c3 1 3-1 6-1 2-3 6-2 4 0 3 2 0 2 0 3 2 0-2 3 7 1l6 1c4-2 5 2 6 0-1 2 5 5 3 4 3 0 3-2 3-3-3-2 3-5 1-2 3-1 6 1 4 1 2 2 4 0 4 0 4 2 0-2 3-2 1-1 5 1 4 3 2 0-1 1 3 2 3-1 6 1 4 3 1 2 3 4-1 4-4 2 1 2 13 2 8-1 24 1 22-2-1-1 1-3-1-2-4-3 3-2 3-2l6 1h9c-4-2 6-1-1-2 6 0-5-1-3-1 6-1-9-3-1-3h6c6 2 10-1 14 1 9-1 4 4 4 3 1 0-4 2 1 2-5 1 0 1-2 3l4 3c5 0-1-3 5-3 4 1-1 1 5 4zm-107-16c1-3 2-2 5-1 1 1-6 1-5 1zm73-11c-5 0 1-3-1-2 1-2 2-2 5-2 6-1 1 6 0 3l-4 1zm-94-2c-3-1-3 0-5-2-4-2-7 0-4-3l7 2c4 0 5 4 2 3zm31 0c-8-2-1-3 1-1l-1 1zm108-8c2-3 8-2 3-1l-3 1zm-12 1c-3-4 6 0 0 0h-1 1zm-81-7c-2-3 8-2 4-1-3-1-2 1-4 1zm66-12c-6 0 4-4 0 0zm-36 0c-1-2 5 0 0 0zm-6-2c2-1-4-1 1-2 2 1 7-1 2 2h-3zm-80-2c2-2 0 1 1 0h-1zm85-1c-3 0-3-4 3-1l-3 1zm8-30c-7-1 8-3 1-1 2 1 0 1-1 1zm4-2c-5-2 6-3 5-1-1-1-3 2-5 1zm-44-7c4-1 0 0 0 1v-1zm63-5c-5 0 2-8 0-4l7-2c6 2 11 1 10 2 3 2-1 1-4 2l-11 2c-2 0-1 2-2 0zm0-13c-4 0-1-4 0-1 2 2-1 0 0 1zm-63-5c-7-2 1 1 2 0h-2zm43-4c-5 0-2-3-1-3l4-2c4 0 8 0 4 2-3 1-2 2-5 2l-2 1zm21-3l-6-2c-2-2-1-2 1-2 6 0 8 3 6 3 0 0 3 1-1 1zm-74-3c-2-3-5 0-5-3l7 1c2 0-2 3-2 2zm-11-18l-4-2c-4 0-7-2 0-3-1 3 6-2 4 2 4-3 3 2 2 2l-2 1zm19-2l-9-2c2-2 4 0 8 0 1 0 6 2 1 2zm49-45c2 0 5-3 3 1 6-3-7 2-3-1zm-21-3c1-3 6-2 0 0z"/><path fill="#000" d="M1292 269v1h-1-1l-1-1h-2-3l-2 1h4l1-1h1l1 1h1v1h1l1-1a2 2 0 0 0 0-1zm28 59l-1 1v1h5v-1h-1-1-1-1v-1zm-55 65v3c-1 2-2 2-4 2h-2c-4 0-4-1-4-4a23 23 0 0 0 0-2l-2-1-1 1h-1l-2-1 5-4v-1l-3 1-1 2v1h-2l-1-1-1 1c-1 2-2 2-2 1l-1-1v-1h-2-1v1h-4v-1h-1v-1h1v-1-1-1-2-1l-1-2h1-1l-2 1-1 1v1h1v3l-1 1h-1-2l-1 1 1-1h-1-1v1h-1v1h-2v1h-1l-1-1-1-1v-1l-1-1h-1l-1-1-1-1h-1v1h1v1l1 1-1 1v2l-3-1h-1l-1 1v1h-1-1-2-1-1l-1-1-1-1v-1l-1 1v1h-1l1 1h-2l-1 1h-1v1h-1l-1-1v1h-1-1l-1 1v-1-1h1v-1-1h1a2 2 0 0 0 1-1v-1l1-1h-1-4l-1-1-1 1h-1-1l1-2 1-1 1-1h0v-1h1l1-1 1-2v-1l1-1 2-1 1-1v-1h-1l-1-1-1-1-1 1h-1v1l-2-1 1-1v-1h-2l-2 1-1 1h-1v-1l1-2 1-1 1-1 1-1a7 7 0 0 1 3-1l1-1h1a3 3 0 0 0 0-1h-3-1v-1l-1-1h-2l-1-1-1 1h-1c-2 0-2-1-2-2 0-2 0-2-1-1h-1l-2 1h-3-1c-1 1-2 0-1-1a32 32 0 0 0 0-1h-1l-1 1-2 1-1 1-1 1v-1-1-1h1v-1l1-1 1-1 2-2h1l1-1 2-2 3-1 2-1h2l3-2 1-2v-1h-2l-1-1 1-1v-1h-1l-2 1-3 1h-1l-2 1h-2-1l-2-1h1l1-1 1-1v-1h1v-1-1h1l1-1 1-1 4-3 2-1h1v-1l1-1 2-1 4-2a7 7 0 0 1 2-1l2-1h1l1-1h2l1 1v-1-1-1l1-1 1-1h1l-1-1h-1l-2-1-2 1h-2-3l-1-1v-1l2-1 3-1h3a10 10 0 0 1 3-1h2l-1-1-1-1v1h-1l-1 1h-1l-1-1-1-2h1c-1 0 0 0 0 0l1-2h-2v-1h-4c-1 1-2 0-1-1v-1-1-1-1l-2 1-5 2c-1 1-1 0-1-1v-1l1-1 2-1a2 2 0 0 1 1 0l1-1v-3l-1-1 1-1h1v-1h1l1-1h1c-1 0 0 0 0 0l1-1a17 17 0 0 0 0-2v-1h2v-1-1a100 100 0 0 0-7 3l-1-1 1-1 1-1 1-1-1-1h-1-3-1v-1l1-1h1a6 6 0 0 1 2-1h2a5 5 0 0 0 1 0 12 12 0 0 1 1-1h1l1-1v-1l2-1 3 1 1 1h-1v1l1-1h2l2 1a3 3 0 0 0 2 1h1l2-2h1l1-1v-1h1l1-1h1l2 1h2l1-2v-1h-1l-1 1-2-1h-1l-1-1v-1l2-1h-1l-2-1c0-1-1-2-3-1l-2-1 1-1h1l1-1h1l1-1 1 1a22 22 0 0 0 1 0h1a2 2 0 0 1 1-1h-1l-2-1-3 1h-1-4v-1-1h1v-1-1l2-1h1l1-1v-1h-5l1-2v-1h-8v-1l1-1v-1h1v-1h1l2-2h9a1 1 0 0 1 0-1l1 1a10434 10434 0 0 1 8 1l3 1h2l1 1h2l-1 1a1 1 0 0 1 0 1h1v-1l1-1h1v-1h-3c-3 0-3-1-3-2l1-2 4 1h1a5 5 0 0 1 1 1v-1h1l1-1h2l1-1h2v-1-2l-1-1h-4c-1 0-1 0 0 0v-2l1-1 1-1h-4-1l-5-1-3-1-1-1h1a6 6 0 0 1 0-2l-1-1-2-1v-1h8a26 26 0 0 0 5 1 6 6 0 0 1 1 0v-3-1h-1v-1-1h1l1-1 1-1 1 1h2a63 63 0 0 1 4 0h2a76 76 0 0 0 4 1l2 2v-1-1-1l-1-1-1-1-1-1-3-2-4-2h-1l-1-1-1-1-2-2-2-1v-1h1l1-1 1 1a41 41 0 0 1 6 3h1l1 1 2 1 1 1h1l-3-2h-1l-2-2-1-1h-1-1l-1-1v-1l-1-1-2-1-1-1v-1l-4-3-1-2v-1h1l2 1 1 1v1l1 1h1c0-1 0 0 0 0l1 1v1h2l1 1 1 1 1 2h2v1h1v1h2l1 1h2a43 43 0 0 1 2 1 6 6 0 0 0 0-2 3 3 0 0 1 0-1v-3-4-2a115 115 0 0 0 0-5v-1a47 47 0 0 0 0-7 71 71 0 0 1 0-8v-1-1-1l-1-1 1-1v-1l1-1h2v3h1v1l-1 1v1a85 85 0 0 0-1 3v2a69 69 0 0 1 0 14 1 1 0 0 0 1 1v1l-1 2v4a51 51 0 0 0 1 9l4-2h3l2-1h2a17 17 0 0 0 4-1l1-1c1-1 1-2 2-1l1-1 1-1h1l1-1h1l1-1 1-2h2v2l-2 1-1 1-1 1h-1l-1 1-2 1-1 2h-2l-1 1-1 1a133 133 0 0 1-5 1l-1 1h-1-5l-1 2-1 5a31 31 0 0 1 1 0h1l2-1 1-1 1-1v-1h2v1h4v1a10 10 0 0 1 1 0v1h4l1 1-1 1h-1-1l-1 1h1l2-1h5v-1h2s0-1 0 0h1v-1l1 1-1 1 1 1h1l1 1h-1l-2 1-4 1-1 1h-2v1h1l-1 1-1 1h-6l-1 1-1 1s-1 0 0 0a21 21 0 0 0 2 0h3c0-1 0-1 0 0a2 2 0 0 0 1-1h2a2 2 0 0 0 1 0 9 9 0 0 1 2-1h1v-1h4v-1h1a4 4 0 0 1 2 0 5 5 0 0 1 1 0h3v1l-2 1-3 1a42 42 0 0 1-3 1h1a41 41 0 0 0 2 1c2 0 3 2 2 2v1h-1a122 122 0 0 1-8-1h-1l1 1-2 1-1 1h5v2h-1a5 5 0 0 0-2 1h1v2a24 24 0 0 1 4-1h1a20 20 0 0 1 4-1h7l-1 1h1v1a8 8 0 0 1-2 1h1l1-1h8v1l-1 1-1 1 1 1 1 1h1l2 1 1-1h1l1 2h-1l-1 1h-1v1h1l-1 1v2h4v1h3v2h-2-4v2h-1l-3-1-2-1-2 1-2-1v1h-3v1h1l2 1 2 1 2 1 1 1 9-1 2 1h2l1 1 1-1h1v1h2v2h-1-1l-2-1h-1-10l1 2h2v1a15 15 0 0 1 2 1v1h-1a127 127 0 0 0-10-2h-1l2 2v1h-2l-1-1h-1l-2-1v1a2 2 0 0 1-1 1l3 2v1l1 1h1l3 1h2l5-1h4v1l-3 1-3 1-2 1h-2l-2 1h-1v2h2l1-1h3l3 1h2l2-1 3 3h1l4 2v1l1-1v1h1l1 1 1 1h1l2 1v1l1 1v1h-2a19 19 0 0 0-8-4h-1a27 27 0 0 1-2-1l2 1 1 1 1 1 1 2v1c1 0 1 0 0 0l1 1 1 1h1v2c0 1-1 1-2-1l-2-1h-1v2l1 1a655 655 0 0 0 4 6v1l1 1v1h-1l-2-1-1-1h-1l-1-1h-1-5l-2 1-1-1-1-1h-2l-1 1 2 1c0-1 0-1 0 0h5l1 1v-1h1l1 1a1 1 0 0 1 1 0h2l2 1v1l-1 1h-2-1v1h-2-1-1l1 1 4 2c0 1 0 2 2 3l1 1 3 1 2 1h1v1h2l1 1 1 1v2h-1l1 1 2 1 1 1 2 1 1 1 1 1-1 1v1h-3 1v1c1 0 1 0 0 0v2h3l3 1 2 1 3 4h1v1h1l1 1h1v1c1-1 1 0 2 1l1 1v1h-1l-4-1h-1-1 1l1 1v1a1 1 0 0 1 1 0v1l-2 1-2 1h-3l-1 1h-2l-1 1 1 1h1l1 1 1 2h1l2 2v1h1v1h-3l-1 1v-1h-1-2l-1-1-1 1a2 2 0 0 1-1 1h1v5h1l1 1 1 1 1-1 2 1 2 1 1 1h1v3l-1 1-2 1v1a36 36 0 0 1 3 1v1l1 1-1 1-2 1-1-1h-1l-1 1-1-1h-1v-1l-1 1v4h-1l-1-1h-1l-1-1h-1l-1-1c0-1 0 0 0 0l-1 1h-1-3l-1-1-1-1-1-1v-1h-1l-1-2-1-2v1a15 15 0 0 0 0 1v2l-1 1h1l3 2v1l1 1v1l-1 1h-1-3l-1 2h-1l-1-1h-1v-2a95 95 0 0 0-1 0l-1-1-1 1-1-2 1-1h1l1-2h-2-1l-2-1h-1-1l-1-1h-2-1v1l1 1v1h-1v1h-1-1c0-1 0 0 0 0l-2-1v-1-1h-1v-1h-1v-1l-1 1-1 1h-2-1l-1-1h-1v-1h-2a4 4 0 0 1-2 0v1l1 1h-1v1h1l-1 1h-1l1 1 1 1h-1l1 1h-2-1-1l-1 1-1-1v-1-1-1h-1c-1 1-1 0-1-1h1c-1 0-1 0 0 0h-1-1l-1-1h-1l-1 1h-1-1-1v1l-1 1-1 1h-2l-1 1h-1l-1 1-1 1zm-24-159h1v-1l1-1 2-1h1l1 1h2a12 12 0 0 0 2 0h2l-1-1-2-1-2-1h-2-2l-2-1v3l-1 1v2zm70 82v-1 1zm24 56v1h1a1 1 0 0 0-1-1zm-46-100h-1l-3-1-3-1h1l2 1 2 1h2zm-89 102zm10-59l1-1h4l1-1h3l2-2h1v-1l-1-1v-1h-1l-1 1h-1l-1 1h-1-2l-1 1h-2l-1 1v1l-1 1 1 1zm75-30h-1l-2-1h-3l1 1 2 1h2l1-1zm4-2zm-12-9h-4l1 1h2l1-1zm-43-2l1-1h4l-1-1h-2l-1 1h-2l1 1zm8-1h-1 1zm-2-16h-1-1v1h2v-1zm-1-3l-1-1v1h1zm2-1h-1v1l1-1zm15-13l-1-1h-3-1l2 1a10 10 0 0 1 2 1 13 13 0 0 0 1-1zm4-9h1-1zm-35 158zm47-2l-1-1h-1l1 1h1zm62-17h-1 1zm-13-75zm-8 96v-1l1 1h-1zm-42-158c-7 3 3-7 0 0zm-14-8c-3 2 0-4 0 0z"/><g fill="#1C241E"><path d="M1012 398c4-1 4-1 4-5v-3l2-1h2c2 1 2 0 1-1l-2-2-2-2v-2l3 1 1 2v2h2l1-1 1 2c1 2 2 2 2 0h1v-1-1h3v1l2 1 2-1 1-1v-1l-1-1v-2-2-4-2c0-1 0-1 0 0h1l2 1v1l1 1c-1 1 0 1 0 0v3l-1 2 1 1v1h3v-1h1l1 1 1 1v1h1l1 1h1l1-1 1-2v-1h1l1-1 1-1 1-1h1v1l-1 2v4h5v1l1 1h5l1-1 1-2v-2l1 2v3h2l1 1h1v1h1l1-1v1c0 1 1 2 1 0l1 1 1 1v-1-2h-1v-1-1l-1-1-1-2-1-1 1-1h4l1-1 1-1-1 1v1h1l1 1h1l-1-3-1-2h-1l-1-1h1v-1h-1v-1h-1l-1-2v-2l-2-3-2-1 1-1 1-1 1-2 1 1 1 1c1 1 1 1 2-1l-1-2h2l2 1 1 1h1v-3l-2-2-1-1-2-1-2-2-2-2 1-1h3v-1l1-2h4l1 1c2-1 2-1 2-3l1-2 1 1 2 1h4c1 2 2 1 1-2l1-1 1 2 2 1v1l1 1h1l-1-4-1-1v-1l-2-2-4-4-1-1-4-3c-3 0-5-1-6-4-1-1-2-1-1-3h2l1-2-1-2h1l2 1 3 1 1 1 2 1h3c0-1 0-1 0 0s1 1 2-1l-2-2-1-1v-1l-1-1-2-4h-1l-1-1-1-1-1-1-1-1-1-2-3-2h-1l-1-1v-1h-1l-2-2-2-1-3-1-2-2-2 1-1-1v-1-1l-3-4h1l1-1 2-1 2 1h5l1-2c0-1-1-2-4-2l-4-1h-2l-1-1h-1-1l1-2 1-1v1h1l1 2h1l1-2 1-2-1-1-1-1 2-2h4c1 0 2 0 1-2v-1-4l2 1 5 3c1 1 2 0 1-2v-1l-2-1-1-1-2-2v-3-2l-1-1v-1l-1-1h-1v-1h-2v-3l-1-2-1-2v-1a88 88 0 0 1 7 4l1-1-2-2-1-1 1-2 1-1h3l1 1v-2h-1v-1h-1l-2-1h-2a66 66 0 0 1-3-1l-1-1c0-2-1-3-2-3h-2c-1 1-2 2-1 3h-1-1l-3 1-1 2-2-2-2-1-1-1-1-2c-1-1-2-2-3-1l-2 1h-2l-1-3v-2l1 1h3l1-1 1-1-2-2v-1h1l2-1c0-1 1-2 3-2l2-1-1-1h-1v1-1l-1-1h-1l-5-1 1-1h5l1 1h4v-2l-1-2c0-2-1-3-2-3l-2-1v-1-1h1l2 1c1 1 3 0 2-1l-1-2v-1c-1 0-1-1 1-1h7v-1l-1-1v-1l-1-1-1-1c0-2-2-2-3-2h-1l-4-1h-2-2a8453 8453 0 0 0-5 1l-3 1-2 1h-1l-1 1h-2c-1 0-2 1-1 2v1l-1-1-1-1-1-1 3-1c3 0 3 0 3-2s0-2-2-2c-2-1-5 1-5 2l-1-2-1-1h-1l-1-1h-3v-4l1-1h4v-2l-1-2c-2-2-1-3 3-2h1l5-2h3l1-2-1-1v-1c-1-1 0-1 1-2l2-1-1-1-4-1-3 1-2 1h-3l-1-1v-3-1l1-1v-1l-1-1c0-1-1-2-3-2v1c0 1 0 1 0 0h-5-3l-2 1h-1l-2 3h-1v-1-1-2l1-1 1-2 1-1v-1l3-1 4-3 1-1 1-1 1-1v-1l2-1 2-1v-2h-3a659 659 0 0 1-2-1l1-2 2-1 1-2v-1l4-4 1-2-1-2-2 2v1l-1 1-1 1h-1v1l-1 1-1 1-1 1-1 1-1 1-1 2-1 1h-1l-1 1v1h-2l-1 1-1 1h-1v1c-1 1-2 0-2-2v-3a168 168 0 0 1 0-19v-9l-1-9 1-2v-3-2-2c-1-2-1-2-2-1-1 0-2 1-1 2v1l-1 1 1 1 1 4v24 1a129 129 0 0 1-1 21v-1l-2-1-4-1-1-1-3-1-4-1h-1l-1-2-3-1v-1l-1-1-2-1-1-1-1-1c0-1-2-3-3-2v2l2 2 1 1 1 1h1l1 1v1l2 1 1 2 2 1 1 1 1 1 5 1 1 1h3l5 4v6h-3l-1-1-1-2-1-2h-1l-1 1v1-1-1l-1 1h-1-1l-1 1-1 1-2 1c0-1 0-1 0 0h-1c-1-1-2 1-1 2h2l1 1v1h-1-1l-5-2-1-1h-2-2l1 1 1 1h-1-1l-1 1v1c-1 1 0 1 2 1l4 2h2v1h1v2l1 1 6 1 1 1 1 1v1h-3l-2-1h-1l-2-1-3-1v-1h-2l-1-1h-1l-3-1h-2-1l-2 2 2 1 3 1a36 36 0 0 0 3 1l-2 1c-2 0-3 2-3 3v1h1a94 94 0 0 0 8-1h2l-1 1c-1 1-1 2 1 2l1 2-1-1h-3l-1 2 1 1h1l1 2-1 1h-1l-8-2-1 1-1-1h-5l1 1h-1v1l1 2c1 0 1 1 0 0l-2-1h-1l-2-1-3 1h-1l1 3 1 1-1 2-1 1h-3-1c-1 0-2 1-1 2l1 1 1 1v5h-3-1v1h-1-1l-1 1v2h2l2-1h2v2c0 2 0 2 1 1l3-1 2-2v1h4l1 1c2-1 2 0 1 2l-2 1-2 1-2 2h-2a105 105 0 0 0-10 0h-1l-1 1h-1-3v1l-1 2h2l2-1h1l3 1 7-1-1 2-3 2v1 2l3-1 7-2h1l-1 1-1 2c0 1 1 2 2 1l1-1h1l2-1v1l1 1-2 2-2 2-1 2h-6a46 46 0 0 1-3-1h-2c-1-1-3 0-3 2l3 1 3 1 2 1h2l2 1h1v4h-1l-1-1c0-1-2-2-3-1h-1-1l-1 1h-1l-2 1-1-1-2 1-2 2-1 1-2 1-1 1-2 1h-1v1l-1 1-1 1c0-1 0-1 0 0h-1l-2 2-1 3h2l7-5h1l1-1 2-1v1l-1 1-1 1h-1l-1 1-1 2v2c-1 0-1 0 0 0l-1 2h-1l-1 2v1c0 1 1 1 2-1l2-1h1v-1 3l-1 1-1 2h-1v3l-1 3-1 1-1 2 1 2 2-1 1-2h1l1-1v-1h1c0 1 4 2 5 1h3c-1-1 0-2 1-1v-1c1-1 2 0 2 1l1 1v1h-4-2l-1 1h-1-1-2-1c0 1 0 1 0 0l-2 1-1 1 1 2c1-1 3 0 3 1v1l2-1h1l1 1 1-2v-1c0-1 0-1 0 0 1 1 0 4-2 4l-3 3-1 2-1 2-2 1-3 1-1 1-2 1v1h-1l-1 1-2 2v1l1 2-2 1-2 3-2 1-1 1v3h3l-1 1v4h-1l-2-1-3 2-2 2-3 5-1 1-1 1h-1l-1 1-2 2-1 2h1l4-2h1v2l-1 1v1l-1 1c1 1 1 2 2 1v1h4l1 1h1v1h2l1 1-1 2-4 4v1l-2 2v1l-1 1h7l1-2 1 1 1 1-1 1v6h-1v1l-1 1-1 1-1-1-1 1-1 1-2 1h-1v1l-1 1v3l1 1 2 1 1 2h-1l-2 1-2 2 1 2 2 1 1-1h1l1 1 1-1 1-1 1 1v1c1 0 1 0 0 0v4h1l1-1h1l1-1h1l1-2c0-1 0 0 0 0l1 1 1 1 1-1h3v-1l1-2 1-1v-1h1l1-2v-1l1-1v2l1 3-1 2-1 1h-1l-1 2v1l-1 2 1 1 1-1h2l1 1 1 1v1h1l1-1h1v-1l1-2 1-1 1 1 1-2-1-2-1-1-1-1h3l2-1h2l1-2h2l1 2v1 2h2c0-1 0 0 0 0 1 1 2 0 2-1v-1-1l1-1v-1l1-1 1 1 1 1h3l1-1 1-1c0 1 0 0 0 0h4v2l-1 2h1l1 1-1 2a271 271 0 0 1 1 2h2l1 1 1-1v-3-1h1c1 1 1 0 1-1v-1h2c0-1 0-1 0 0h2l1 1h1l1-1v2l1 2h1l2 1h1l1 1 1 1 1 1v2c0 4 1 5 4 5h2zm34-15zm-47-1v-1c-1-1 0-2 1-2l1 2h-1v1h-1zm71-16h1v1l-1-1zm-135-1v-1l1 1v1l-1-1zm2-6v-1l1 1h-1zm2-12h1l-1 1v-1zm9-38l-1-1h1l1-1h2c-1-2 0-2 0 0 1 1 1 2-1 2h-1-1zm8-9l1-1v1h-1zm104-12l-3-1h-1-2l-2-1-2-2h-1v-1l1-2v-1h2l1 1 1 1 1 1c0 1 2 1 2-1v-1 1l1 1c1-1 1 0 2 1l1 1v1l1 1v2l-2-1zm-110-27v-1 1zm37-10v-2l2-1h4l-2 1-2 2h-1-1zm-5-2v-1-1a323 323 0 0 0 2 0c1 2 0 4-2 2zm13-13l-2-1h5l-1 1-1 1-1-1zm-14-4v-1-1l1-1h2l1 1 1-1h3l-1 2h-1l-3 1h-3zm53-1h-2l1-1h3l2 1-1 1-3-1zm-5 1l1-1v1h-1zm-50-2v-1 1zm53-19h-1l1-1 1 1h-1zm0-4l1-2v1l-1 1zm-2-2l1 1h-1v-1zm-29-1l1-1-1 1zm14-16l1-1h4l-1 1h-4zm14-5v-1l-3-3h-1l-2 1h-2-1-2l1-1 2-2 2-1h2l1-1h3v3l1 1v2l1 1-1 1h-1zm-28-5v-2l1 2h-1zm9-2v-1l1 1h-1z"/><path d="M1013 398l2-1v-4l1-4h3l1 1c1 0 2-1 0-2l-2-2-1-2v-2h1c2 1 2 1 2 3l1 2h2v-1l2 2 1 1 1-1v-1l1-1h1c1-1 1 0 2 1l1 1 2-1 1-2v-1l-1-1v-2-3-1l1-1-1-2h2l1 1 2 2v1l-1 1v3l1 2h2l1-1h2c1 0 1 0 0 0v1h1c1-2 1-2 1 0v2l2 1-1-1 1-1 1-1 1-1 1-1 1-1 1-1 1-1v1l1 2h-1v1l-1 2 1 1 1-1-1 1v1h2c0-1 0-1 0 0h2l1 1v1h5l2-2v-1-1h1v1l1 1c0-1 0-1 0 0v2h1l2 2h2v-2l1 1 1 1v-2-1l-1-1-1-1v-2-1h2l1 1 1-1 1-4-1-1v-1l-1-1-1-2v-2-1l-2-1-2-2-1-1v-1c0-1 0-1 0 0h3l2-2 1 1 1 1v1l1-1v-2l-1-1h3l2 2c1 1 1 1 1-1v-1l-4-4-3-3-2-2 1-1h3v-1l1-2h4c1 2 1 2 2 0l1-2v-2h1l1 1 3 1c0-1 0-1 0 0h3c1 1 2 1 1-1 0-2 0-3 1-2l1 1 1 1 2 3h1l-1-3v-1l-1-1v-1l-3-3-1-1-1-1-2-2-4-2c-2 0-5-2-6-4l-1-3v-2l2 1h1v-2l-1-2 4 1h2l3 3h4l-1-3h-1v-1l-1-2-2-3-1-1-4-4-2-1-1-2-2-1v-1h-1l-1-1-4-2-3-2-1-1h-2c-1 1-2 1-2-1v-1-1l-1-1v-1l-1-1v-1l1-1h6l3-1h1c1-2 0-3-4-3h-3l-2-1-2-1h-1-1l1-2v-1h1l1 1 1 1 1 1 1-2v-3l-1-1 2-2h1l1-1h2c-1-1 0-1 0 0l1 1v-2-1-2-2l4 2h2l1 1 1 1v-2-1h-1l-2-2c-1 0-3-2-2-3v-1l1-1v-1l-1-1-1-1v-1h-1l-1-1c1 0 1 0 0 0l-1-1-1-3-1-2-1-1v-2h1a567 567 0 0 1 5 1l-1-1v-1l1-1 2-1 1-1-1-1h-1l-1-1h-2l-2-1v-1l-2-3-3 1-1 2h0-2l-2 2-2 1-2-1-2-2-1-1-1-2-2-1-2 1c-2 1-2 1-3-1l-1-2c-1-1 0-3 1-1h3l1-1 1-1-1-2-1-1h3l1-1 1-2h2l1-1h-2l-1-2h-1l-1 1c0 1 0 1 0 0l-2-1-1-1h-1l1-1 3-1h1l1 1h1l4 1v-2l-1-2c0-2-1-3-2-3l-2-1v-1-1h1l1-1c-1 0 0 0 0 0l1 2h2c1-1 0-1-1-3l-1-1 3-1h5v-2-1l-1-1-1-1c0-1-1-2-3-2h-6-1-1-1l-2-1-3 1-2 1-3 1-1 1h-1-1l-2 2h1v2h-1l-1-2c1-1 0-1-1-1l-1-1 3-1 3-1v-3c-1-1-5 0-6 2h-1v-2h-1-1l-1-1v1h-1v-1s0-2-1-1h-2v-3-3h3l3 1-1-4-2-2h2a427 427 0 0 1 3 0c1-1 2-2 5-2s4-1 4-2l-1-1v-2l2-1 2-1c-1-2-4-2-8-1l-3 1h-3c-1 1-1 1 0 0v-2-3-1c-1 0-1 0 0 0v-1l-1-1v-1h-4l-1 1-1-1-1 1h-1l-1-1h-1a56 56 0 0 1-3 1h-1l-2 2-1 2v-3-2l1-2 5-5 4-2 1-1 1-1 1-1 1-1 2-2 1-2v-1l-2 1a39 39 0 0 0-6 4h-1l-1 2-2 1-1 1h-1l-1-1 3-2 1-1 2-1 2-2 2-1 1-1c-1-1 0-2 2-3l1-3 1-1 2-2 1-2 1-1v-2l-2 2c0 1-2 4-3 3v1h-1v1l-1 1-1 1-1 1-1 2-1 1-1 1h-1l-1 1-1 1h-1l-1 1-1 1-3 2v-3-3l-1-6v-6l1-6-1-1v-12-9-1-2l1-1-1-2-1-2-1 1v2l-1 1v1l1 1v2a148 148 0 0 1 1 6 114 114 0 0 0 0 18l-1 2v1l1 3v12l-1 6-1-1-2-1-3-1-2-1-3-1-3-1h-1l-1-2-3-1-1-1-1-1h-1l-2-2v-1l-3-2v2l2 1 1 1 1 1 1 1 1 1 2 2 1 1 1 1 2 1 6 3v1h4l2 1 2 2 1 7h-3l-2-1-1-3-1-1h-1v2l-2-1h-1-1v1l-1 1-2 1-1-1v2l1 1 1 2h-1-1l-2-1-1-1h-1-1-1l-1-1h-1-1v2l-1 1h-1l-1 1 2 1h3l1 1h2l1 1h1v2l-1 1 2 1 5 1 2 1 1 1 1 1s1 0 0 0h-5l-2-1c0 1 0 0 0 0h-1l-1-1-2-1-2-1h-1l-1-1h-2-1l-3-1h-2l-1 1 1 1 5 2h1l1 2h-2l-1 1c-1 0-3 2-2 3h1l4-1c6-1 6-1 5 1v2c2 0 2 1 2 2h-1l-3-1-1 2 1 1c2 0 2 0 1 1v2l-1 1-2-1-6-2-1 1h-3-1l-2 1 1 1 1 1h-2-1l-2-1h-5c-1 1 0 2 1 3 2 1 2 1 0 3h-1l-1 1-2 1-1-1h-1l-1 2 1 1 2 1v1l-1 1 1 1v2h-2v1-1h-1l-1 1c0 1 0 1 0 0h-1-1v1l-1 1h6v3h1l5-3v1h6l1 1-1 1-2 2-2 1-2 2h-10l-2 1h-1-1v3l3-1h6l1 1-1 2-4 2 1 2 2-1a47 47 0 0 0 10-3l-1 1-2 3 2 1c2-2 3-3 4-2l1 3-3 2v1l-1 1-1 1-3 1h-2l-5-1v-1l-3 1c-1 1 0 2 1 2l3 1 3 1 5 1v4h-3c0-2-1-2-2-2l-1 1c-1-1-2 0-3 1h-2l-2-1-3 3-1 1-4 3-1 1-2 1-1 1v1h-1l-2 1-1 3h1c1-2 7-5 7-5h2l1-1 1-1 1 1-2 1-1 1v1l-1 1-1 2v2l-1 1-1 1-1 1v2l2-2 4-3v1l-1 4-1 1a769 769 0 0 1-2 5l-1 2-1 1v2c-2 2-1 3 1 0l2-1h1l1-1v-1h1l2 1h5l1-2h1c1-1 1 0 2 1l1 1-2 1h-2-2l-1 1h-2l-1 1v1l-1-1h-1-1v-1l-2 2c0 2 0 2 2 2 1-1 2 0 1 1h2l2-1 1-2 1 2c0 2-1 3-2 3l-4 4c0 1 0 2-2 3l-1 1-3 2-2 1-1 1h-1l-1 1-1 1-1 1v1l1 2-1 1-2 1-1 2-2 2h-1v2l1 1h2l-1 1v1l1 1-1 2h-3c-2 0-2 0-3 2l-2 1-3 5h-1v1l-1 1h-1v1 1h-1c-1-1-1 0-2 1l-1 2h1l4-2 2 1-1 1-1 1v1l-1 1 1 1 1 1h4l1 1 1 1h3v1l-1 2-1 1-1 1-1 2-1 1-2 2v1l-1 1h4l1-1v1l1 1 1-2c1-1 1-2 2-1l1 2 2-1-1 2h-1l-1 1v1 2l1 1v1h-1v1l-1 1c0 1 0 1 0 0l-1 1-2 1h-2l-2 1-2 2 1 4 2 1 1 2h-1a32 32 0 0 0-3 2v1l1 3 1-1h1v-1l1 1h2v-1c0-2 1-2 1-1v1-1c1-1 1-1 1 1l1 2-1 3 1 1 2-2h1v-2h2v-1 2l1 1 2-1c1 0 2 0 3-2l1-1v-1l1-1v-1l1-1 1-1v-1c1-1 2 0 1 3l1 3-1 1-3 2v2l-1 2h3c1 1 1 0 1-1h1v3l2 1 1-1 1-1v-2l2-4h-1v-2h3l1-1h2l2-1v-2h1l1 1 1 2v2h-1l2 1h1c1 1 1 0 1-1l1-2v-1-1h1v-1l3 2h2l2-1v-1h1l1-1 2 1 1 1v1l-1 1 1 1 1 2-1 2h-1l1 1h3l1 1v-1-1-1-1l2-1v-2h1l2-1h1v1l2 1 1-1 1-1-1-1 2-1h2l-1 2-2 2v2h1l1 1 1 1h1l2 1 1 2 1 3 1 3 3 1h3zm55-13v0zm-128-28v-1 1zm-3-8l1-1 2-2v1l-1 1-2 1zm12-40h-2v-1l1-1h1l1-1h1v3h-2zm7-9v-1h1v-1 1c0 2 0 2-1 1zm103-11c-1-1-2-2-3-1l-1-1h-2l-2-1-1-1c-2-1-2-1-1-2v-2-1h3l1 1 1 1v1c1 1 2 0 2-1h1l1 1c0-1 0-1 0 0l1 1 1 1 1 1v2h1l-1 1h-2zm-73-38l-1-1 1-1 2-1h5l-2 2-2 1h-3zm-4-2l-1-1 1-1h2v3l-2-1zm1-7zm11-6l-2-2h3l1 1v-1h1l1 1-1 1-1 1-2-1zm24-3s0-1 0 0c1 0 1 0 0 0s-1 0 0 0zm-38 0v-2l1-1v-1h7l1 1-1 1-2 1h-2l-4 1zm56-1h-8l1-1h1l2-1h1l1-1 3 1 1 1c0 1-1 2-2 1zm-58-2h1v1l-1-1zm53-19v-1l1-1 1 1v1h-2zm1-5h-1-1v-1h3c0 2-1 3-1 1zm-31-2v-1l1 1h-1zm14-16v-1l1-1h2l1 1-1 1-2 1-1-1zm13-5v-1l-1-2h-3-1-1-5l2-1 2-2 1-1 2-1h5v4l1 2v2h-2zm-20-4h1-1zm-8-1v-2l2 2h-2zm10-2l-1-1 2 1v1l-1-1zm66 217v-2l-1 1 1 1zm-2-2v0zm-116-4h-1 1zm91-2h-1 1zm-4 0l1-1-1 1c-1 0 0 1 0 0zm36-1l-1-2h-1v1l2 1zm-122-93v-1c-1-1-2 1-1 2l1-1zm-8-31h-1 1zm131-10v-1h-1v1h1zm-130-19h1l1-1-1-1v1h-1-1v1h1zm4 0l-1-1 1 1zm22-33v0zm17-26v-1l-1 1h1z"/><path d="M1014 398l1-5 1-3 2-1 1 1c0-1 0-1 0 0h2l-4-5-1-3h2c2 1 3 2 2 3l1 2h2v-1l2 2 1 1 1-1v-1l1-1h1c1-1 1 0 2 1l1 1 2-1 1-1-1-2v-1-2-2-2-3h2l2 2 1 1v2l-1 2v2l1 1h3l2-1v1h1c1-2 1-1 1 1v1h1v-1h1l1-1 1-1h1l1-1v-1l1-1h2l-1 4v2h1l-1 1h3l1-1v1l1 2h4c2 0 3-1 3-3l1-2v1h1l1 1c-1 0-1 0 0 0l-1 1v1h1c1-1 1 0 0 0l-1 1h1l2 2 1-1 1-1 1 1h1v-1-1h-1l-1-2v-2-1h1l2 1 2-2v-2l-1-2v-1l-1-1v-2l-1-2-2-2-2-2h-1v-2h3l2-2v1h1l1 1h1l-1-2v-1a1075 1075 0 0 0 6 0l-3-3-1-1-3-2-1-2-1-1 2-1 1 1 1-2 1-1 1-1h1l1-1 1 1a2232 2232 0 0 1 3 0v-2-2h1l2 1c1 2 1 2 2 1 0-1 0-1 0 0h2l2 1h1l-1-4 1 1h1c1 0 3 2 3 4 1 1 1 1 1-1l-2-3v-2l-3-3-1-1-1-1-2-1-2-2-2-1-6-3-1-4v-1h3v-2l-1-3 1 1 3 1 2 1 2 1 1 1h5l-2-2-1-2v-1h-1l-2-4h-1v-1l-4-4-1-1-2-1-1-1h-1l-1-2-3-2-2-1-2-1-3-2-1 1h-2v-2-1-1l-3-3 1-1 1-1 2-1 2 1h6v-1c0-2-1-2-4-2l-6-2-4 1-3-1-3-1h-1-2l-2-1-2-2h-1l1-2v-2-1h1l2 1h1v1l1 1h2c0-2 0-2 1 0h2l2 2v1l1 2 2-2c-1 0 0 0 0 0l1-1 1 1 1 1 1 1c1 0 2-1 1-2l1-1-1-1-1-3h1l1-1h2l2-1 1 1v-1-2-3h1a861 861 0 0 1 3-2l-1-1 1-4-2-2v-1h-1l-1-1v-1c-2 0-2-1-2-3v-2h-1l-1-1v-2-1l3 2 5 2-1-3-2-1v-1l1-1h1v-1h1l1-1h-1-1v-1h-1l-2-1h-1l-1-1c-1-3-2-3-3-3l-3 2h1v1h-2-1l-2 1c-1 1-2 2-3 1l-1-1-2-1-1-1-1-2v-1h-1l-3 1c-2 1-2 1-3-1l-1-2v-2h5v-2l-1-2v-1h2l2-1c0-1 1-2 3-2h1l-1-1c-1 1-1 0-1-1h-3v1l-1-1-1-1c-2 0-2 0-1-1l1-1h3l6 1v-1l-1-3s-1-3-2-2l-1-1-1-2 1-1v-1l1 1 3 2-1-3-1-2 5-1h3c1 1 1 0 1-1l-1-1-1-1v-1l-2-2h-2-1l-2-1-3 1h-1l-1-1-1 1c0-1-2-2-3-1l-2 1-2 1-2 1h-1l-2 1h-1c-2 0-2 1-1 2v2c0 1 0 1 0 0l-2-1v-1c1-1 0-1-1-1l-1-1 1-1 4-1 1-1c1-2-1-3-4-2l-2 1c-1 2-2 2-1 0v-1h-1l-1-1h-1l-1 1v-1l-1-1-2-1v-2-3h6l-2-3-1-2 3-1h2l6-2c3 0 3 0 3-2h-1v-1c-1-2-1-2 2-2l2-2h-11l-2 1h-2v-1-1-1l1-1-1-1 1-2v-1h-1v-1h-2l-1 1v-1h-1-1-2-5-1l-1 1-2 2-1 1v-2-2l3-5 2-1 5-3 2-2 1-1v-1l3-2 1-2-2-1a151 151 0 0 1-8 6l-2 2h-1l-1 1-1-1h1l2-2 1-1 2-2 2-2 1-1h1l1-1v-1l1-1 2-4 1-1 2-1 1-2 1-2v-1l-2 2v1l-1 1-1 1s0 1 0 0l-1 1h-1v2h-1l-1 1v0h-1v1l-1 3h-1l-1 1c0-1-1-1-1 1l-2 1h-1l-1 1-3 1a207 207 0 0 0-2-22v-2-8a120 120 0 0 0 0-11v-2-2l1-1-1-1v-1c0-2-1-2-2-1v3 1l1 5v4a199 199 0 0 0 0 25 278 278 0 0 1-1 17l-1-1h-1l-4-2-1-1-5-1h-1l-2-1-2-2-2-1-1-1c0-2-1-2-1-1-1 1 0 2 1 3l2 2 1 1 2 1 2 1a2922 2922 0 0 1 12 5l1 6v2h-2-1l-2-2-1-1-1-2-1 1v1l-1-1c-2-1-2 0-4 1l-1 2h-1v-1l-1 1 1 1v3h-1l-2-2h-3-1v-1h-2l-1-1-1 1 1 1v1h-1l-1 1v1h1l3 1 2 1v-1l1 1 1 1 2 1-1 1c-1 1-1 1 2 1l5 2 1 1 3 2h-3l-2-1h-2-1c0 1 0 1 0 0h-1l-1-1-2-1-2-1-1-1h-3l-1-1-3-1v1h-2-1c0 1 0 2 2 2l3 1 2 1 1 1-3 1-2 3h4l7-1-1 1v2c2 0 2 1 2 3l-2-1h-2l-1 2h1l2 1v1l-1 2v1l-1-1-8-2h-4l-2 1h-1l1 1c2 2 1 3-1 2l-1-1h-2l-1-1-1 1h-2v2l1 1v1l-2 2-1 1h-3c-1-1-2 0-1 2l2 2v4l-1 1h-1c1 1 0 1 0 0h-1l-1 1v1h1c2 0 2 1 2 2v2l3-2 3-1h4l2 1h1l-1 2-2 2-2 1-2 1-1 1h-5-6v2l-1-1c0-1 0-2-1-1v1l1 1 2 1h7v1l-2 2-1 1h-1l-1 2h1l3-1a44 44 0 0 0 9-2l-1 1-2 3h2l1-1h1l2-1 1 2v2l-2 1-2 2c0 1 0 2-2 2h-4l-4-1h-2l-3 1 2 1 2 1 3 1 6 2v4h-1l-2-1-1-1h-1-1-2l-2 2h-1l-2-1-3 2-2 2-2 1-1 2v1h-1l-2 1-2 2h-1l-2 3h2a22 22 0 0 1 8-5l1-1h2v1h-1l-1 1-1 1-1 1-1 3v1l-1 2-1 1h-1v2l1-1 4-3h1v1l-1 3v1l-2 1-1 2v4l-1 1-1 1-1 2v1l2-1 2-2h1l1-2h1l2 2 2-1h1c1 1 1 1 2-1l1-1h1l2 1v1h1c0 1 0 2-2 2h-3l-2 1h-2s0 1 0 0l-1 1h-3l-1-1-1 3h1l3 1 1 1 1-1 2-2 1-1v3l-2 3-4 4-1 2-2 2-4 1-1 1-1 1v1h-2v1h-1l-1 2h1v3h-2l-2 3-2 2-1 2 1 1 2 1v3l-1 1-2 1c-1-1-2-1-4 1l-2 2-3 4-1 1v1l-1 1-2 1h1v1h2l1 1-1 1-1 2v1l-1 1h2v1h4l1 1h1c0 1 1 2 2 1l1 2-1 2-3 3-1 2h-1v1h-1v2l-1 1 1-1h3l1-1v1l2-1c1-1 2-2 2 0l1 1h2l-2 2-1 1v2h-1 2v3c-1 0-2 0-1 1l-1 1h-1l1-1-1 1-2 1-2 1h-1c-1 0-3 1-3 3-1 1 0 3 1 3l2 1 1 2-1 1-2 1h-1v2l1 2v-1h3v1l1-1 1-1 1-1 1 1 1 2v1 2h1v-1h2v-2h3l-1 2h3l3-2 1-2v-1h1v-1l1-2 1-1v-1c1-1 2-1 1 3l1 3v1l-1 1-2 1v1l-1 2-1 1h3c1 1 1 1 1-1s0-1 1 0v2l1 2v1l1-1 1-1 1-1v-2l1-1 1-2-1-1v-3l2 1h2v-1h2l2-2v-1h1v1h1l1 2v3h2c1 1 1 0 1-1l1-2v-1l1-1 1-1 2 2h1l2-1 1-1h5v4c-1 0-1 0 0 0l1 1v3h0v1h1l1 1h1v-1-1-1-1l1-1h1v-2h2l1-1h1v1l2 1 1-2v-1l1-1 2-1 1 1-1 2-1 1-1 2 1 1 1 1 1 1h1l1 1 3 2v3l1 4h7zm45-13v0zm7-1v-1 1zm6-1v-1 1zm-133-26l1-1 1 1h-1-1zm-2-8l2-2 1-1v1l-1 2h-2zm11 0h0zm0-39h-1l-1-1 3-2 1-1 1 1v2l-2 1h-1zm8-9v-2l1-1c1-1 1 0 1 2l-2 1zm31-50h-2v-1l1-1 4-1h2c1-1 1 0 1 1l-2 1-2 2h-1l-1-1zm-5-1l-1-3c2-1 3 0 3 2v1h-2zm1-7v-1 1zm11-7l-2-2h2l1 1h1l1-1v3c-1 1-1 1-3-1zm23-2l2-1v1h-2zm-37-2l-1-1-1-1h3l1-1c0 1 0 0 0 0h5l2 2-3 1-3 1c-2 1-2 1-3-1zm56 1h-6l-2-1h1l2-1 2-1h1l3 1v2h-1zm-5-21l-1-1 1-1h2v2h-2zm1-5h-1-1c-1-2-1-2 1-2h1l1 1c0 2-1 3-1 1zm-32-3l1-1 1 1v1l-2-1zm-1 0v0zm16-15v-2h4c1 0 1 1-1 1l-1 1h-2zm13-6v-1l-3-3-1 1-1 1h-6l2-2 2-2 6-2c1 0 2 0 2 2l1 4v3l-2-1zm-20-3l-1-1 2 1h-1zm-8-2c-1-1 0-2 1-2l1 2v1h-1l-1-1zm10-1l-1-1 2-1v2h-1zm16-3c0 1-1 0 0 0zm-72 219h-1v1l1-1zm122 0v0c1 0 1 0 0 0zm-31-8s1 0 0 0c0-1 0 0 0 0 0 1 0 1 0 0zm36-1zm0-1l-2-1v1h2zm-161-43l1-1 1-1h-2v2zm39-48v-2l-1 1v1h1zm123-42v0zm-1 0h-1 1zm-129-18c0-1 0-2-1-1v1h1zm2-1v-1c-1-1-1 0-1 1h1zm5-11v-1l-1 1h1zm2 0l-1-1 1 1zm69-18v0zm-35-30c1 0 0-1 0 0l-1 1 1-1zm-5-19v-2l-3-2-2-2v2l1 1 2 1 1 1h1v1z"/><path d="M1014 398l2-1v-3l1-5h2c0 1 0 1 0 0h1l2 1-5-5v-3h2l3 3v2h2v-1l2 2 1 1v-1l1-1 1-1h1c1-1 1 0 2 1l1 1 2-1v-1-1-2-2-4-3c-1-1 0-2 1-1l1 1 1 1h1l1 2v3l-1 1v2l1 1h2l1-1h3l1 1v1h1l1-1h1l1-1v-1h1l1-1 1-1 1-1 1 1v3l-1 1 1 1v1c-1 1 0 1 1 1h1l1-1 1-1v-1 2l-1 2 1 1h5l2-2v-2-2l1 1 1 1 1 1v1l1 1-1 1 2 1 1 1v-1l1-1 1 1h1v-1h-1v-1l-1-2-1-3v-1 1l1 1v-1h2l1 1 1-1 1-3-1-2-1-1-1-2v-2l-1-2-2-1-1-1-1-1v-2h3l2-2v1h1l1 1h1l-1-1v-2h3l2 2c1 1 1 1 1-1l-1-2-1-1-1-1-1-1-3-2-2-2v-1l1-1h2l1-1v-1l1-1c0-1 0-1 0 0h4c1 1 1 2 2 1l1-3c0-2 0-3 1-2l2 1h2v1h3l1 1v-2-2h1l1 1 2 1h1l-1-1-1-1-2-4h-1l-1-1-2-2-4-3c-2 0-5-1-6-3l-1-3-1-2 1-1 2 1h1l-1-2v-2h2l2 1 3 1 2 2h4l-1-2-1-1h-1v-1-1-1l-1-1-1-1-1-1v-1l-4-4-2-1-1-1-1-1-2-2-5-2-3-2-1-1h-2-2v-1-2-1l-1-1-1-1-1-1c-1-1-1-1 1-1l1-1 2-1 2 1h5l1-1c1-1-1-2-4-2l-3-1h-2l-2-1h-1-1l-2 1-2-1-3-1h-1-2l-2-1-2-2-1-2 1-2v-1h1l1 1c1-1 2 0 3 2 1 1 2 1 2-1h1l1 1 2 1 1 1v1c0 2 1 2 2 2v-2h1v-1h2v1l1 1 1 1 1-1v-1-2l-1-2v-1h1l1-1h3l1-1 1 1v-3-2l-1-1 1-1 2 1c4 2 5 2 5 1l-2-2c-1 0-3-2-2-3v-1-2l1-1-2-1v-1h-1l-1-1s0-1 0 0l-2-2v-2l-1-2h-1v-1l-1-2 1-1 7 4v-1l-1-2-2-2h1l1-1 1-2s-1 0 0 0l-1-1-2-1h-2l-1-2v-1c-1-2-3-2-4 0v1c0 1 0 2-1 1h-3l-1 1-2 2-2-1-2-2-2-1v-2l-1-1-3 1h-3l-1-3v-2h5v-2l-1-1-1-1v-1h4l1-1v-1l1-1 1-1-1-1h-1l-1 1v1l-2-2h-1l-1-1 2-2h5l3 1h1v-1l-1-1v-2l-2-2-2-2c-1-1 0-2 1-3h1l3 2-1-2-1-2 3-1h6l-1-1v-1l-1-1-1-1c0-1-1-2-3-2h-2l-2-1-2 1h-1v-1h-1l-1 1-2-1-3 1-2 1-3 1-1 1h-1-1l-1 1v4l-1-1-1-1v-1l-1-1-1-1v-2h5l1-1c0-2 0-2-2-2-1 0-3 0-4 2l-2 1h-3l-1-2h1c1 1 3 0 2-1h-1l-2-1-1-1h-1v-4-1-1h5v-2l-1-1-1-2 3-1h2l6-2c3 0 3 0 2-3l-1-1 3-2h1v-1l-1-1h-1-1l-3 1-5 1h-3v-1-2-1-1-1-1-1l-1-2h-1v1h-1-1l-1 1h-1c-1 1 0 1 1 1h2v4l1 2v2c0 2-2 1-2-1l-1-1c-1-2-2-1-3 0h-1-3-2c-2 0-2 0 1-2l1-1 3-2 2-1v-1c1-1 0-1 0 0h-1l-1-1h-3l-3 2v1l-2 2v-1-2-2l1-2 5-5 3-2 2-2 2-2 3-2 1-2-2-1-1 1-1 1-1 1-2 1-1 1h-1l-1 1c0 2-1 2-2 2l-1 1h-1-1v-1l2-2 2-2 2-1 2-3h-1c0 1 0 1 0 0-1-1-1 0-1 1l-2 1h-1l-1 1-1 1-3 1-1-2a87 87 0 0 0 0-12v-3-2-5-8l-1-8v1a112 112 0 0 0 0 19v21c0 2-1 3-2 2s-3-3-5-3l-2-1h-2c-4-1-6-2-7-4l-2-1c-1 1-1 0-1-1h-1l1 2 2 2h1l2 2 1 1 6 2c-1 1 0 1 0 0h2l3 1c2 2 3 3 3 7l-1 3h-1-1l-2-2-1-1c-1-2-1-2-2-1v1h-1l-1-1h-1l-2 1-1 2-1 1 1 2-1 1h-1l-2-1-1-1h-1-1-1l-1-1h-1-1v2l-1 1h-1v1h3l1 1h2l1 1h1l1 1 1 1-1 1v1l6 1 2 1v1c2 0 3 2 2 2h-7-1v-1h-1l-2-1-2-1-1-1-2-1h-1-1-1l-2-1-1 1h-2l1 1c1-1 4 1 5 1l1 1 1 1-3 1-2 2-1 1h4l5-1c3 0 3 0 2 1v2l1 1 1 1-2 1-2-1v2l2 2-1 2c1 1 0 1-1 1l-3-1-2-1h-6-2-1v2c2 1 0 2-1 1h-1l-2-1h-2c-1-1-3 0-3 1l1 1 1 2-2 2-1 1-2 1v-1h-1l-2 1 2 1c1 0 2 1 1 2v5h-2-1l-1 1v1h1c2 0 2 1 2 2v1h1l3-2 2-1v1h4l2 1 1 1v1h-1l-2 2-2 1-2 1c-1 1-1 2-2 1h-4-4v1h-1l-1-1v1h-1l-1-1v1l1 1 2 1 3-1h3l1 2-1 1v1s0 1 0 0l-2 1h-1l-1 2h1l4-1 5-2h3l-2 2-1 2h2l1-1 2-1 2 2v1l-1 1-1 1-2 3-1 1-3 1h-2c-2-1-4-2-5-1l-1-1-2 1c-1 0-1 1 1 1l3 1 3 1h2l2 1 1 1v2l-1 2-2-1-2-1h-1l-3 1-2 1-3-1-2 3-3 2-2 2-1 1-2 1-1 1-2 1-1 1-1 2h1l7-5h1l2-1h2l-1 1-2 2-2 3c1 1 1 2-1 4l-2 3 1-1 2-2a87 87 0 0 0 3-1v1l-1 3v1l-2 1-1 2v4l-1 1h-1l-1 4 2-2 1-1h1c0 1 0 1 0 0l2-2 3 1h3l2-1 1-1h1l2 1 1 1-1 2h-1-1-3l-1 1h-1l-1 1h-1-2-1v-1l-1 1-1 1 1 1c2 0 3 0 2 1l1 1 1-1 1-1h1l1-1 1-1v4l-1 1-1 1c-1 0-4 2-4 4l-2 2-1 2-4 2-3 2-1 1h-1l-1 2h1v2l-1 2-3 1v1l-2 2-2 2 2 1h2v1 3l-1 1-1 1h-4a315 315 0 0 0-8 10c-2 1-1 3 1 2l1 2-1 1-2 3h2v1h6v1l1 1c1 0 2 0 2 2l-1 2-1 1-2 1v2l-1 1-1 1-1 1h1v1h2l1-1v2l1-1 2-2h1c0 2 0 3 1 2h2v1l-1 1h-1-1v3c1 1 2 3 0 3v1l-1 1a446 446 0 0 0-7 7l1 3v2l-1 1h-1c-2 0-2 2-1 3v1l1-1h1c0 1 0 1 0 0h1l1 1v-1h1l1-1 1-1v-1l1 2 1 2v1l-1 1 1 1 1-1 1-1v-1h1v-1h2v2l1 1 2-1 2-1 2-2v-1-1h1l1-2v-1l1-1h1v3l1 3v1l-1 1-2 1-1 2v1l-1 1h2v-1l1 1c1 1 1 0 1-1s0-2 0 0l1 1v1l1 2v-1h2v-1l1-2h1v-1c1-1 0-3-1-4v-1h4l1-1h1c1 0 2 0 2-2l1-1h1l1 1 1 2v1h1s0 1 0 0l-2 1h2l1 1 1-1v-2-1l1-1h1l1-1h1v1c1 1 1 2 2 1l2-1 1-1 1-1h1l2 1 1 1v2l1 1v3l1 2h1l1-1v-1l-1-1 1-1h1v-1l1-1 1-1 1 1 1-1c0-1 0-1 0 0h1v1l1 1 2-2v-1l1-1h3l-1 2-2 2 1 2 1 1 1 1h1l1 1 3 2v3c0 4 0 4 4 4h3zm-74-40v-1l2-2 1 1h-2l1 1v1h-2zm-3-9h1l1-2 2-2v2l-1 2h-3zm12 0l1-1-1 1zm0-39c-2 1-2 1-2-1l1-1 1-1h1l1-1c1-1 1-1 1 1v3h-3zm7-9v-1l1-2h2l-1 3h-2zm31-49l-1-1-1-1h-3v-2l1-1c1 0 2 0 2 2h2l2-1h3c2-1 2 0 2 1l-2 1-3 2h-2zm-4-9l1-1v1h-1zm12-6l-1-1-1-1v-1h6s0-1 0 0v2l-2 2-2-1zm23-3l2-1-1 1h-1zm-37 0l-1-2-1-1v-1h1l1 1v-1l1-1h7l1 2-3 1-3 1-3 1zm56-1l-3-1-3 1h-2v-1l1-1h2l1-1 1-1h1l3 2 1 1v1h-2zm-6-21l1-2h1l1-1v3h-3zm-31-7v-1h1l2-1v2h-1-2zm16-16v-2h5l-2 2-2 1-1-1zm-7-9l-1-1 2 1h-1zm-8-2l-1-1 2-1 1 2c0 2-1 2-2 0zm9-2c-1 0-1-1 1-1h1v2h-1l-1-1zm5-8l1-1v1h-1zm62 225v-1 1zm-91-4v-1l-1 1h1zm95-6v-1l-1 1h1zm-145-19h-1 1zm-8-5h-1 1zm174-9l-1-2v2h1zm-181-11h1l1-1c-1-1-2 0-2 1-1 1-1 1 0 0zm39-47v-1h-1l1 1zm124-15c0-1 0-2-1-1v1h1zm-1-27v0zm-130-19h-1v1l1-1zm107-1l-1-1v1h1zm-106 0v0zm6-9v-1h-1l1 1zm75-16v-1l-1 1h1zm-39-32v-1l-1 1h1zm2-1l-1-1v1h1zm30-18v-1l1-2h-1v1c-1-1-1 0-1 2l1 1v-1zm3-3l1-4v-1 1l-1 1v1l-1 1h-1l1 2 1-1zm-43-2l-1-2h-1v1l2 2v-1zm46-3h-1 1zm1-2h1l1-1-1-2v2l-1 1v0zm-20-25l-1-1v-1l1-2v-1-2l1-1-1-1v-1l-1-2-1 1v3l-1 1 2 4v3h1z"/><path d="M1015 398l1-2v-7h5l-4-4v-3h2l2 2v1l1 2v1l1-1 1-1 1 1a51 51 0 0 1 1 2l1-2 1-1h2l1 1 2 1 2-1-1-4v-2-2l1-2v-2l-1-2 2 1h2l1 2v1h1l-1 3v2l1 2h4c1-1 2-2 3-1v2h2l1-1v-1l1-1 1-1h1l2-1v5l1 1c-1 1-1 1 1 1l1-1 1-1h1v1 3h5l1-1v-4h2v1h1l1 1v3l1 1 1 1 1-1 1-1-1-3-1-4 1 1h2l1 1 3-2-1-2-1-1v-1-1l-1-2-1-2c0-1 0-2-2-3l-1-1h-1l-1-1v-2h1l1 1 1-1 1-2 1-1 1 1 1 1h1l-1-2h2l4 2h1l-1-3-2-1-1-1h-1l-2-3-2-2v-1-1h3v-1l1-1 1-1h1a415 415 0 0 1 3 0l2 1v-3l1-2h1l1 1c1 2 2 2 2 0h1v1h3v-2c0-1 1-2 2-1 1 2 2 1 2 0l-3-3-1-1-1-1-2-2c-1-2-2-2-3-2-3 0-7-3-8-6v-2l1-2 1 1c2 1 2 0 1-2l-1-2h2l3 1 2 1 2 1 1 1h4l-1-2h-1l-1-1c-1 0-1 0 0 0v-2s-1 0 0 0l-1-1v-1l-2-1v-1h-1l-4-5h-1l-1-2-2-1-1-1-1-1-4-2h-1l-1-2c-2-2-4-2-4-1h-2v-2l-1-1v-1-1a132 132 0 0 1-2-2v-1l1-1 3-1 2 1h1l4-1h1c0-1-2-2-5-2l-6-2-4 1-3-1h-2l-1-1h-2l-3-1-1-1-1-3v-2l1-2 1 1h1l3 3h1l1-1h2l1 1 1 2 1 1v2l2-2 1-1h1l1 1 1 1 1 1 1-1v-2-1l-1-1v-2h1v-1l2-1h3v-1-1-4l3 1 4 1v-1l-1-1c-1 1-2-1-3-2l1-3-1-2-1-1-1-1v-1h-1c-1-1-2-1-2-4v-2l-1-1h-1v-1-1c0-2 0-2 1-1l7 3-1-1-2-3h1v-1l1-1c1 0 1 0 0 0v-1l-2-1-2-1-1-2-2-2-2 1-1 1 1 1-1 1-2-1h-1l-1 1-2 2-2-1-2-2-2-1-2-3h-1l-2 1h-2l-1-3-1-2 2-1 1 1h1l2-1v-1l-1-1-1-1v-1h4v-1l2-2v-1l-1-1-1 1-1 1v-1l-1-1h-1l-1-1 1-2h6l2 1h2l-2-4-1-2-2-1v-4h2l2 2h1l-2-3v-1l2-1a36 36 0 0 1 5 0h1v-1l-1-1v-1l-1-1-1-1v-1h-3-5-1-1-1l-4-1-1 1-2 1-3 1-2 1h-1l-1 1v4l-1-1-1-1v-1l-1-1-1-1c-1-2 0-2 4-3h2v-2h-3l-4 2-1 1h-3v1-1l-1-1v-1-2h-1l-1-1-1-1v-1-1l1-2v-2h1l4 1-1-3-1-2v-1h2l3-1 6-1 2-1v-1l-1-3 1-3-5 1-3 1h-2l-1 1v-5-4l-1-1h-2-1c0-1 0 0 0 0l-1 1h-1c-1 1 0 1 1 1 1-1 2 0 2 1l1 4c1 2 0 4-1 4l-2-2-2-2h-1l-1 1h-4-1-1c-1 0-1-1 1-2l2-2 3-1 2-2h-1l-1-1h-2l-4 2-1 1c0 2-2 2-2 0l1-2v-1-2l2-3 3-2 5-4h1l1-2 4-3v-2l-2 1-1 1h-1v1h-1l-1 1-1 1h-1l-2 2-1 1-1 1h-1l-1-1c-1 0 0-2 2-3l1-1 3-2 2-2h-1-1l-1 1-1 1h-1l-1 1h-1l-2 2c-2 1-2 1-2-3a112 112 0 0 0-1-15 274 274 0 0 0-1 21h-1l-1-1-1-1-3-1h-2l-4-2h-1l-2-1-2-2-1-1h-1v1l1 1 1 1 1 1 3 2 4 1 2 1 6 2 1 7v2h-3-1l-1-2-2-1v-1h-1v1l-2-1h-2l-1 1-1 2-1 1 1 2-1 1h-2c-1-1-1-2-2-1l-1-1h-2l-1-1h-1v1l-1 1h-1l-1 1h-1l2 1h4l2 1 1 1h1v3h-1l3 1c3 0 4 0 5 2h1l3 3h-8-1l-1-1c0-1 0-1 0 0l-2-1-3-2h-1l-1-1h-1-1-1c0-1-2-2-3-1l2 2 4 3-3 1-3 3 4-1h8l-1 1v2l1 1 1 1-1 1-3-1c-2 1-1 1 0 2l2 1v1l-1 2v1l-2-1-3-1h-6-1-2-1v1c2 2 1 3-1 2h-2l-1-1h-5v1l2 2c0 1 0 2-2 3l-1 1-2 1v-1h-3l1 2 2 1v5c0 1 0 2-1 1h-1l-1 1c-1-2-1-2-1 0l1 1 2 1v1l1 1c4-3 5-3 5-2h5l2 1-1 2-3 2-1 1-2 1c-1 1-1 2-2 1h-3-1-4v2h5l1 1-1 2v1c0 1 0 1 0 0h-1l-3 2h3l7-2 3-1-1 2-2 2v1a160 160 0 0 1 5-2l1 1 1 2-2 2-1 1-1 2-2 1-5 1-1-1a604 604 0 0 0 2 3l3 1 1 1v4l-1 1c-2 0-2-1-2-2l-2-1h-1l-4 2-1 1-1-1-1-1c-2 0-3 2-4 3l-3 2-1 2-1 1-2 1-1 1h1l3-1 2-1 3-1v2h-1l-2 2-1 1-1 3-1 2-1 2h1l3-3v5l-1 1-1 2-1 1v3l-1 2-1 1-1 2v1l2-2 1-1h1l2-3v1l1 1h5l2-1 2-1h1l1 1 1 1-1 2h-1-1-1-1l-1 1h-1l-1 1h-1l-1 1h-2l-1-1h-1v1c2 0 2 1 2 2h1l1-1 2-1h2v3l-1 1-2 1-3 3-2 4-1 1-4 2-2 2-2 1c0-1 0-1 0 0l-1 1-1 1c0 1 0 1 0 0h2l-1 1v3h-2-1l-1 2-2 2-2 2 2 1 2 1v1l-1 2v1c0 1-1 2-2 1h-2l-3 2-1 1-2 2-1 3-1 1c0-1 0 0 0 0l-1 1-1 1 2 1 1 1-1 2-2 3h1l1 1h6c0 2 0 3 1 2h1v4l-4 4v1l-1 1s0 1 0 0l-1 1 1 1h2l1-1c1 0 1 0 0 0v1l2-1c1-2 2-2 2-1l1 2 1-1c1 1 1 2-1 3l-2 1 1 2v4c0-1 0 0 0 0l-2 2-2 1h-3v1l-3 1v3l1 1v-1h1l1 3v2l-2 1-1 1v1 1h1l2-1h2l2-2h1v4l1 1-1 2h1l1-1v-1l1-1 1-1h2v2l1 1 1-1 3-1 1-2c1 0 1 0 0 0l1-1v-1l2-2v-1l1-1v-1l1 1v3a1922 1922 0 0 1-1 6l-2 2 2 2v-1l1-1v1l1 1v3l1-1h1l1-1 1-2 1-1v-2-1l-1-1c-1-1 0-2 1-2h2v1h1l1-1h1c1 0 2 0 2-2l1-1h1v1h1l1 2v1h1l-1 1h1l1 1v-1l1-2v-1l1-1 2-1 2 2h1l2-1v-1h1l1-1 2 1h2v1 3c2 0 2 0 1 1h-1l1 2 1 2v1l1-1v-2-1l2-1v-1-2h4c0-1 0-1 0 0h1v1l1 1 1-2 1-1 1-1 2-1v4l-2 2 1 1 1 1 1 1h1l1 1 2 1 1 5c0 3 0 3 4 3h4zm-75-40v-2l2-1v2l-1 1h-1c0 1 0 1 0 0zm-3-8l2-3 2-2v4h-2l-2 1zm12-1h1l-1 1v-1zm0-39l-2 1v-1l1-2 1-1h1v-1c1-1 2-1 2 1v3l-2 1-1-1zm7-9v-1l1-2c2-1 2 0 2 1-1 3-2 3-3 2zm31-49l-1-1h-2l-2-1-1-2 2-1 2 2h2v-1h7l-3 2-2 2h-2zm-4-9l1-1v1h-1zm11-6l-2-3h7v2l-1 1c-2 2-2 2-4 0zm24-3v-1h1l1 1h-2zm-37-1l-1-1h-1l-1-3 2 1h1v-1h6l1-1 1 1v3h-2l-3 1h-3zm56 0l-4-1-3 1h-1v-1l1-1h1l1-1h1l1-1h1l1 1c2 0 3 1 3 2l-1 1h-1zm-6-21v-1l1-1 1-1h1v1l-1 2h-2zm-32-7l2-2c2-1 2-1 2 1v1h-4zm16-15v-3l2-1h3c1 1 1 2-2 3l-2 1h-1zm-7-10v-1l2 1h-2zm-7-2c-2-1-1-2 0-2l1 1v3l-1-2zm9-1l-1-2h2v3l-1-1zm5-9v-1l1 1h-1zm-67 223v-1h-1c0 1 0 2 1 1zm128-1l-1-1c0-1 0-1 0 0v1h1zm24-43v-1l-1 1h1zm-178-9h-1v1l1-1zm37-47h1-1c0 1 0 1 0 0zm125-14l-1-1 1 1zm-135-3v0zm-4-6l1-2h1v-1h-2l-1 1v2h1zm7-37v0zm8 0v-1c-1-2-1-1-1 1h1zm99-1zm-101 0l-1-1v1h1zm2-10h-1 1zm74-15v-1 1zm-1 0l-1-1h-1v1h2zm-51-22h1l-1-1-1 1h1zm64-1v-1l-1-1-1 1 2 1zm-58-9l-1-1v1h1zm8-1h-1 1zm31-17l1-1v-1-2l-1 1v1 2zm-34-1l-1-2v1l1 1zm37-3l1-1 1-2v-1l-2 2v1h-1l1 1zm-42-2l-1-2h-1v2h2zm47-5h-1 1zm1-1v-2l-1 2h1zm-22-5v-3-4-3 10zm0-14v-3 3zm0-6v-2-3l1-1v-2l-1-2-1-1v4h-1l1 1v3l1 4v-1z"/><path d="M1014 398l1-1v-2l1-6h4l1 1-1-1-2-2-1-2-1-2 1-1h2l2 2v1l1 2h3l1 2 1-2 1-1h3v1l2 1 1-1v-4-2-2-3h1l-1-1c0-2 0-3 1-2l1 1c1-1 2 0 2 1l2 2v3l-1 1v1l1 2h2v-1h5l1 2 1-1v-1h1l1-1 1-1 3-1 1 3-1 1 1 1v1h2l1-1 1-1v2l-1 2 2 1h3l1-1c1 1 1 0 1-2v-2-1h1l2 2 1 1 1 1v1 2l1 1 1-1 1-2-2-4v-2c0-1 1-1 1 1h2l2 1 1-1 1-1-1-2-1-3-1-2-1-2-2-2-2-2-1-1v-1c1-2 2-3 2-1v1l1-1 1-2 1-1 1 1h1c0-1 1-2 2-1h2l1 1 2 1-2-3-1-1-1-1-1-1-3-2-1-2v-1-1h3v-1l1-1 1-1 2-1 2 1 1 1 1-3 1-2h1l1 1 2 1v-1h1c1 1 1 2 2 1h2l-1-3h2l1 1v-3l-2-1-1-1-1-1-2-2c-1-2-2-2-3-2l-4-2-2-1c-2-2-2-4-2-5v-1-1h2l1 1v-5l4 2c1-1 2 0 3 1l1 1 1 1h1l2-1c1 1 1 0 0 0l-1-1-1-1v-1l-1-2v-1l-2-1v-1h-1v-1l-1-1-3-2-1-1-2-2-1-1-1-1h-1v-1l-4-2-2-1h-1v-1l-2-1h-3v-1l-1-2v-1l-1-1-1-1-1-2 1-1h1l2-1 3 1 2-1h4l-4-2h-4l-2-1-1-1h-1l-2 1h-1-3l-3-1h-1l-1-1-3-1-1-1c-1 0-2-1-1-3v-2-2l2 1h1l2 1 1 1h3l2 1 1 1 1 2 1 1 1-1v-1h2l1 1 1 1h2v-2l-1-1-1-3h1l1-1h1v-1h3v-1h1v-1-2-2l3 1 4 1-1-1-3-3 1-4-1-1-2-2-1-1-1-1-1-3v-2h-1l-1-1v-1c0-3 0-3 1-2l6 3h1l-1-1-1-1-1-1c-1-1 0-2 1-2 0 1 0 0 0 0l1-1v-1l-4-2-1-1-2-3c-1 0-3 1-2 2l-1 3v-1l-2-1-2 2-2 1-2-1-3-2c-1 0-2-1-1-2h-1v-1l-2-1-2 2h-1l-1-2-1-2-1-2 1-1h2l2 1 1-1v-1l-2-1v-1h-1l3-1 2-1 1-2 1-1-1-1-1 1-1 1-1-1-1-1-2-1 2-3h5l3 1h1v-1l-1-2-2-2-1-1-1-2c0-1 0-2 2-2h1v1l2 1v-2l-2-2 1-1h3a98 98 0 0 1 5 0l-2-3v-1l-1-1-1-1h-1-1-1-1-4-1-6l-3 1-2 1-1 1h-1l-1 1h-1v4l-1-1-1-1-1-1v-1l-2-1 1-2h1l1-1h2l2-1-2-1c-2 0-3 0-4 2l-2 1v1l1 1-1 2v1l-3 1c-1-1-1-4 1-3l1-1-1-1-1-1h-1v-2-2l-1-1h-1l-1-1v-1-2-2l3-1h3l-1-2-2-3 4-1h2l4-1 3-1 1-1-1-1v-2-3l-7 2h-2l-2 1v-7-2-2l-1 1h-2v1 1l1 1 1 5c1 2 0 4-2 3l-1-2-1-1-2-1c-1 1-1 2-2 1h-3-3l2-2 2-2 1-1a1758 1758 0 0 1 2-3h-2l-4 2-1 1-1 2h-1v-4-1l1-2 1-2 3-3 4-2 2-2 2-2 3-3c1 0 2-1 1-2h-1l-1 1-1 1h-1l-1 1v1h-1l-1 1h-1l-1 1-2 2-2 1h-1-1c-1-1 1-2 3-4l2-1v-1-1h-1l-1 1-2 1-3 2v-4-2l-1-6v0l-1 14h-1l-1-1-4-2h-2l-3-1-2-1h-2l2 2 5 1 7 3 1 6c0 3 0 4-1 3h-2v1l-1-1-2-2-1-1-1-2v1l-1 1-2-1-2 1-1 1-1 4v2l-2-1-2-1h-1l-1-1c0 1 0 0 0 0h-1-1l-1-1v1l-1 1c-2 0-2 1-1 1l2 1h2l2 1 1 1 1 1v2h-1l3 1 5 1 2 2 1 1c1 1 1 1-2 1h-6-1v-1h-1-1l-3-3h-1l-1-1h-3l-1-1h-2l3 3 3 2-4 2h-1v2l7-2h4l-1 2-1 1 1 1 2 2-1 1-2-1h-2v1l3 2-1 1v3h-2l-3-1-3-1h-6-1v1l1 2h-4l-1-1h-2-1-2v1l2 2c0 1 0 2-2 3l-1 1-2 1h-3l1 1 2 1v3c1 2 0 4-1 3l-1 1v1l1 2 4-1 2-1 2 1h3c2 0 2 0 1 2l-1 2-2 1-3 2-1 1h-2l-2 1-1-1h-5l1 1 1 1h5l-1 3v1l-1 1-1-1-1 1-1 1h1l9-2 3-1-2 3-1 2 1-1h1l1-1h2l1 1 1 2-2 2-2 3-2 1-3 1h-2l-4-1h-4l2 1 2 1h3a32 32 0 0 1 6 2v2 4h-2l-2-2h-2-1l-3 1-1 1v-1l-2-1-4 3-2 2h-1l-1 2v1h2l1-1c2-1 2 0 2 1l-1 1-1 1-1 1h-1v2l-1 1-1 3v1l1-1c2-2 2-2 3 0l-1 1-1 3v2l-1 1-2 2v4h-1v1l-1 2v1l1-2 2-1h1v-1l1-1h1l1 1h4l2-1 2-2 2 2h1l1 2v1h-1-1l-1 1h-1-1-3l-1 1-2 1h-1-1l1 1v1h1l1-1 2-1 1-1 1 1v4l-1 1h-1l-4 3v1l-2 3-2 1-3 2-2 1-1 1v1h-1-1v1h-1v1h1v2c0 2 0 2-2 2h-2v2l-3 3-1 1 2 1h1v1l1 2-1 1v1l-2 2-1-1h-1l-2 1-1 1-1 1-2 2c-1 2-2 2-1 3l-1 1h-1l-1 1v1l2 1 1 1-2 2v1l-1 1 1 1h1l1 1h4c1-1 1 0 1 1l1 1h1v2c1 1 0 2-1 3l-3 3-1 1v1l-1 1 1 1 2-1h1l2-1 1-1v3h3c0 2-1 3-2 3v6h-1c0 1 1 1-1 2l-3 1c-1-1-2 0-2 1h-1l-2 2-1 2h2l1-1v1 3l1 2h-1l-1 2h-1l-1 1 1 1 2-1h3v-2h2l1 2v5h1v-1l1-1v-1l2-1h2v3l2-1 2-1 1-2 1-1v-1h1l1-2 1-1v-2h2v3a45 45 0 0 0 0 3v1c2 0 1 2-1 3h-1l-1 1 2 3v-1-1l1 1 1 1v2h1l1-1v-1l1-1c1 0 2-2 1-3v-1l-1-2 1-1h4l2-1c1 1 1 1 1-1l1-1h2l1 1 1 2v1h2v-1-1l1-1h1v-1l3 1 1 1 2-1 3-2h1l1 1c2-1 2 0 2 1v3c1 0 2 0 1 1v2l1 2h1v-1-2-1h1l1-1v-2h5v1l1 1 1-2 1-1 1-1h2v3l-2 1v1l1 1v1l1 1 4 2c2 1 2 1 2 4v3l7 1zm-75-40l1-2 1-1h1v2l-1 1h-2zm-3-8l4-5v4h-1l-3 1zm12-1l1-1v1h-1zm-2-39l1-3 3-1c1-1 1-1 2 1 1 3 0 4-3 4h-2l-1-1zm10-9l-1-1 3-3v4h-2zm31-49l-2-1h-1c-1 1-3-1-3-3l2-2 1 1 1 2h1l3-1 3-1h1c1 1 0 3-2 4l-2 1h-1-1zm-5-9l1-1 1 1h-2zm13-5l-3-4h5l1-1h1v4l-1 1h-3zm22-4l1-1v-1l1 1 1 1h-3zm-36 0l-1-1-1-1-1-2c0-2 0-2 1-1 1 2 1 2 2 1l1-1 1-1h2l1 1 1-1 2 1v2l-2 2-4 1h-2zm56-1h-7c-1 1-2 0-1-2h2l1-1 1-1h1v-1l1 1 2 1 2 2-2 2v-1zm-37-28c-1 0-2 0-1-1l4-2v1c0 2-1 2-2 2h-1zm15-16l1-3h2l2 1c1 1 0 1-1 2l-3 1c-1 1-1 1-1-1zm-7-9v-2l2 2h-2zm-8-1v-3h2l1 3h-3zm10-2c-2-2-1-3 0-2h2v1c0 3-1 3-2 1zm5-9v-1l1 1h-1zm-67 223h-1 1zm128-1h-1l1 1v-1zm-107-5h-1c-1 0-1 0 0 0h1zm-48-47v0zm38-47v0zm-5-2l-1-1-1 1h2zm121-10c1 0 1 0 0 0zm9-3h-1l1 1v-1zm-140-8l2-2v-1h-1l-1 1-1 2h1zm5-4l2-2h-1l-1 1-1 1h1zm11-33l-1-2v2h1zm-1-11zm4 0l-1-2v1l1 1zm69-15c0-1 0-2-1-1l1 1zm-50-22l-1-1v1h1zm64-1v-1l-1-1v1c-1 1 0 1 1 1zm-60-6h-1l1 1v-1zm42-2h-1v1l1-1zm-3-17v-1h-2l1 1h1zm-29 0v-2c-1-1-2-2-3-1l1 1 1 1 1 1zm31-3v-2 2zm-35-1c0-1 0-1 0 0v0zm39-4zm-43 0l-1-1-1-1v1l1 1h1zm48-6v0zm-22-4v-3-4 8-1zm0-16v-2 2zm0-7v-3-1-2-1-2h-1v1l-1 3 1 1v3l1 1z"/><path d="M1013 398c3-2 2-10 5-10-7-7 4-7 4 0 2-3 4 3 6-2 3-1 8 5 5-5-1-8 2-10 7-4-4 12 4 3 7 8 4-4 9-8 9 1 6-5 0 7 7 3 4 0 0-11 6-4 2 8 5 4 2-2 2-1 9 3 5-5 0-6-11-11-5-12 3 0 7-7 12-1-4-4-14-12-6-12 3-8 9 2 10-7 2 0 8 5 7-1 9 3-6-10-9-10-7-1-5-11-2-9-2-10 15 8 9-3-3-7-9-9-13-15-5-4-12-1-14-9-6-8 7-5 11-6-7-4-15-1-22-4-9 1-6-16 0-7 4-5 8 9 10 3 4 2 6 3 3-4 4-1 8-3 8-8 5 1 8 4 3 0 2-8-6-9-6-15-8-9 8-1 5-3-5-2 4-8-4-7-2-8-7 0-6 0-5 1-10 2-14-5-6 7-11-11-1-5-6-6 1-3 2-7-10-6 3-8 6-7-2-4-8-7-2-11 4-3 13 1 6-6l-14-1c-5 0-10 6-12 8-2-4-4-5-6-1-4-3 2-4-3-7 0-3-7-12 1-11 5 2-5-9 5-6 5-2 8 0 8-7-3-2-15 7-12-7-3-6-1 5-1 9-3 0-4-5-9-2-10 2 3-9 2-8-4-2-10 10-8-2 3-7 16-12 15-16l-12 9c-5-2 9-10 0-5-6 7-3-16-5 0 0 10-12-5-15-1 6-1 21 9 12 15 4 7-3 3-1 0-4-6-11-6-11 3-4 0-10-5-11-1 7-1 7 8 12 7 6 1 8 9 0 5-5 2-10-5-16-6 3 3 9 7 1 7-4 5 15-4 9 4 8 4-7 2 0 5 0 10-11-2-15 3 3 8-14-4-7 6-3 6-11 0-5 7 0 4-5 12 2 7 5-2 15 2 5 7-3 4-19 1-7 3-4 11 14-2 6 8 4-6 10 2 3 5-1 7-19 0-7 5 9 1 3 11-2 5-4 1-15 3-13 8 8-4 1 4-1 7-2 4 5-1 2 5-1 3-7 14 0 8 2 5 16-4 11 5-4 1-7-1-4 6-6 4-10 13-17 14-3 1 1 8-5 7-4 6-4 4-1 7 1 10-11 3-11 14-6 2 3 5-3 9 4 2 8 0 11 5-1 4-11 11-2 9 3-2 5 3 8-3 4 5-10 5-4 13-2 2-14 7-10 7 2 2 3 9-2 9 4 1 10-4 10 5 2-9 8 5 11-7 4-9 5-3 6 3-2 2-6 5-2 5 1-4 2 8 5 0 1-3-1-10 5-7 3-2 7-5 9 2 2-9 9-1 12-6 6-1 4 10 6 9 0-8 7-5 9-6 3-6 8 0 3 3 4 3 8 7 8 13h6zm-67-87c-1-10 12-2 3 0-1-2-2 2-3 0zm41-59c-5 1-10-6-3-5 1 4 15-3 6 5-1 1-2 2-3 0zm7-14c-9-6 11-7 3 0 0 2-2 1-3 0zm-14-4c-8-6 7-8 9-3-1 3-6 3-9 3zm56 0c-6 1-12-1-4-4 1-4 11 4 4 4zm-22-44c0-9 12 0 2 1l-2-1zm-14-11c-3-10 7 4 0 0zm14-11c0-5 3 4 0 0zm-52 79c-2-2-3 1 0 0zm73-39c4-1 9-4 2-3-2 0-6 5-2 3z"/></g></g></g></svg>